<ttFont>
          <CharString index="0">
            rmoveto
            -20 61 0 109 104 vvcurveto
            416 vlineto
            183 16 88 86 10 9 -1 -1 8 vhcurveto
            -1 7 7 -1 7 hhcurveto
            -3 callgsubr
            -29 -16 callgsubr
            -6 -32 -66 -2 -35 hhcurveto
            -35 -61 -40 callsubr
            -28 -70 callsubr
            8 8 1 1 8 hvcurveto
            1 9 7 1 9 hhcurveto
            85 17 -88 -183 hvcurveto
            -494 vlineto
            -357 222 -197 340 320 203 213 295 vhcurveto
            2 540 rlineto
            -2 callgsubr
            9 8 -10 callgsubr
            8 hhcurveto
            -84 callgsubr
            -14 -35 -3 -5 -28 hvcurveto
            -6 -32 -21 -2 -35 hhcurveto
            -35 -28 -55 callgsubr
            9 9 18 callgsubr
            7 1 8 hhcurveto
            -49 callgsubr
            2 -489 rlineto
            -92 -11 -97 -19 -51 vhcurveto
            -148 -54 -102 -82 -235 hhcurveto
            -166 -148 99 170 -54 hvcurveto
            endchar
          </CharString>
          <CharString index="1">
            rmoveto
            -277 173 -205 279 88 98 16 41 70 vhcurveto
            77 45 41 43 29 vvcurveto
            21 -12 22 -21 -18 -12 -8 -28 -28 vhcurveto
            -57 -55 -89 -27 -77 hhcurveto
            -199 -124 142 233 -18 hvcurveto
            203 19 356 15 46 7 rrcurveto
            37 5 18 22 65 vvcurveto
            199 -136 166 -225 -260 -212 -193 -295 vhcurveto
            171 64 rmoveto
            221 4 121 131 144 hhcurveto
            125 109 -97 -153 -55 -12 -6 -27 -3 hvcurveto
            -145 -17 -164 -13 -155 -8 rrcurveto
            endchar
          </CharString>
          <CharString index="2">
            1509 rmoveto
            8 13 4 16 48 hvcurveto
            325 110 rlineto
            15 5 4 8 8 vvcurveto
            13 -6 22 -12 25 vhcurveto
            36 -18 -11 8 -12 hhcurveto
            -7 -9 -4 -4 -7 hvcurveto
            -339 -183 rlineto
            -19 -10 -2 -6 -10 vvcurveto
            -16 14 -22 15 vhcurveto
            return
          </CharString>
          <CharString index="3">
            -7 1 1 -5 vhcurveto
            -82 callgsubr
            return
          </CharString>
          <CharString index="4">
            80 38 47 37 89 hhcurveto
            138 79 -76 -181 hvcurveto
            -78 vlineto
            11 -51 -58 9 -44 hhcurveto
            -254 -192 -115 -197 hvcurveto
            174 37 rmoveto
            124 100 79 134 82 62 -15 -26 47 vhcurveto
            -203 vlineto
            -23 1 -20 2 -19 vhcurveto
            -77 -52 -92 -35 -93 hhcurveto
            -121 -70 95 120 hvcurveto
            endchar
          </CharString>
          <CharString index="5">
            1082 rmoveto
            7 4 2 19 26 hvcurveto
            161 114 161 -114 rlineto
            -19 26 4 -2 7 hhcurveto
            13 22 22 17 5 -3 6 -14 15 hvcurveto
            -165 167 rlineto
            31 -28 -11 6 -12 hhcurveto
            -12 -11 -6 -31 -28 hvcurveto
            -165 -167 rlineto
            -14 -15 -3 -6 -5 vvcurveto
            -17 22 -22 13 vhcurveto
            return
          </CharString>
          <CharString index="6">
            -11 -104 callsubr
            return
          </CharString>
          <CharString index="7">
            rmoveto
            -397 280 -303 404 413 288 303 381 405 -275 301 -409 -376 -325 -283 -407 vhcurveto
            171 72 rmoveto
            314 230 221 256 316 236 -282 -394 -337 -195 -211 -258 -346 -239 308 381 vhcurveto
            endchar
          </CharString>
          <CharString index="8">
            -98 callgsubr
            hintmask 01110111
            -94 callgsubr
            hintmask 10101111
            -103 callsubr
          </CharString>
          <CharString index="9">
            1512 rmoveto
            5 3 3 12 4 hvcurveto
            72 27 27 25 34 hhcurveto
            38 27 -11 -45 60 hvcurveto
            -46 62 37 -10 56 hhcurveto
            39 48 15 38 36 hvcurveto
            36 39 20 55 42 vvcurveto
            12 -24 20 -19 -5 -3 -3 -12 -4 vhcurveto
            -72 -27 -27 -24 -34 hhcurveto
            -35 -31 10 41 -54 hvcurveto
            47 -63 -43 13 -54 hhcurveto
            -39 -48 -15 -38 -36 hvcurveto
            -36 -39 -20 -55 -42 vvcurveto
            -12 24 -20 19 vhcurveto
            return
          </CharString>
          <CharString index="10">
            1106 rmoveto
            5 3 3 12 4 hvcurveto
            64 24 20 33 34 hhcurveto
            19 31 -14 -49 65 hvcurveto
            -42 56 28 -7 41 hhcurveto
            39 38 15 38 36 hvcurveto
            36 39 20 55 42 vvcurveto
            12 -24 20 -19 -5 -3 -3 -12 -4 vhcurveto
            -64 -24 -20 -32 -34 hhcurveto
            -19 -31 13 49 -65 hvcurveto
            42 -56 -28 7 -41 hhcurveto
            -39 -38 -15 -38 -36 hvcurveto
            -36 -39 -20 -55 -42 vvcurveto
            -12 24 -20 19 vhcurveto
            return
          </CharString>
          <CharString index="11">
            -122 -58 -103 -49 -87 hhcurveto
            -121 -98 67 200 hvcurveto
            256 vlineto
            141 4 59 -93 callsubr
            -11 -70 callgsubr
            -47 -12 -72 -14 rrcurveto
            -45 -9 -4 -14 -26 callsubr
            15 -9 33 -6 vhcurveto
            31 -5 6 -9 15 -26 -20 callsubr
            endchar
          </CharString>
          <CharString index="12">
            -75 47 43 -15 35 hhcurveto
            192 hlineto
            37 18 13 16 20 -10 9 -50 5 hvcurveto
            -53 6 -50 16 -57 83 -325 472 rcurveline
            150 74 95 146 148 vvcurveto
            208 -177 140 -302 -23 -29 -4 -4 -25 vhcurveto
            -6 -32 -51 -2 11 callgsubr
            2 6 -33 hvcurveto
            4 -25 -24 4 -92 callgsubr
            return
          </CharString>
          <CharString index="13">
            rlineto
            151 101 29 23 64 hhcurveto
            29 18 13 23 22 -33 13 -37 -21 -19 -3 -4 -19 hvcurveto
            -4 -22 -27 -5 -22 hhcurveto
            -26 -25 4 4 -24 hvcurveto
            4 -23 -22 4 -22 hhcurveto
            -48 -17 -14 -18 -21 18 -13 40 52 15 -21 -21 -20 -11 -31 -64 -101 hvcurveto
            -212 -336 -276 418 rlineto
            -27 41 -9 20 15 vvcurveto
            18 8 18 41 47 15 14 18 23 -17 11 -48 -26 -13 14 callsubr
            -28 -26 4 4 -25 hvcurveto
            4 -27 -27 4 -26 hhcurveto
            -41 -22 -16 -19 -23 17 -12 26 -1 hvcurveto
            63 -1 30 -27 85 -125 return
          </CharString>
          <CharString index="14">
            10 -8 callsubr
            8 -5 callsubr
            -10 10 -13 -13 return
          </CharString>
          <CharString index="15">
            vlineto
            141 4 65 -93 callsubr
            return
          </CharString>
          <CharString index="16">
            103 28 hvcurveto
            11 41 9 25 5 17 rrcurveto
            6 17 3 14 7 vvcurveto
            12 -3 17 -18 -16 -8 -9 -27 -15 vhcurveto
            return
          </CharString>
          <CharString index="17">
            -18 47 14 -5 8 hhcurveto
            15 15 19 18 10 -4 5 -25 16 hvcurveto
            -282 179 rlineto
            4 -7 -9 4 -7 hhcurveto
            -14 -15 -16 -25 -15 hvcurveto
            -10 -17 -9 -26 -19 vvcurveto
            -8 4 -7 15 -6 vhcurveto
            return
          </CharString>
          <CharString index="18">
            14 -26 4 -44 -67 vvcurveto
            -301 vlineto
            -242 -16 -29 -62 -11 -7 10 callsubr
            -8 -60 callgsubr
          </CharString>
          <CharString index="19">
            rmoveto
            10 6 3 34 38 hvcurveto
            190 169 rlineto
            15 13 2 6 5 vvcurveto
            17 -22 22 -13 -7 -4 -2 -17 -27 vhcurveto
            -188 -119 -188 119 rlineto
            17 -27 -4 2 -7 hhcurveto
            -13 -22 -22 -17 -5 2 -6 15 -13 hvcurveto
            190 -169 rlineto
            -33 38 6 -4 10 hhcurveto
            return
          </CharString>
          <CharString index="20">
            -87 callgsubr
            rrcurveto
            61 -25 -15 10 -14 hhcurveto
            -20 -15 -36 -26 -10 hvcurveto
            -42 callgsubr
            -59 callgsubr
            449 523 -68 callgsubr
          </CharString>
          <CharString index="21">
            20 callgsubr
            -40 -8 -10 -11 -14 vvcurveto
            -18 17 -59 callsubr
            return
          </CharString>
          <CharString index="22">
            -72 -14 rrcurveto
            -45 -9 -4 -12 -26 callsubr
            return
          </CharString>
          <CharString index="23">
            vlineto
            -83 callsubr
            return
          </CharString>
          <CharString index="24">
            -28 callsubr
            -12 -104 callsubr
            -23 -47 callgsubr
            return
          </CharString>
          <CharString index="25">
            846 vlineto
            207 20 64 78 -41 callsubr
            -41 -2 -43 hhcurveto
            -54 -50 3 6 -29 hvcurveto
            3 -16 -24 4 -92 callgsubr
            return
          </CharString>
          <CharString index="26">
            -48 callsubr
            31 40 callsubr
            2 -45 -67 vvcurveto
            -299 vlineto
            -28 callsubr
            25 callgsubr
            vhcurveto
            1 -7 -67 callsubr
            return
          </CharString>
          <CharString index="27">
            35 callgsubr
            34 97 hvcurveto
            458 vlineto
            111 5 44 8 33 vhcurveto
            6 21 2 9 6 vvcurveto
            15 -6 11 -13 -11 -10 -6 -14 -14 vhcurveto
            -14 -13 -50 -43 -35 -17 -42 -21 -17 -8 -45 -16 rrcurveto
            -24 -9 -5 -11 -11 vvcurveto
            -12 11 -11 31 -2 vhcurveto
            return
          </CharString>
          <CharString index="28">
            3 29 32 4 35 hhcurveto
            34 24 -4 -3 29 hvcurveto
            return
          </CharString>
          <CharString index="29">
            -43 33 5 -8 19 hhcurveto
            11 8 12 12 22 -6 20 -33 48 hvcurveto
            -146 211 146 212 rlineto
            33 48 6 20 22 vvcurveto
            12 -8 12 -11 -19 -5 -8 -43 -33 vhcurveto
            -89 -112 -63 -55 -93 -73 rrcurveto
            -23 -18 -7 -10 -7 vvcurveto
            -7 7 -9 23 -18 vhcurveto
            return
          </CharString>
          <CharString index="30">
            18 callsubr
            vstem
            328 -14 rmoveto
            -1 callgsubr
            44 13 21 11 vhcurveto
            673 1313 rlineto
            10 18 2 5 9 17 callgsubr
            -42 -16 -18 -9 vhcurveto
            -673 -1313 rlineto
            -7 -13 -7 -15 -4 vvcurveto
            42 723 rmoveto
            -68 callsubr
            -194 127 -125 153 hvcurveto
            5 62 rmoveto
            -80 -83 109 165 -40 callgsubr
            hvcurveto
            return
          </CharString>
          <CharString index="31">
            4 5 -52 hvcurveto
            4 -39 -39 3 -48 -56 callsubr
            return
          </CharString>
          <CharString index="32">
            35 callgsubr
            27 96 hvcurveto
            113 151 vlineto
            28 6 5 18 9 hvcurveto
            10 20 2 8 11 16 rrcurveto
            5 7 4 6 9 vvcurveto
            7 -3 7 -9 -8 -10 -4 -4 -9 vhcurveto
            -6 -16 -31 -6 -56 hhcurveto
            -84 203 hlineto
            119 2 83 3 34 vhcurveto
            2 31 3 24 11 vvcurveto
            19 -8 9 -11 -12 -8 -6 -33 -30 vhcurveto
            -468 -525 rlineto
            -9 -10 -10 -16 -10 vvcurveto
            128 67 rmoveto
            270 296 rlineto
            -296 vlineto
            endchar
          </CharString>
          <CharString index="33">
            -54 callgsubr
            -11 -18 return
          </CharString>
          <CharString index="34">
            46 43 24 39 19 vvcurveto
            59 -18 34 -15 -7 -6 -4 -16 -10 vhcurveto
            -178 -105 -162 -101 -203 hhcurveto
            -363 -261 276 385 351 229 211 338 115 111 -26 -48 85 hvcurveto
            60 -34 62 -69 15 -54 rrcurveto
            -32 9 13 -10 16 hhcurveto
            16 11 14 25 18 -4 75 -6 53 hvcurveto
            -8 72 -16 13 -40 16 rrcurveto
            42 -105 -147 25 -165 hhcurveto
            -466 -311 -289 -430 hvcurveto
            endchar
          </CharString>
          <CharString index="35">
            -4 25 25 -3 27 hhcurveto
            return
          </CharString>
          <CharString index="36">
            43 18 121 91 174 vvcurveto
            82 -39 88 -56 7 vhcurveto
            -82 11 -30 -66 6 -30 rrcurveto
            return
          </CharString>
          <CharString index="37">
            4 -64 callgsubr
            return
          </CharString>
          <CharString index="38">
            rmoveto
            107 100 70 134 132 -86 68 -120 -112 -95 -83 -118 -120 76 -83 130 hvcurveto
            4 68 rmoveto
            -61 -53 63 73 74 46 58 65 61 51 -58 -74 -86 -52 -50 -57 hvcurveto
            return
          </CharString>
          <CharString index="39">
            147 134 136 199 177 -100 144 -172 -159 -130 -137 -200 return
          </CharString>
          <CharString index="40">
            -62 callsubr
            hvcurveto
            return
          </CharString>
          <CharString index="41">
            -17 -14 -19 -7 -57 hhcurveto
            -256 hlineto
            168 179 rlineto
            153 163 72 92 93 vvcurveto
            136 -109 87 -191 -61 -67 -12 -36 -63 vhcurveto
            -60 -34 -42 -57 -30 vvcurveto
            -22 39 -36 17 7 3 2 32 16 vhcurveto
            71 35 53 45 91 hhcurveto
            107 65 -72 -116 -121 -128 -123 -106 -126 hvcurveto
            -173 -193 rlineto
            -26 -31 -7 -12 -9 vvcurveto
            return
          </CharString>
          <CharString index="42">
            -26 callsubr
            17 -10 -61 callgsubr
            25 40 callsubr
            8 return
          </CharString>
          <CharString index="43">
            -12 -7 -39 callgsubr
            return
          </CharString>
          <CharString index="44">
            639 vlineto
            141 4 64 11 -8 callsubr
            7 -5 callsubr
            -9 10 -14 -13 -15 -4 -21 -37 vhcurveto
            -43 -24 return
          </CharString>
          <CharString index="45">
            -7 -74 callsubr
            return
          </CharString>
          <CharString index="46">
            14 12 8 2 49 hhcurveto
            192 hlineto
            -136 -210 rlineto
            -17 -27 -3 -8 -8 vvcurveto
            -9 6 -6 10 9 9 2 2 10 vhcurveto
            2 11 12 2 20 hhcurveto
            137 116 -59 -160 -131 -101 -84 -130 -138 -104 92 126 -9 hvcurveto
            24 -2 -5 8 -7 hhcurveto
            -16 -53 -38 -28 -126 140 -132 194 hvcurveto
            return
          </CharString>
          <CharString index="47">
            -97 -2 -34 -52 -7 -7 1 1 -7 vhcurveto
            1 -7 -6 1 -8 hhcurveto
            -18 -15 -12 -18 return
          </CharString>
          <CharString index="48">
            -10 34 -5 vhcurveto
            28 -4 31 -11 12 -23 rrcurveto
            return
          </CharString>
          <CharString index="49">
            8 callsubr
            50 28 24 4 4 32 vhcurveto
            return
          </CharString>
          <CharString index="50">
            -15 -32 callsubr
            return
          </CharString>
          <CharString index="51">
            hhcurveto
            -46 callgsubr
            14 -11 22 12 7 2 1 7 hvcurveto
            return
          </CharString>
          <CharString index="52">
            -62 -15 29 242 hvcurveto
            return
          </CharString>
          <CharString index="53">
            14 23 18 return
          </CharString>
          <CharString index="54">
            -17 callsubr
            -51 -3 11 callgsubr
            3 5 -33 hvcurveto
            -35 callsubr
            return
          </CharString>
          <CharString index="55">
            4 27 37 3 30 hhcurveto
            27 31 -4 -4 28 hvcurveto
            return
          </CharString>
          <CharString index="56">
            3 30 30 4 35 hhcurveto
            35 24 -4 -3 30 hvcurveto
            return
          </CharString>
          <CharString index="57">
            5 31 33 2 25 hhcurveto
            47 33 -4 -4 24 hvcurveto
            return
          </CharString>
          <CharString index="58">
            -56 callgsubr
            hintmask 00111100
            -79 callsubr
            hintmask 10011100
            -4 32 4 -4 28 hhcurveto
            50 16 -54 callsubr
            -13 11 -23 -7 -7 -1 -1 -6 hvcurveto
            -1 -7 -7 -2 -16 hhcurveto
            -44 -14 39 232 hvcurveto
            return
          </CharString>
          <CharString index="59">
            13 -10 10 -13 -13 -16 -70 callgsubr
            -69 -93 callgsubr
            return
          </CharString>
          <CharString index="60">
            2 -12 hhcurveto
            return
          </CharString>
          <CharString index="61">
            4 35 hhcurveto
            35 26 -4 -3 30 hvcurveto
            return
          </CharString>
          <CharString index="62">
            16 17 35 32 10 -5 8 -18 hvcurveto
            return
          </CharString>
          <CharString index="63">
            -14 10 -14 31 -12 vhcurveto
            109 -40 17 -26 -40 vvcurveto
            -49 -42 -24 -38 -44 -34 23 34 -21 vhcurveto
            27 -17 -8 7 -10 hhcurveto
            return
          </CharString>
          <CharString index="64">
            rmoveto
            -19 19 -15 41 25 38 4 4 26 vhcurveto
            return
          </CharString>
          <CharString index="65">
            hstemhm
            68 340 -157 157 return
          </CharString>
          <CharString index="66">
            vhcurveto
            11 6 -1 5 hhcurveto
            -1 7 8 -2 11 hhcurveto
            -3 callgsubr
            -25 -4 -4 -25 hvcurveto
            -6 -32 return
          </CharString>
          <CharString index="67">
            2 6 -33 hvcurveto
            4 -25 return
          </CharString>
          <CharString index="68">
            287 -57 callsubr
            457 85 852 -20 return
          </CharString>
          <CharString index="69">
            65 1 rlinecurve
            26 1 16 12 23 vvcurveto
            22 -26 13 -37 -23 -23 -3 -5 -23 vhcurveto
            -6 -30 -22 -2 -29 hhcurveto
            -32 -28 4 4 -24 hvcurveto
            7 -37 -25 1 -26 hhcurveto
            -48 -17 -14 -18 -23 15 -11 28 83 41 -30 -52 -18 return
          </CharString>
          <CharString index="70">
            -1 -7 hvcurveto
            return
          </CharString>
          <CharString index="71">
            hhcurveto
            -55 callsubr
            return
          </CharString>
          <CharString index="72">
            5 -25 -24 3 -27 hhcurveto
            return
          </CharString>
          <CharString index="73">
            -113 -63 -110 -52 -234 hhcurveto
            -50 -59 6 14 -53 hvcurveto
            -7 96 -3 122 145 vvcurveto
            return
          </CharString>
          <CharString index="74">
            3 30 32 4 35 hhcurveto
            37 35 -2 -5 35 hvcurveto
            return
          </CharString>
          <CharString index="75">
            61 -25 -21 return
          </CharString>
          <CharString index="76">
            31 19 63 21 144 hhcurveto
            360 248 -240 -419 -279 -126 -154 -166 -75 hvcurveto
            -30 -69 -99 -27 -83 hhcurveto
            -105 -97 19 50 -97 hvcurveto
            endchar
          </CharString>
          <CharString index="77">
            -5 35 34 -3 35 hhcurveto
            50 23 11 26 18 -17 15 -27 -14 -13 -2 -2 -14 hvcurveto
            return
          </CharString>
          <CharString index="78">
            41 -15 116 -105 -21 962 -20 26 -20 return
          </CharString>
          <CharString index="79">
            -242 -15 -29 -62 return
          </CharString>
          <CharString index="80">
            -544 -57 callsubr
            944 -20 return
          </CharString>
          <CharString index="81">
            -12 vvcurveto
            -18 return
          </CharString>
          <CharString index="82">
            -1 -11 hhcurveto
            return
          </CharString>
          <CharString index="83">
            vlineto
            -22 callsubr
            return
          </CharString>
          <CharString index="84">
            304 rmoveto
            -9 6 -7 25 vhcurveto
            367 -105 hlineto
            8 callgsubr
            return
          </CharString>
          <CharString index="85">
            -223 -29 -48 -69 -101 callsubr
            return
          </CharString>
          <CharString index="86">
            459 -25 83 1224 83 return
          </CharString>
          <CharString index="87">
            rrcurveto
            14 -26 3 -45 -67 vvcurveto
            return
          </CharString>
          <CharString index="88">
            1 1 -5 vhcurveto
            return
          </CharString>
          <CharString index="89">
            -48 52 -14 31 -28 92 rrcurveto
            40 -12 -19 15 -21 hhcurveto
            -17 -10 -15 -21 -19 9 -30 11 -40 hvcurveto
            11 -41 14 -50 9 -61 rrcurveto
            return
          </CharString>
          <CharString index="90">
            -3 callgsubr
            -25 -16 callgsubr
            -5 -32 return
          </CharString>
          <CharString index="91">
            hintmask 10110000
            34 callsubr
            hintmask 01110000
            -79 callsubr
            return
          </CharString>
          <CharString index="92">
            110 2 109 return
          </CharString>
          <CharString index="93">
            80 670 rmoveto
            -412 307 -283 392 422 301 279 435 382 -292 294 -424 return
          </CharString>
          <CharString index="94">
            82 -34 49 -37 -47 -69 -57 -29 vhcurveto
            endchar
          </CharString>
          <CharString index="95">
            hvcurveto
            199 vlineto
            -49 69 91 -27 91 hhcurveto
            269 199 222 271 272 -150 203 -259 return
          </CharString>
          <CharString index="96">
            hstemhm
            101 174 425 159 return
          </CharString>
          <CharString index="97">
            380 -25 89 1230 62 return
          </CharString>
          <CharString index="98">
            -21 1294 62 return
          </CharString>
          <CharString index="99">
            40 vhcurveto
            5 20 return
          </CharString>
          <CharString index="100">
            hhcurveto
            -22 -15 return
          </CharString>
          <CharString index="101">
            -5 6 -3 13 16 21 3 7 26 vhcurveto
            30 8 9 5 5 20 rrcurveto
            8 30 1 32 113 vvcurveto
            return
          </CharString>
          <CharString index="102">
            16 14 vvcurveto
            13 return
          </CharString>
          <CharString index="103">
            62 -42 callsubr
            return
          </CharString>
          <CharString index="104">
            hstem
            100 171 1038 176 vstem
            return
          </CharString>
          <CharString index="105">
            8 -7 3 -9 -39 return
          </CharString>
          <CharString index="106">
            4 4 31 return
          </CharString>
          <CharString index="107">
            15 callgsubr
            hintmask 10011110
            return
          </CharString>
          <CharString index="108">
            176 -57 callsubr
            591 78 625 62 return
          </CharString>
          <CharString index="109">
            100 675 rmoveto
            -397 280 -303 404 return
          </CharString>
          <CharString index="110">
            hvcurveto
            -35 callsubr
            -46 callgsubr
            return
          </CharString>
          <CharString index="111">
            5 7 1 11 hhcurveto
            77 21 return
          </CharString>
          <CharString index="112">
            -3 -5 -35 vhcurveto
            -5 -31 return
          </CharString>
          <CharString index="113">
            207 145 207 return
          </CharString>
          <CharString index="114">
            hstem
            148 135 513 136 vstem
            172 117 rmoveto
            9 -56 -1 -19 48 -16 return
          </CharString>
          <CharString index="115">
            -23 16 -14 return
          </CharString>
          <CharString index="116">
            rmoveto
            8 callsubr
            50 28 27 4 4 32 vhcurveto
            return
          </CharString>
          <CharString index="117">
            -19 callsubr
            1 return
          </CharString>
          <CharString index="118">
            -33 callsubr
            -5 35 34 -3 35 hhcurveto
            50 return
          </CharString>
          <CharString index="119">
            vlineto
            21 callgsubr
            return
          </CharString>
          <CharString index="120">
            363 383 259 -262 -351 -407 -291 -225 -337 return
          </CharString>
          <CharString index="121">
            5 callsubr
            -33 -3 -25 hhcurveto
            return
          </CharString>
          <CharString index="122">
            -15 17 -17 33 29 19 2 3 22 vhcurveto
            return
          </CharString>
          <CharString index="123">
            50 10 callgsubr
            return
          </CharString>
          <CharString index="124">
            -20 hstemhm
            214 155 return
          </CharString>
          <CharString index="125">
            122 313 126 return
          </CharString>
          <CharString index="126">
            -18 -7 callgsubr
            return
          </CharString>
          <CharString index="127">
            -27 hhcurveto
            -49 -16 return
          </CharString>
          <CharString index="128">
            rlineto
            14 8 2 11 11 vvcurveto
            34 -11 23 -11 -4 -8 -2 -15 -28 vhcurveto
            return
          </CharString>
          <CharString index="129">
            -251 -21 1702 -20 return
          </CharString>
          <CharString index="130">
            227 hstem
            130 230 return
          </CharString>
          <CharString index="131">
            22 rmoveto
            8 callsubr
            return
          </CharString>
          <CharString index="132">
            hstemhm
            248 157 return
          </CharString>
          <CharString index="133">
            300 85 -300 316 -85 -316 -300 -85 300 hlineto
            return
          </CharString>
          <CharString index="134">
            -2 -18 -2 -12 -8 vvcurveto
            -11 4 -3 14 29 35 16 25 3 vhcurveto
            return
          </CharString>
          <CharString index="135">
            hstemhm
            71 280 -97 97 912 92 return
          </CharString>
          <CharString index="136">
            hstem
            214 155 553 166 vstem
            214 -148 rmoveto
            return
          </CharString>
          <CharString index="137">
            rrcurveto
            -109 90 -55 48 103 vvcurveto
            112 106 69 149 return
          </CharString>
          <CharString index="138">
            -5 hvcurveto
            45 -4 17 -8 -29 vvcurveto
            return
          </CharString>
          <CharString index="139">
            -4 32 hhcurveto
            36 27 13 22 23 -17 12 -26 1 hvcurveto
            return
          </CharString>
          <CharString index="140">
            125 -84 68 -83 -87 vvcurveto
            -109 -83 -95 -200 return
          </CharString>
          <CharString index="141">
            56 -56 callgsubr
            return
          </CharString>
          <CharString index="142">
            530 85 hstem
            104 530 rmoveto
            return
          </CharString>
          <CharString index="143">
            -16 hhcurveto
            -72 -7 17 253 hvcurveto
            return
          </CharString>
          <CharString index="144">
            -13 -91 -65 -2 -48 hhcurveto
            -35 -28 3 5 -33 hvcurveto
            return
          </CharString>
          <CharString index="145">
            20 rmoveto
            -22 26 -13 37 31 20 4 3 24 vhcurveto
            return
          </CharString>
          <CharString index="146">
            rlineto
            5 7 14 18 44 callgsubr
            return
          </CharString>
          <CharString index="147">
            -18 callgsubr
            14 -26 return
          </CharString>
          <CharString index="148">
            -15 callsubr
            hstemhm
            return
          </CharString>
          <CharString index="149">
            -33 21 17 -11 15 hhcurveto
            48 41 28 35 58 return
          </CharString>
          <CharString index="150">
            -15 70 -34 -21 834 86 return
          </CharString>
          <CharString index="151">
            hstem
            211 179 return
          </CharString>
          <CharString index="152">
            -414 -272 64 1574 64 hstem
            return
          </CharString>
        <CharString name=".notdef">
          -676 endchar
        </CharString>
        <CharString name="A">
          -39 callsubr
          hstemhm
          hintmask 10110000
          -20 19 -43 callsubr
          hintmask 01110000
          -52 callsubr
          hintmask 10110000
          -4 26 26 -3 28 hhcurveto
          48 -28 callgsubr
          -21 -12 -6 -1 -2 -12 hvcurveto
          -1 -8 -11 -25 callsubr
          -57 -17 25 65 18 4 33 24 65 hvcurveto
          21 58 28 69 32 78 rrcurveto
          555 hlineto
          83 -208 rlineto
          30 -76 10 -40 -21 vvcurveto
          -45 -11 -22 -51 -8 -9 1 2 -11 vhcurveto
          2 -10 -10 -47 callsubr
          -21 -15 -12 19 callsubr
          48 34 35 3 5 35 hvcurveto
          hintmask 01110000
          -50 callsubr
          hintmask 10110000
          -87 callsubr
        </CharString>
        <CharString name="AE">
          782 -15 61 -61 90 -74 -21 41 -21 457 85 164 81 474 95 -66 66 hstemhm
          344 476 183 157 hintmask 1000111011000000
          20 19 rmoveto
          -19 19 -15 41 25 33 4 4 26 vhcurveto
          hintmask 0001111011000000
          4 27 63 3 30 hhcurveto
          27 27 -4 -4 28 hvcurveto
          hintmask 1000111011000000
          -4 26 26 -3 28 hhcurveto
          48 -28 callgsubr
          -21 -12 -6 -1 -2 -12 hvcurveto
          -1 -8 -11 -25 callsubr
          -47 -24 16 32 32 26 58 44 68 hvcurveto
          133 205 rlineto
          456 -143 hlineto
          -231 -27 -37 -71 -101 callsubr
          -22 -14 -11 -18 8 callsubr
          39 26 40 4 3 20 hvcurveto
          hintmask 0001111011000000
          -38 callgsubr
          hintmask 0010111011000000
          -9 160 108 -3 108 hhcurveto
          65 6 14 -91 callsubr
          -15 -27 -24 -30 -18 -12 rrcurveto
          hintmask 0100111011000000
          -107 callgsubr
          -89 -145 -5 -4 -83 vhcurveto
          -3 -90 -79 -4 -42 -125 -90 16 -99 hhcurveto
          -67 -26 -15 -22 hvcurveto
          hintmask 1000110111000000
          -18 14 -11 22 12 7 2 1 7 vhcurveto
          5 7 1 11 hhcurveto
          36 27 -10 -14 19 hvcurveto
          -659 -1010 rlineto
          -163 -106 -81 -46 -73 hhcurveto
          -22 -13 -9 -23 hvcurveto
          983 1196 rmoveto
          -1 7 rlineto
          1 -2 0 -3 -2 vvcurveto
          -401 -673 rmoveto
          401 617 rlineto
          -623 vlineto
          -2 6 rlineto
          endchar
        </CharString>
        <CharString name="Aacute">
          -39 callsubr
          390 -20 hstemhm
          hintmask 10111000
          526 -105 callsubr
          -546 -1490 -43 callsubr
          hintmask 01111000
          -52 callsubr
          hintmask 10111000
          -4 26 26 -3 28 hhcurveto
          48 -28 callgsubr
          -21 -12 -6 -1 -2 -12 hvcurveto
          -1 -8 -11 -25 callsubr
          -57 -17 25 65 18 4 33 24 65 hvcurveto
          21 58 28 69 32 78 rrcurveto
          555 hlineto
          83 -208 rlineto
          30 -76 10 -40 -21 vvcurveto
          -45 -11 -22 -51 -8 -9 1 2 -11 vhcurveto
          2 -10 -10 -47 callsubr
          -21 -15 -12 19 callsubr
          48 34 35 3 5 35 hvcurveto
          hintmask 01111000
          -50 callsubr
          hintmask 10111000
          -87 callsubr
        </CharString>
        <CharString name="Acircumflex">
          -39 callsubr
          396 -20 hstemhm
          hintmask 10111000
          492 -97 callgsubr
          -43 callgsubr
          -512 -1482 -43 callsubr
          hintmask 01111000
          -52 callsubr
          hintmask 10111000
          -4 26 26 -3 28 hhcurveto
          48 -28 callgsubr
          -21 -12 -6 -1 -2 -12 hvcurveto
          -1 -8 -11 -25 callsubr
          -57 -17 25 65 18 4 33 24 65 hvcurveto
          21 58 28 69 32 78 rrcurveto
          555 hlineto
          83 -208 rlineto
          30 -76 10 -40 -21 vvcurveto
          -45 -11 -22 -51 -8 -9 1 2 -11 vhcurveto
          2 -10 -10 -47 callsubr
          -21 -15 -12 19 callsubr
          48 34 35 3 5 35 hvcurveto
          hintmask 01111000
          -50 callsubr
          hintmask 10111000
          -87 callsubr
        </CharString>
        <CharString name="Adieresis">
          -39 callsubr
          168 200 hstemhm
          597 243 hintmask 10111100
          941 1542 rmoveto
          -105 callgsubr
          -450 hmoveto
          -105 callgsubr
          -511 -1523 -91 callgsubr
        </CharString>
        <CharString name="Agrave">
          -39 callsubr
          387 -20 hstemhm
          hintmask 10111000
          516 1636 rmoveto
          325 -110 rlineto
          -89 callgsubr
          -536 -1617 -43 callsubr
          hintmask 01111000
          -52 callsubr
          hintmask 10111000
          -4 26 26 -3 28 hhcurveto
          48 -28 callgsubr
          -21 -12 -6 -1 -2 -12 hvcurveto
          -1 -8 -11 -25 callsubr
          -57 -17 25 65 18 4 33 24 65 hvcurveto
          21 58 28 69 32 78 rrcurveto
          555 hlineto
          83 -208 rlineto
          30 -76 10 -40 -21 vvcurveto
          -45 -11 -22 -51 -8 -9 1 2 -11 vhcurveto
          2 -10 -10 -47 callsubr
          -21 -15 -12 19 callsubr
          48 34 35 3 5 35 hvcurveto
          hintmask 01111000
          -50 callsubr
          hintmask 10111000
          -87 callsubr
        </CharString>
        <CharString name="Aring">
          287 -57 callsubr
          457 85 1147 68 hstemhm
          608 223 hintmask 10111000
          -20 19 -43 callsubr
          hintmask 01111000
          -52 callsubr
          hintmask 10111000
          -4 26 26 -3 28 hhcurveto
          48 -28 callgsubr
          -21 -12 -6 -1 -2 -12 hvcurveto
          -1 -8 -11 -25 callsubr
          -57 -17 25 65 18 4 33 24 65 hvcurveto
          21 58 28 69 32 78 rrcurveto
          555 hlineto
          83 -208 rlineto
          30 -76 10 -40 -21 vvcurveto
          -45 -11 -22 -51 -8 -9 1 2 -11 vhcurveto
          2 -10 -10 -47 callsubr
          -21 -15 -12 19 callsubr
          48 34 35 3 5 35 hvcurveto
          hintmask 01111000
          -50 callsubr
          hintmask 10111000
          -87 callgsubr
          -15 33 rcurveline
          91 14 78 69 118 vvcurveto
          132 -86 68 -120 -112 -95 -83 -118 -109 62 -78 107 -14 vhcurveto
          -9 -23 -42 callgsubr
          rlinecurve
          -59 callgsubr
          742 1402 rmoveto
          -61 -53 63 73 74 46 58 65 61 51 -58 -74 -86 -52 -50 -57 hvcurveto
          -293 -879 -68 callgsubr
        </CharString>
        <CharString name="Atilde">
          -39 callsubr
          138 41 callsubr
          hintmask 10111100
          460 -98 callsubr
          -480 -1493 -91 callgsubr
        </CharString>
        <CharString name="B">
          103 -25 85 -54 -21 36 -21 714 78 503 45 -45 70 -9 -20 25 callsubr
          420 150 -18 172 hintmask 0101100110000000
          65 24 callsubr
          49 27 24 3 4 25 vhcurveto
          hintmask 0011100110000000
          37 callgsubr
          -3 -6 54 hvcurveto
          hintmask 1001100101000000
          -7 62 71 -9 71 hhcurveto
          272 184 172 254 183 -137 156 -162 44 hvcurveto
          hintmask 1001010110000000
          60 49 85 93 148 vvcurveto
          113 -77 98 -116 48 vhcurveto
          22 -52 -82 10 -67 hhcurveto
          hintmask 1001100110000000
          -114 -86 -25 -79 hhcurveto
          -35 -28 2 6 -33 hvcurveto
          hintmask 1001001110000000
          4 -25 -24 -70 callsubr
          9 8 1 2 11 hvcurveto
          hintmask 1001100110000000
          2 9 9 0 5 hhcurveto
          74 22 -51 -221 hvcurveto
          -706 vlineto
          -223 -28 -48 -70 -85 callgsubr
          340 781 rmoveto
          301 vlineto
          42 2 68 3 47 vhcurveto
          12 31 39 9 45 hhcurveto
          68 72 -20 -43 57 hvcurveto
          68 -52 35 -77 -97 vvcurveto
          -100 -62 -91 -47 -6 vhcurveto
          -2 -19 -30 -2 -37 hhcurveto
          -62 -82 3 8 -81 hvcurveto
          7 -687 rmoveto
          -5 92 -2 111 142 vvcurveto
          248 vlineto
          5 91 54 0 83 hhcurveto
          hintmask 1001100101000000
          204 120 -183 -183 -197 -132 -91 -184 -84 -84 18 38 -61 hvcurveto
          endchar
        </CharString>
        <CharString name="C">
          362 -25 87 1223 80 hstem
          100 188 vstem
          100 646 rmoveto
          -370 304 -301 477 188 168 67 125 131 vhcurveto
          -73 callsubr
        </CharString>
        <CharString name="Ccedilla">
          362 -461 61 375 87 1223 80 hstemhm
          100 188 338 358 -92 92 hintmask 11110100
          100 646 rmoveto
          -342 259 -283 416 -41 vhcurveto
          -33 -75 -17 -59 -27 vvcurveto
          -44 callsubr
          hintmask 11111000
          -29 callgsubr
          9 32 10 27 11 25 rrcurveto
          -1 11 10 0 11 hhcurveto
          188 168 67 125 131 hvcurveto
          -73 callsubr
        </CharString>
        <CharString name="D">
          411 -20 66 -40 -21 36 -21 1285 55 -55 80 -9 -20 hstemhm
          251 157 851 178 hintmask 01010011
          41 callgsubr
          49 27 24 3 4 25 vhcurveto
          hintmask 00110011
          37 callgsubr
          -4 -5 54 hvcurveto
          hintmask 10001011
          -13 callgsubr
          hintmask 10010011
          37 callsubr
          hintmask 10000111
          -6 callgsubr
          -79 callgsubr
          -22 -14 -11 -18 hvcurveto
          349 108 rmoveto
          -6 90 -3 88 153 vvcurveto
          639 vlineto
          91 3 19 14 23 vhcurveto
          hintmask 10010011
          -31 callsubr
        </CharString>
        <CharString name="E">
          -52 callgsubr
          25 callsubr
          hintmask 01001101
          65 24 callsubr
          39 26 40 4 3 20 vhcurveto
          hintmask 00011101
          -38 callgsubr
          hintmask 00101101
          -9 160 108 -3 108 hhcurveto
          65 6 14 -91 callsubr
          -15 -27 -24 -30 -18 -12 rrcurveto
          hintmask 01001101
          -107 callgsubr
          -89 -145 -5 -4 -83 vhcurveto
          -3 -90 -99 -4 -42 hhcurveto
          -75 -56 -76 callsubr
          hintmask 10001011
          4 callsubr
          -48 -223 hvcurveto
          -709 vlineto
          -231 -27 -37 -71 -95 callgsubr
        </CharString>
        <CharString name="Eacute">
          -52 callgsubr
          408 -20 25 callsubr
          hintmask 0100110110000000
          428 -105 callsubr
          -363 -1487 rmoveto
          8 callsubr
          39 26 40 4 3 20 vhcurveto
          hintmask 0001110110000000
          -38 callgsubr
          hintmask 0010110110000000
          -9 160 108 -3 108 hhcurveto
          65 6 14 -91 callsubr
          -15 -27 -24 -30 -18 -12 rrcurveto
          hintmask 0100110110000000
          -107 callgsubr
          -89 -145 -5 -4 -83 vhcurveto
          -3 -90 -99 -4 -42 hhcurveto
          -75 -56 -76 callsubr
          hintmask 1000101110000000
          4 callsubr
          -48 -223 hvcurveto
          -709 vlineto
          -231 -27 -37 -71 -95 callgsubr
        </CharString>
        <CharString name="Ecircumflex">
          -52 callgsubr
          414 -20 25 callsubr
          hintmask 0100110110000000
          394 -97 callgsubr
          -43 callgsubr
          -329 -1479 rmoveto
          8 callsubr
          39 26 40 4 3 20 vhcurveto
          hintmask 0001110110000000
          -38 callgsubr
          hintmask 0010110110000000
          -9 160 108 -3 108 hhcurveto
          65 6 14 -91 callsubr
          -15 -27 -24 -30 -18 -12 rrcurveto
          hintmask 0100110110000000
          -107 callgsubr
          -89 -145 -5 -4 -83 vhcurveto
          -3 -90 -99 -4 -42 hhcurveto
          -75 -56 -76 callsubr
          hintmask 1000101110000000
          4 callsubr
          -48 -223 hvcurveto
          -709 vlineto
          -231 -27 -37 -71 -95 callgsubr
        </CharString>
        <CharString name="Edieresis">
          -52 callgsubr
          186 200 25 callsubr
          -113 40 callgsubr
          hintmask 0100110101100000
          843 1542 rmoveto
          -105 callgsubr
          -450 hmoveto
          -105 callgsubr
          -328 -1520 rmoveto
          8 callsubr
          39 26 40 4 3 20 vhcurveto
          hintmask 0001110101100000
          -38 callgsubr
          hintmask 0010110101100000
          -9 160 108 -3 108 hhcurveto
          65 6 14 -91 callsubr
          -15 -27 -24 -30 -18 -12 rrcurveto
          hintmask 0100110110100000
          -107 callgsubr
          -89 -145 -5 -4 -83 vhcurveto
          -3 -90 -99 -4 -42 hhcurveto
          -75 -56 -76 callsubr
          hintmask 1000101110100000
          4 callsubr
          -48 -223 hvcurveto
          -709 vlineto
          -231 -27 -37 -71 -95 callgsubr
        </CharString>
        <CharString name="Egrave">
          -52 callgsubr
          405 -20 25 callsubr
          hintmask 0100110110000000
          418 1636 rmoveto
          325 -110 rlineto
          -89 callgsubr
          -353 -1614 rmoveto
          8 callsubr
          39 26 40 4 3 20 vhcurveto
          hintmask 0001110110000000
          -38 callgsubr
          hintmask 0010110110000000
          -9 160 108 -3 108 hhcurveto
          65 6 14 -91 callsubr
          -15 -27 -24 -30 -18 -12 rrcurveto
          hintmask 0100110110000000
          -107 callgsubr
          -89 -145 -5 -4 -83 vhcurveto
          -3 -90 -99 -4 -42 hhcurveto
          -75 -56 -76 callsubr
          hintmask 1000101110000000
          4 callsubr
          -48 -223 hvcurveto
          -709 vlineto
          -231 -27 -37 -71 -95 callgsubr
        </CharString>
        <CharString name="Eth">
          411 -20 66 -40 -21 36 -21 648 85 552 55 -55 80 -9 -20 -42 callsubr
          851 178 hintmask 0101100101000000
          41 callgsubr
          49 27 24 3 4 25 vhcurveto
          hintmask 0011100101000000
          37 callgsubr
          -4 -5 54 hvcurveto
          hintmask 1001010101000000
          -13 callgsubr
          hintmask 1001100101000000
          37 callsubr
          hintmask 1001001101000000
          -6 callgsubr
          hintmask 1001100011000000
          -49 callgsubr
          -290 -140 vlineto
          -44 callgsubr
          149 -331 hlineto
          -183 -13 -88 -85 -101 callsubr
          hintmask 1001100101000000
          -22 -47 callgsubr
          349 108 rmoveto
          -6 90 -3 88 153 vvcurveto
          187 296 vlineto
          -45 callsubr
          -306 367 hlineto
          91 3 19 14 23 vhcurveto
          -31 callsubr
        </CharString>
        <CharString name="Euro">
          265 -25 87 468 85 115 85 470 80 hstem
          89 530 rmoveto
          142 hlineto
          -286 44 210 -269 378 hhcurveto
          108 94 18 33 76 hvcurveto
          108 47 91 84 52 vvcurveto
          59 -18 24 -15 -7 -6 -4 -16 -10 vhcurveto
          -162 -96 -138 -48 -156 hhcurveto
          -232 -181 187 281 -57 hvcurveto
          621 hlineto
          -45 callsubr
          -645 hlineto
          -3 35 -2 36 37 vvcurveto
          7 720 vlineto
          -45 callsubr
          -725 hlineto
          304 38 224 166 205 hhcurveto
          116 98 -30 -50 71 hvcurveto
          27 -20 25 -42 1 -80 rrcurveto
          -25 9 -17 19 19 10 15 26 6 vhcurveto
          6 27 18 73 26 47 rrcurveto
          11 19 2 9 8 vvcurveto
          24 -46 26 -64 22 vhcurveto
          30 -86 -110 18 -120 hhcurveto
          -357 -249 -249 -301 -68 hvcurveto
          -143 hlineto
          -44 callgsubr
          137 hlineto
          -3 -28 -1 -28 -28 vvcurveto
          -11 0 -10 1 -10 vhcurveto
          -125 hlineto
          -44 callgsubr
          endchar
        </CharString>
        <CharString name="F">
          -59 -57 callsubr
          687 81 493 95 -62 62 hstemhm
          68 336 -153 153 hintmask 10110100
          68 22 -90 callgsubr
          hintmask 01110100
          5 37 28 1 49 hhcurveto
          24 40 -1 -7 41 hvcurveto
          hintmask 10110100
          -4 25 31 -3 27 hhcurveto
          48 18 -54 callsubr
          -16 11 -22 -11 -11 -39 callgsubr
          -5 -9 -25 callsubr
          -86 -12 88 183 hvcurveto
          362 vlineto
          4 55 80 4 36 hhcurveto
          86 65 -8 -7 21 hvcurveto
          29 -11 6 -24 -46 vvcurveto
          -31 9 -15 20 21 13 17 55 14 -1 12 -1 12 vhcurveto
          -1 13 -1 13 12 vvcurveto
          19 7 30 12 35 vhcurveto
          8 24 8 22 12 vvcurveto
          20 -13 8 -14 -16 -15 -15 -39 -24 vhcurveto
          -37 -23 -33 -4 -141 hhcurveto
          -82 -41 3 8 -70 hvcurveto
          443 vlineto
          33 5 6 32 vhcurveto
          49 hlineto
          192 104 -16 -19 58 hvcurveto
          47 -16 17 -21 15 -42 rrcurveto
          -22 8 5 -8 14 hhcurveto
          20 7 14 68 8 hvcurveto
          3 29 4 72 12 vvcurveto
          35 -8 9 -38 -89 -145 -6 -3 -83 vhcurveto
          -4 -90 -59 -3 -42 hhcurveto
          -75 -52 -76 callsubr
          hintmask 10101010
          5 7 1 11 hhcurveto
          -79 callgsubr
          hintmask 10110100
          -22 -47 callgsubr
          endchar
        </CharString>
        <CharString name="G">
          388 -28 81 511 74 654 76 hstem
          83 190 921 162 vstem
          83 652 rmoveto
          -360 253 -320 502 158 211 42 72 111 vhcurveto
          46 30 11 15 28 vvcurveto
          20 -7 26 -3 21 vhcurveto
          -3 25 -6 80 32 vvcurveto
          158 11 33 39 17 vhcurveto
          29 13 10 7 18 vvcurveto
          19 -7 10 -32 vhcurveto
          -42 -28 -11 -61 hhcurveto
          -76 -75 14 -1 -56 hvcurveto
          -47 -1 -15 -17 -20 vvcurveto
          -20 26 -18 39 89 34 -7 -66 vhcurveto
          -217 vlineto
          -53 -11 -51 -30 -38 vhcurveto
          -57 -44 -113 -22 -116 hhcurveto
          -352 -255 299 371 351 212 218 338 115 114 -26 -48 85 hvcurveto
          60 -34 59 -73 15 -54 rrcurveto
          -32 9 13 -10 16 hhcurveto
          16 11 14 25 18 -4 80 -6 53 hvcurveto
          -8 72 -16 13 -40 16 rrcurveto
          42 -105 -151 20 -155 hhcurveto
          -466 -302 -286 -430 hvcurveto
          endchar
        </CharString>
        <CharString name="H">
          396 -57 callsubr
          701 95 498 -4 callsubr
          -157 339 342 340 -157 157 -157 339 hintmask 1011100100000000
          68 22 -90 callgsubr
          hintmask 0111100100000000
          -78 callgsubr
          hintmask 1011001100000000
          -72 callsubr
          -104 callgsubr
          hintmask 1011100010000000
          -70 -28 47 224 hvcurveto
          384 707 -384 -24 callsubr
          hintmask 1011100100000000
          -22 -14 -11 -18 8 callsubr
          49 27 24 4 5 42 hvcurveto
          hintmask 0111100100000000
          -78 callgsubr
          hintmask 1011100001000000
          -72 callsubr
          -104 callgsubr
          hintmask 1011100100000000
          -70 -28 47 224 hvcurveto
          706 12 callsubr
          hintmask 1011100001000000
          -53 callsubr
          hintmask 1011100100000000
          -102 callgsubr
          hintmask 1011100010000000
          69 29 -43 -228 hvcurveto
          -227 -707 227 12 callsubr
          hintmask 1011001100000000
          -53 callsubr
          hintmask 1011100100000000
          -102 callgsubr
          hintmask 1011010100000000
          69 29 -43 -228 hvcurveto
          -706 -24 callsubr
          hintmask 1011100100000000
          -22 -47 callgsubr
          endchar
        </CharString>
        <CharString name="I">
          -448 -15 -35 callgsubr
          -33 callgsubr
          hintmask 10101000
          81 22 -90 callgsubr
          hintmask 01101000
          -51 callgsubr
          hintmask 10101000
          -72 callsubr
          hintmask 10100100
          -106 callgsubr
          hintmask 10110000
          -102 callgsubr
          69 29 -43 -228 hvcurveto
          5 -706 rlineto
          -223 -29 -48 -69 -95 callgsubr
        </CharString>
        <CharString name="IJ">
          219 -276 64 -64 175 86 -35 callgsubr
          -33 callgsubr
          329 157 hintmask 1010101010000000
          573 -163 rmoveto
          1 callgsubr
          vhcurveto
          -82 callsubr
          -32 callgsubr
          hintmask 0110101010000000
          67 -4 -38 41 -55 hhcurveto
          -39 -29 -27 -35 hvcurveto
          -492 185 -90 callgsubr
          hintmask 1001101010000000
          -51 callgsubr
          hintmask 1010101010000000
          -72 callsubr
          hintmask 1010100110000000
          -106 callgsubr
          hintmask 1010110010000000
          -102 callgsubr
          69 29 -43 -228 hvcurveto
          5 -706 rlineto
          -223 -29 -48 -69 -95 callgsubr
        </CharString>
        <CharString name="Iacute">
          -448 -15 -35 callgsubr
          408 -20 -33 callgsubr
          hintmask 10110100
          152 -105 callsubr
          -71 -1487 -90 callgsubr
          hintmask 01110100
          -51 callgsubr
          hintmask 10110100
          -72 callsubr
          hintmask 10110010
          -106 callgsubr
          hintmask 10111000
          -102 callgsubr
          69 29 -43 -228 hvcurveto
          5 -706 rlineto
          -223 -29 -48 -69 -95 callgsubr
        </CharString>
        <CharString name="Icircumflex">
          -448 -15 -35 callgsubr
          414 -20 hstemhm
          83 337 -159 159 -159 351 hintmask 10110100
          118 -97 callgsubr
          hintmask 10111000
          -43 callgsubr
          -37 -1479 -90 callgsubr
          hintmask 01110100
          -51 callgsubr
          hintmask 10110100
          -72 callsubr
          hintmask 10110010
          -106 callgsubr
          -49 -16 -15 -22 -18 14 -11 22 12 7 2 1 7 hvcurveto
          5 7 1 11 hhcurveto
          69 29 -43 -228 hvcurveto
          5 -706 rlineto
          -223 -29 -48 -69 -95 callgsubr
        </CharString>
        <CharString name="Idieresis">
          -448 -15 -35 callgsubr
          186 200 hstemhm
          16 207 -147 344 -159 159 -159 351 -146 207 hintmask 1011101010000000
          567 1542 rmoveto
          -105 callgsubr
          -450 hmoveto
          -105 callgsubr
          -36 -1520 -90 callgsubr
          hintmask 0111101010000000
          -51 callgsubr
          hintmask 1011101010000000
          -72 callsubr
          hintmask 1011100100000000
          -106 callgsubr
          hintmask 1011010010000000
          -102 callgsubr
          69 29 -43 -228 hvcurveto
          5 -706 rlineto
          -223 -29 -48 -69 -95 callgsubr
        </CharString>
        <CharString name="Igrave">
          -448 -15 -35 callgsubr
          405 -20 -33 callgsubr
          hintmask 10110100
          467 1526 rmoveto
          -89 callgsubr
          -61 -1614 -90 callgsubr
          hintmask 01110100
          -51 callgsubr
          hintmask 10110100
          -72 callsubr
          hintmask 10110010
          -106 callgsubr
          hintmask 10111000
          -102 callgsubr
          69 29 -43 -228 hvcurveto
          5 -706 rlineto
          -223 -29 -48 -69 -95 callgsubr
        </CharString>
        <CharString name="Itilde">
          -448 -15 -35 callgsubr
          156 110 2 109 -33 callgsubr
          hintmask 10111010
          86 -98 callsubr
          -5 -1490 -90 callgsubr
          hintmask 01111010
          -51 callgsubr
          hintmask 10111010
          -72 callsubr
          hintmask 10111001
          -106 callgsubr
          hintmask 10111100
          -102 callgsubr
          69 29 -43 -228 hvcurveto
          5 -706 rlineto
          -223 -29 -48 -69 -95 callgsubr
        </CharString>
        <CharString name="J">
          39 callgsubr
          hstemhm
          263 157 hintmask 10110000
          -37 -101 rmoveto
          -39 -29 -27 -35 1 callgsubr
          hvcurveto
          -82 callsubr
          -32 callgsubr
          hintmask 01110000
          67 -4 -38 41 -55 hhcurveto
          endchar
        </CharString>
        <CharString name="Jcircumflex">
          39 callgsubr
          414 -20 hstemhm
          85 335 -157 157 -157 344 hintmask 10110010
          120 -97 callgsubr
          hintmask 01111000
          -43 callgsubr
          -157 -1602 rmoveto
          -39 -29 -27 -35 1 callgsubr
          hvcurveto
          -82 callsubr
          hintmask 10110100
          -32 callgsubr
          hintmask 01111000
          67 -4 -38 41 -55 hhcurveto
          endchar
        </CharString>
        <CharString name="K">
          193 -57 callsubr
          1294 61 1 -20 -42 callsubr
          -157 339 hintmask 10101000
          68 22 -90 callgsubr
          hintmask 01101000
          -78 callgsubr
          hintmask 10100010
          -72 callsubr
          -104 callgsubr
          hintmask 01101000
          -73 -25 50 221 hvcurveto
          247 vlineto
          96 114 440 -588 rlineto
          -69 54 34 -21 35 hhcurveto
          203 hlineto
          47 18 16 12 hvcurveto
          1 19 -11 11 -45 5 -53 6 -52 40 -58 59 -508 636 rcurveline
          125 150 172 207 114 84 78 35 rlinecurve
          19 9 20 5 10 2 rrcurveto
          23 5 6 6 16 vvcurveto
          21 -20 11 -39 vhcurveto
          -20 -77 -15 -32 -32 -61 9 -38 hhcurveto
          -38 -7 -16 -13 -13 19 -9 10 -3 hvcurveto
          10 -3 23 -1 -17 vvcurveto
          -8 -9 -18 -173 -205 vhcurveto
          -284 -337 rlineto
          317 vlineto
          219 26 52 72 vhcurveto
          11 6 -1 5 hhcurveto
          -1 7 8 -2 11 hhcurveto
          hintmask 10010010
          -3 callgsubr
          -25 -4 -4 -25 hvcurveto
          -6 -32 -51 -2 11 callgsubr
          -40 callsubr
          -24 4 -27 hhcurveto
          hintmask 10101000
          -102 callgsubr
          hintmask 10100100
          73 25 -51 -220 hvcurveto
          -706 vlineto
          -219 -23 -52 -75 -101 callsubr
          hintmask 10101000
          -22 -47 callgsubr
          endchar
        </CharString>
        <CharString name="L">
          -29 -15 61 -61 90 -74 -21 41 -9 callsubr
          hstemhm
          251 157 hintmask 01001100
          -5 callgsubr
          hintmask 00011100
          4 callgsubr
          hintmask 00101100
          -9 160 88 -3 108 hhcurveto
          65 17 43 -91 callsubr
          hintmask 01001100
          -34 callsubr
          565 vlineto
          -2 callgsubr
          -41 callsubr
          -51 -2 11 callgsubr
          2 6 -33 hvcurveto
          4 -25 -24 4 -92 callgsubr
          -49 callgsubr
          -706 vlineto
          hintmask 10001100
          -183 -13 -88 -85 -95 callgsubr
        </CharString>
        <CharString name="Ldotaccent">
          115 -15 61 -61 90 -74 -21 41 -21 605 227 462 62 hstemhm
          251 157 524 230 hintmask 01001111
          -5 callgsubr
          hintmask 00011111
          4 callgsubr
          hintmask 00101111
          -9 160 88 -3 108 hhcurveto
          65 17 43 -91 callsubr
          hintmask 01001111
          -34 callsubr
          565 vlineto
          -2 callgsubr
          -41 callsubr
          -51 -2 11 callgsubr
          2 6 -33 hvcurveto
          4 -25 -24 4 -92 callgsubr
          -49 callgsubr
          -706 vlineto
          hintmask 10001111
          -183 -13 -88 -85 -85 callgsubr
          864 699 rmoveto
          -68 43 -48 69 -74 callgsubr
          vhcurveto
          endchar
        </CharString>
        <CharString name="Lslash">
          -29 -15 61 -61 90 -74 -21 41 -21 1294 -4 callsubr
          hintmask 01001100
          -5 callgsubr
          hintmask 00011100
          4 callgsubr
          hintmask 00101100
          -9 160 88 -3 108 hhcurveto
          65 17 43 -91 callsubr
          hintmask 01001100
          -34 callsubr
          207 vlineto
          244 129 21 callsubr
          -198 -105 rlineto
          264 vlineto
          -2 callgsubr
          -41 callsubr
          -51 -2 11 callgsubr
          2 6 -33 hvcurveto
          4 -25 -24 4 -92 callgsubr
          hintmask 10001010
          -49 callgsubr
          -347 vlineto
          -153 -81 rlineto
          28 callgsubr
          124 65 rlineto
          -265 vlineto
          -183 -13 -88 -85 -101 callsubr
          hintmask 10001100
          -22 -47 callgsubr
          endchar
        </CharString>
        <CharString name="M">
          775 -15 66 -30 -21 1356 -20 hstemhm
          296 91 1053 181 -142 142 -142 168 hintmask 10111000
          65 38 callsubr
          hintmask 01111000
          4 24 13 4 51 hhcurveto
          21 6 -2 -5 31 hvcurveto
          hintmask 10111000
          -5 35 35 -3 34 hhcurveto
          48 -28 callgsubr
          -21 -90 -43 30 52 132 18 531 20 268 hvcurveto
          484 -997 rlineto
          -43 21 9 -18 19 hhcurveto
          13 15 17 42 19 hvcurveto
          473 1084 rlineto
          hintmask 10110100
          9 -178 30 -605 -75 vvcurveto
          -94 vlineto
          -40 0 -30 -4 -15 vhcurveto
          -39 -9 -22 -20 -71 hhcurveto
          -40 -15 -13 19 callsubr
          48 34 55 3 5 35 hvcurveto
          hintmask 01111000
          5 31 33 2 25 hhcurveto
          47 31 -4 -4 24 hvcurveto
          hintmask 10110010
          -3 23 20 32 callsubr
          -65 1 -74 14 -7 135 -51 970 rcurveline
          -5 87 65 19 61 8 rrcurveto
          43 5 14 5 19 vvcurveto
          22 -20 15 -55 vhcurveto
          -36 -38 -9 -46 -24 -36 4 -34 hhcurveto
          -34 -27 -19 -36 -14 hvcurveto
          -12 -32 -344 -793 -90 -209 -484 1003 rcurveline
          53 -26 -18 28 -32 -24 -8 -4 -56 -56 -35 14 -66 hhcurveto
          -27 -18 -16 -22 -18 20 -10 70 -10 hvcurveto
          55 -8 37 -31 -97 vvcurveto
          -207 -31 -625 -9 -110 vhcurveto
          -11 -134 -73 -11 -65 -1 rrcurveto
          -26 -1 -16 -12 -23 vvcurveto
          1405 1198 rmoveto
          1 1 rlineto
          endchar
        </CharString>
        <CharString name="N">
          429 -22 -21 28 -35 callgsubr
          -1 -20 28 callsubr
          hintmask 11010101
          71 22 -90 callgsubr
          hintmask 10110101
          3 callgsubr
          hintmask 11010101
          -72 callsubr
          -104 callgsubr
          -86 -12 88 183 hvcurveto
          750 vlineto
          922 -1068 rlineto
          -33 31 10 -9 15 hhcurveto
          18 8 11 45 hvcurveto
          1010 vlineto
          -2 callgsubr
          10 9 -10 callgsubr
          7 hhcurveto
          21 15 11 18 22 -17 15 -48 -28 -26 -3 -4 -26 hvcurveto
          -4 -31 -28 -5 -30 hhcurveto
          -25 -21 1 7 -42 3 callsubr
          15 -11 21 9 8 18 callgsubr
          8 1 8 hhcurveto
          85 18 -88 -183 hvcurveto
          -748 vlineto
          -921 1071 rlineto
          -5 -30 -12 -1 -33 hhcurveto
          -14 -24 4 2 -17 hvcurveto
          hintmask 11001101
          -37 callgsubr
          hintmask 11010011
          85 13 -87 -183 hvcurveto
          -704 vlineto
          -183 -13 -88 -85 -101 callsubr
          hintmask 11010101
          -22 -47 callgsubr
          endchar
        </CharString>
        <CharString name="Nacute">
          429 -22 -21 28 -35 callgsubr
          408 -20 28 callsubr
          hintmask 11011101
          606 -105 callsubr
          -535 -1487 -90 callgsubr
          hintmask 10111101
          3 callgsubr
          hintmask 11011101
          -72 callsubr
          -104 callgsubr
          -86 -12 88 183 hvcurveto
          750 vlineto
          922 -1068 rlineto
          -33 31 10 -9 15 hhcurveto
          18 8 11 45 hvcurveto
          1010 vlineto
          -2 callgsubr
          10 9 -10 callgsubr
          7 hhcurveto
          21 15 11 18 22 -17 15 -48 -28 -26 -3 -4 -26 hvcurveto
          -4 -31 -28 -5 -30 hhcurveto
          -25 -21 1 7 -42 3 callsubr
          15 -11 21 9 8 18 callgsubr
          8 1 8 hhcurveto
          85 18 -88 -183 hvcurveto
          -748 vlineto
          -921 1071 rlineto
          -5 -30 -12 -1 -33 hhcurveto
          -14 -24 4 2 -17 hvcurveto
          -37 callgsubr
          hintmask 11011011
          85 13 -87 -183 hvcurveto
          -704 vlineto
          -183 -13 -88 -85 -101 callsubr
          hintmask 11011101
          -22 -47 callgsubr
          endchar
        </CharString>
        <CharString name="Ntilde">
          429 -22 -21 28 -35 callgsubr
          156 110 2 109 28 callsubr
          hintmask 1101111010000000
          540 -98 callsubr
          -469 -1490 -90 callgsubr
          hintmask 1011111010000000
          3 callgsubr
          hintmask 1101111010000000
          -72 callsubr
          -104 callgsubr
          -86 -12 88 183 hvcurveto
          750 vlineto
          922 -1068 rlineto
          -33 31 10 -9 15 hhcurveto
          18 8 11 45 hvcurveto
          1010 vlineto
          -2 callgsubr
          10 9 -10 callgsubr
          7 hhcurveto
          21 15 11 18 22 -17 15 -48 -28 -26 -3 -4 -26 hvcurveto
          -4 -31 -28 -5 -30 hhcurveto
          -25 -21 1 7 -42 3 callsubr
          15 -11 21 9 8 18 callgsubr
          8 1 8 hhcurveto
          85 18 -88 -183 hvcurveto
          -748 vlineto
          -921 1071 rlineto
          -5 -30 -12 -1 -33 hhcurveto
          -14 -24 4 2 -17 hvcurveto
          -37 callgsubr
          hintmask 1101110110000000
          85 13 -87 -183 hvcurveto
          -704 vlineto
          -183 -13 -88 -85 -101 callsubr
          hintmask 1101111010000000
          -22 -47 callgsubr
          endchar
        </CharString>
        <CharString name="O">
          -21 callsubr
          -3 callsubr
          100 675 -100 callsubr
        </CharString>
        <CharString name="OE">
          902 -25 83 -57 -21 726 81 495 74 9 -20 hstemhm
          100 171 852 157 hintmask 10110110
          2 callsubr
          89 73 7 9 64 vhcurveto
          9 66 68 7 41 hhcurveto
          51 70 -4 -6 68 hvcurveto
          hintmask 01110110
          -13 159 119 -4 121 hhcurveto
          107 6 14 -91 callsubr
          -15 -27 -24 -30 -18 -12 rrcurveto
          -107 callgsubr
          -116 -145 -5 -7 -102 vhcurveto
          -6 -93 -118 -5 -44 hhcurveto
          -59 -104 10 7 -50 hvcurveto
          hintmask 10101110
          9 -65 -70 6 -95 hhcurveto
          -376 -325 -283 -407 hvcurveto
          171 72 rmoveto
          hintmask 10110110
          311 216 224 293 61 80 -9 -22 72 vhcurveto
          99 -31 31 -19 -69 vvcurveto
          -938 vlineto
          -60 -15 -23 -61 -21 vhcurveto
          -18 -52 -69 -14 -70 hhcurveto
          -346 -239 308 381 hvcurveto
          endchar
        </CharString>
        <CharString name="Oacute">
          -21 callsubr
          399 -20 -3 callsubr
          600 -105 callsubr
          -500 -834 -100 callsubr
        </CharString>
        <CharString name="Ocircumflex">
          -21 callsubr
          405 -20 -3 callsubr
          566 -97 callgsubr
          -43 callgsubr
          -466 -826 -100 callsubr
        </CharString>
        <CharString name="Odieresis">
          -21 callsubr
          177 200 hstem
          100 171 193 40 callgsubr
          188 176 vstem
          1015 1542 rmoveto
          -105 callgsubr
          -450 hmoveto
          -105 callgsubr
          -465 -867 -100 callsubr
        </CharString>
        <CharString name="Ograve">
          -21 callsubr
          396 -20 -3 callsubr
          590 1636 rmoveto
          325 -110 rlineto
          -89 callgsubr
          -490 -961 -100 callsubr
        </CharString>
        <CharString name="Oslash">
          459 -98 -21 94 83 1224 83 65 -20 -3 callsubr
          128 -108 rmoveto
          -1 callgsubr
          56 16 18 14 vhcurveto
          138 177 rlineto
          -74 109 134 -43 152 hhcurveto
          413 288 303 381 224 -84 192 -145 127 hvcurveto
          145 185 39 callsubr
          -56 -18 -16 -12 vhcurveto
          -110 -141 rlineto
          70 -107 -131 40 -148 hhcurveto
          -376 -325 -283 -407 -215 82 -188 139 -126 hvcurveto
          -163 -209 rlineto
          -19 -24 -11 -16 -5 vvcurveto
          294 382 rmoveto
          -96 124 -55 166 183 vvcurveto
          314 230 221 256 132 119 -50 -87 93 vhcurveto
          -621 -936 rmoveto
          681 871 rlineto
          93 -119 55 -165 -190 vvcurveto
          -337 -195 -211 -258 -148 -129 56 95 -99 vhcurveto
          endchar
        </CharString>
        <CharString name="Otilde">
          -21 callsubr
          147 -15 callsubr
          -3 callsubr
          534 -98 callsubr
          -434 -837 -100 callsubr
        </CharString>
        <CharString name="P">
          -54 -57 callsubr
          557 63 666 70 -42 callsubr
          415 169 hintmask 10111010
          68 22 -90 callgsubr
          hintmask 01111010
          -78 callgsubr
          hintmask 10111010
          -72 callsubr
          -104 callgsubr
          -86 -12 88 183 hvcurveto
          907 vlineto
          45 32 17 67 182 134 -130 -221 -191 -81 -124 -138 -37 -34 6 21 -30 vhcurveto
          -17 callgsubr
          -23 -29 -4 -5 -32 hvcurveto
          -5 -25 -51 -2 11 callgsubr
          2 6 -33 hvcurveto
          4 -25 -24 4 -92 callgsubr
          hintmask 10110110
          -79 callgsubr
          hintmask 10111010
          -22 -47 callgsubr
          endchar
        </CharString>
        <CharString name="Q">
          443 -219 72 122 78 1229 83 -3 callsubr
          2 callsubr
          87 115 -22 -75 176 vhcurveto
          -67 158 136 -30 64 hhcurveto
          99 90 35 40 8 -7 9 -13 -12 -9 -4 -4 -11 hvcurveto
          -6 -15 -19 -6 -37 hhcurveto
          -92 -126 82 42 -112 hvcurveto
          -74 28 -56 12 -77 4 rrcurveto
          266 99 170 246 293 vvcurveto
          405 -275 301 -409 -376 -325 -283 -407 vhcurveto
          171 72 rmoveto
          314 230 221 256 316 236 -282 -394 -337 -195 -216 -258 -346 -239 313 381 vhcurveto
          endchar
        </CharString>
        <CharString name="R">
          1 callsubr
          hstemhm
          68 340 -157 157 430 167 hintmask 10111010
          68 22 -90 callgsubr
          hintmask 01111010
          -78 callgsubr
          hintmask 10111010
          -72 callsubr
          -104 callgsubr
          -86 -12 88 183 hvcurveto
          271 vlineto
          2 43 38 1 53 hhcurveto
          57 37 -27 -71 45 hvcurveto
          252 -403 rlineto
          hintmask 01111010
          -95 callsubr
          hintmask 10110110
          -79 callgsubr
          hintmask 10111010
          -75 callgsubr
          endchar
        </CharString>
        <CharString name="Racute">
          1 callsubr
          408 -20 -42 callsubr
          430 167 hintmask 10111101
          376 -105 callsubr
          -308 -1487 -90 callgsubr
          hintmask 01111101
          -78 callgsubr
          hintmask 10111101
          -72 callsubr
          -104 callgsubr
          -86 -12 88 183 hvcurveto
          271 vlineto
          2 43 38 1 53 hhcurveto
          57 37 -27 -71 45 hvcurveto
          252 -403 rlineto
          hintmask 01111101
          -95 callsubr
          hintmask 10111011
          -79 callgsubr
          hintmask 10111101
          -75 callgsubr
          endchar
        </CharString>
        <CharString name="Rcaron">
          1 callsubr
          414 -20 -42 callsubr
          430 167 hintmask 10111101
          568 1501 -88 callsubr
          -500 -1479 -90 callgsubr
          hintmask 01111101
          -78 callgsubr
          hintmask 10111101
          -72 callsubr
          -104 callgsubr
          -86 -12 88 183 hvcurveto
          271 vlineto
          2 43 38 1 53 hhcurveto
          57 37 -27 -71 45 hvcurveto
          252 -403 rlineto
          hintmask 01111101
          -95 callsubr
          hintmask 10111011
          -79 callgsubr
          hintmask 10111101
          -75 callgsubr
          endchar
        </CharString>
        <CharString name="Rcommaaccent">
          176 36 callgsubr
          -32 callsubr
          591 78 625 -4 callsubr
          279 99 52 167 hintmask 1101111011000000
          68 22 -90 callgsubr
          -78 callgsubr
          -72 callsubr
          48 -71 callgsubr
          -22 -11 -8 -2 -37 callsubr
          hintmask 1010111011000000
          -1 -5 -6 -25 callsubr
          -86 -12 88 183 hvcurveto
          271 vlineto
          2 43 38 1 53 hhcurveto
          57 37 -27 -71 45 hvcurveto
          252 -403 rlineto
          hintmask 1101111011000000
          -95 callsubr
          hintmask 1010110111000000
          -79 callgsubr
          hintmask 1101111011000000
          -75 callgsubr
          191 -885 23 callgsubr
          -72 callgsubr
          -13 callsubr
        </CharString>
        <CharString name="S">
          -107 -25 81 1235 74 7 callsubr
          rrcurveto
          -20 58 94 -31 104 hhcurveto
          12 callgsubr
          -74 51 -115 70 -44 36 30 callsubr
          74 81 -22 -36 36 vhcurveto
          -41 callgsubr
          13 -40 -50 9 -59 hhcurveto
          27 callgsubr
          84 -71 59 -31 119 -80 rrcurveto
          33 callsubr
          -95 -84 58 50 -47 vhcurveto
          -18 callsubr
          endchar
        </CharString>
        <CharString name="T">
          89 -57 callsubr
          1087 253 -88 88 16 -20 hstemhm
          528 157 hintmask 10100100
          345 22 -90 callgsubr
          hintmask 01100100
          -78 callgsubr
          hintmask 10010100
          -72 callsubr
          -104 callgsubr
          -86 -12 88 183 hvcurveto
          935 215 vlineto
          104 46 -22 -85 13 hvcurveto
          hintmask 10100100
          -47 7 4 -11 16 hhcurveto
          24 9 20 96 12 hvcurveto
          5 37 6 23 5 18 rrcurveto
          5 17 4 13 14 vvcurveto
          hintmask 10001100
          17 -7 14 -26 -18 -11 -3 -4 -18 vhcurveto
          hintmask 10100100
          -4 -21 -30 -5 -58 hhcurveto
          -634 hlineto
          -75 -70 8 3 -18 hvcurveto
          hintmask 10001100
          3 -17 -16 -47 callsubr
          -27 -7 -17 -71 -6 hvcurveto
          -3 -40 -7 -23 -6 -22 rrcurveto
          -9 -29 -9 -26 -13 vvcurveto
          -19 9 -15 20 16 10 11 35 14 vhcurveto
          13 33 26 26 21 13 rrcurveto
          hintmask 10010100
          21 32 114 32 171 hhcurveto
          27 -935 hlineto
          -183 -13 -88 -85 -95 callgsubr
        </CharString>
        <CharString name="Thorn">
          -54 -57 callsubr
          268 63 666 70 227 -4 callsubr
          -157 339 233 169 hintmask 1011110010000000
          68 22 -90 callgsubr
          hintmask 0111110010000000
          -78 callgsubr
          hintmask 1011100110000000
          -72 callsubr
          -104 callgsubr
          hintmask 1011110010000000
          -70 -28 47 224 hvcurveto
          624 vlineto
          40 3 32 16 64 hhcurveto
          182 134 -130 -221 -191 -81 -124 -138 -37 -34 6 21 -30 hvcurveto
          -17 callgsubr
          -25 -27 -4 -5 -32 hvcurveto
          -11 -2 -11 -1 -12 -1 rrcurveto
          196 2 29 44 67 11 6 -1 5 hhcurveto
          -1 7 8 -2 11 hhcurveto
          hintmask 1011100110000000
          -53 callsubr
          hintmask 1011110010000000
          -102 callgsubr
          hintmask 1011101010000000
          69 29 -43 -228 hvcurveto
          -706 -24 callsubr
          hintmask 1011110010000000
          -22 -47 callgsubr
          endchar
        </CharString>
        <CharString name="U">
          -10 callsubr
          44 callsubr
          808 98 vstem
          410 333 -107 callsubr
        </CharString>
        <CharString name="Uacute">
          -10 callsubr
          408 -20 44 callsubr
          808 98 vstem
          600 -105 callsubr
          -190 -1176 -107 callsubr
        </CharString>
        <CharString name="Ucircumflex">
          -10 callsubr
          414 -20 44 callsubr
          808 98 vstem
          566 -97 callgsubr
          -43 callgsubr
          -156 -1168 -107 callsubr
        </CharString>
        <CharString name="Udieresis">
          -10 callsubr
          186 200 44 callsubr
          74 40 callgsubr
          77 98 vstem
          1015 1542 rmoveto
          -105 callgsubr
          -450 hmoveto
          -105 callgsubr
          -155 -1209 -107 callsubr
        </CharString>
        <CharString name="Ugrave">
          -10 callsubr
          405 -20 44 callsubr
          808 98 vstem
          590 1636 rmoveto
          325 -110 rlineto
          -89 callgsubr
          -180 -1303 -107 callsubr
        </CharString>
        <CharString name="V">
          287 13 callgsubr
          15 36 26 10 hvcurveto
          431 1126 48 126 36 23 -38 callsubr
          -9 -47 -20 -54 hvcurveto
          -313 -865 -362 868 rlineto
          -31 75 -9 41 21 vvcurveto
          40 28 21 83 28 15 14 18 23 -17 11 -48 -34 -35 -3 -5 -35 vhcurveto
          -5 -31 -33 -36 callgsubr
          65 -1 29 -25 52 -124 rrcurveto
          endchar
        </CharString>
        <CharString name="W">
          917 13 callgsubr
          14 36 26 11 hvcurveto
          294 704 236 -695 rlineto
          -62 21 19 -9 14 hhcurveto
          20 18 36 26 10 hvcurveto
          429 1126 48 127 36 22 -38 callsubr
          -6 -37 -23 -64 hvcurveto
          -308 -859 -281 821 rlineto
          -27 77 -13 63 38 vvcurveto
          40 32 21 83 28 15 14 18 23 -17 11 -48 -34 -35 5 callsubr
          -62 -36 callgsubr
          86 -2 41 -29 46 -134 94 -279 rcurveline
          -256 -620 -363 871 rlineto
          -31 75 -9 41 21 vvcurveto
          40 12 17 83 28 15 18 18 23 -17 11 -48 -16 -33 -3 -5 -35 vhcurveto
          -5 -31 -33 -36 callgsubr
          65 -1 26 -29 52 -124 rrcurveto
          endchar
        </CharString>
        <CharString name="X">
          193 -15 66 -30 -21 1285 71 hstemhm
          457 457 hintmask 10110000
          35 38 callsubr
          hintmask 01110000
          4 24 12 4 51 hhcurveto
          21 6 -2 -5 31 hvcurveto
          hintmask 10110000
          -5 35 5 -3 34 hhcurveto
          48 -28 callgsubr
          -21 -57 -21 18 19 16 16 42 27 46 hvcurveto
          241 403 234 -389 rlineto
          44 -74 9 -40 -5 vvcurveto
          -21 -4 -15 -62 -21 -15 -11 19 callsubr
          48 34 25 3 5 35 vhcurveto
          hintmask 01110000
          5 31 17 2 25 hhcurveto
          47 21 -4 -4 24 hvcurveto
          hintmask 10110000
          -3 23 30 32 callsubr
          -59 1 -75 45 -82 140 -303 511 rcurveline
          176 295 rlineto
          205 114 54 32 91 hhcurveto
          26 16 13 23 22 -26 13 -37 -31 -20 -4 -3 -24 hvcurveto
          -4 -24 -10 -4 -51 hhcurveto
          -21 -6 2 5 -31 hvcurveto
          5 -35 -5 3 -34 hhcurveto
          -48 -17 -14 -23 -18 15 -11 21 57 21 -18 -19 -16 -16 -42 -27 -46 hvcurveto
          -183 -304 -181 307 rlineto
          -32 54 -7 25 24 vvcurveto
          21 19 13 42 32 17 13 23 22 -27 9 -36 -19 -29 -4 -4 -25 vhcurveto
          -4 -27 -29 -4 -30 hhcurveto
          -25 -35 3 5 -31 hvcurveto
          5 -35 -15 3 -34 hhcurveto
          -48 -17 -13 -23 -21 17 -13 35 56 29 -29 -127 75 hvcurveto
          265 -443 -236 -394 -107 -180 -54 -55 -98 -2 rlinecurve
          -26 -1 -16 -12 -23 vvcurveto
          endchar
        </CharString>
        <CharString name="Y">
          134 -57 callsubr
          1285 71 hstemhm
          556 157 hintmask 10110000
          373 22 -90 callgsubr
          hintmask 01110000
          -78 callgsubr
          hintmask 10110000
          -72 callsubr
          -104 callgsubr
          -86 -12 88 183 hvcurveto
          364 vlineto
          286 430 -94 callsubr
          315 -465 rcurveline
          -350 vlineto
          -183 -13 -88 -85 -95 callgsubr
        </CharString>
        <CharString name="Yacute">
          134 -57 callsubr
          1285 71 408 -20 hstemhm
          556 157 hintmask 10111000
          459 -105 callsubr
          -86 -1487 -90 callgsubr
          hintmask 01111000
          -78 callgsubr
          hintmask 10111000
          -72 callsubr
          -104 callgsubr
          -86 -12 88 183 hvcurveto
          364 vlineto
          286 430 -94 callsubr
          315 -465 rcurveline
          -350 vlineto
          -183 -13 -88 -85 -95 callgsubr
        </CharString>
        <CharString name="Z">
          186 -10 88 -82 -21 33 -21 27 -21 1266 81 16 -20 hstemhm
          hintmask 00101000
          55 hmoveto
          -11 10 -2 16 vhcurveto
          hintmask 10001000
          86 115 2 1 134 hvcurveto
          hintmask 00011000
          2 138 159 1 168 hhcurveto
          70 61 -4 -4 49 hvcurveto
          hintmask 01001000
          -5 57 37 -5 21 hhcurveto
          32 14 15 25 3 hvcurveto
          6 52 8 43 11 37 rrcurveto
          13 46 4 16 16 vvcurveto
          21 -10 12 -19 -16 -10 -11 -29 -12 vhcurveto
          hintmask 10000100
          -84 -36 -84 -56 -247 hhcurveto
          -515 hlineto
          789 1135 rlineto
          41 58 29 45 16 vvcurveto
          13 -6 11 -33 -31 -31 -3 -4 -35 vhcurveto
          hintmask 10001000
          -4 -43 -70 -5 -50 hhcurveto
          -152 -129 2 5 -130 hvcurveto
          hintmask 10000100
          4 -109 -89 5 -37 hhcurveto
          -49 -9 -31 -38 -3 hvcurveto
          -4 -59 -9 -29 -7 -23 rrcurveto
          -9 -29 -9 -20 -18 vvcurveto
          -20 13 -11 16 16 13 9 25 13 vhcurveto
          33 59 33 32 89 25 rrcurveto
          hintmask 10001000
          17 60 117 14 164 hhcurveto
          92 66 -3 -11 75 hvcurveto
          -824 -1159 rlineto
          -45 -64 -9 -14 -8 vvcurveto
          endchar
        </CharString>
        <CharString name="a">
          -62 callgsubr
          -11 callsubr
          hintmask 10110110
          101 252 -98 callgsubr
          hintmask 01110110
          -94 callgsubr
          hintmask 10101110
          -103 callsubr
        </CharString>
        <CharString name="aacute">
          -62 callgsubr
          402 -20 -11 callsubr
          hintmask 10110111
          358 -101 callgsubr
          -257 -838 -99 callsubr
        </CharString>
        <CharString name="acircumflex">
          -62 callgsubr
          408 -20 -11 callsubr
          hintmask 10110111
          320 -102 callsubr
          -219 -830 -99 callsubr
        </CharString>
        <CharString name="acute">
          -569 1111 -21 255 -20 hstem
          118 -101 callgsubr
          endchar
        </CharString>
        <CharString name="acute.cap">
          -524 1530 -21 255 -20 hstem
          109 -105 callsubr
          endchar
        </CharString>
        <CharString name="adieresis">
          -62 callgsubr
          168 200 hstemhm
          101 174 -36 6 callsubr
          -98 159 hintmask 1011010110000000
          692 1111 rmoveto
          -105 callgsubr
          -352 hmoveto
          -105 callgsubr
          hintmask 1011011010000000
          -239 -859 -98 callgsubr
          hintmask 0111011001000000
          -94 callgsubr
          hintmask 1010111001000000
          -103 callsubr
        </CharString>
        <CharString name="ae">
          434 -25 91 422 76 114 265 -69 69 hstemhm
          101 177 422 159 470 159 hintmask 11101110
          101 262 rmoveto
          -161 144 -126 195 140 120 67 123 63 vhcurveto
          -122 66 117 -68 178 hhcurveto
          88 84 0 callgsubr
          -75 -27 -77 hhcurveto
          -207 -111 151 250 -9 hvcurveto
          200 2 328 12 46 7 rrcurveto
          37 5 18 22 65 vvcurveto
          199 -118 164 -225 -132 -110 -61 -93 -80 vhcurveto
          103 -51 -97 51 -144 hhcurveto
          -109 -97 -33 -41 -66 hvcurveto
          -53 -33 -49 -53 -41 vvcurveto
          -36 47 -28 32 40 30 31 53 25 vhcurveto
          hintmask 11011110
          80 38 47 32 89 hhcurveto
          138 57 -81 -176 hvcurveto
          -73 vlineto
          11 -51 -58 9 -44 hhcurveto
          -254 -192 -105 -197 hvcurveto
          760 290 rmoveto
          198 15 101 121 136 hhcurveto
          125 91 42 callgsubr
          -52 -2 -44 -1 rrcurveto
          -1 -62 -80 -1 -78 hhcurveto
          -35 -35 -1 1 -32 hvcurveto
          -583 -263 rmoveto
          124 97 75 134 82 62 -15 -26 47 vhcurveto
          1 -76 11 -68 18 -59 rrcurveto
          -114 -36 -88 -56 -111 hhcurveto
          -121 -96 95 120 hvcurveto
          endchar
        </CharString>
        <CharString name="agrave">
          -62 callgsubr
          402 -20 -11 callsubr
          hintmask 10110111
          332 1221 rmoveto
          279 -108 rlineto
          -90 callsubr
          -231 -969 -99 callsubr
        </CharString>
        <CharString name="ampersand">
          355 -24 92 1035 192 -62 62 11 59 hstemhm
          90 194 87 154 -8 141 402 130 -63 299 -90 90 hintmask 1101110101000000
          90 499 rmoveto
          -290 223 -233 343 332 202 223 224 127 -17 105 -101 52 vhcurveto
          hintmask 1101110010000000
          218 74 136 126 194 vvcurveto
          132 -88 62 -81 -83 -47 -68 -53 -38 24 -33 44 25 23 16 30 22 -17 15 -25 5 vhcurveto
          hintmask 1011101101000000
          29 4 18 13 27 hhcurveto
          42 44 -35 -76 -129 -98 -127 -379 -107 hvcurveto
          -283 -80 -59 -135 -129 vvcurveto
          -61 38 -43 40 35 28 25 41 29 -19 28 -39 12 vhcurveto
          110 25 114 97 118 hhcurveto
          135 68 -107 -123 -246 -156 -109 -193 -250 -177 192 225 217 126 148 220 37 hvcurveto
          29 5 17 6 17 vvcurveto
          14 -7 9 -27 11 vhcurveto
          hintmask 1101110101000000
          -73 30 -44 66 78 vvcurveto
          93 69 90 107 89 61 -46 -97 18 vhcurveto
          -24 4 29 -12 14 hhcurveto
          17 11 25 60 5 hvcurveto
          4 46 2 18 9 vvcurveto
          28 -27 5 -33 14 vhcurveto
          19 -45 -54 14 -96 hhcurveto
          -198 -131 -110 -159 -53 29 -50 37 -37 hvcurveto
          -193 -58 -154 -182 -217 vvcurveto
          endchar
        </CharString>
        <CharString name="aring">
          -62 callgsubr
          158 68 268 68 hstemhm
          101 174 35 96 223 94 -23 159 hintmask 1011011111000000
          516 1101 -69 callsubr
          -419 -917 -98 callgsubr
          hintmask 0111011110100000
          -94 callgsubr
          hintmask 1010111110100000
          -103 callsubr
        </CharString>
        <CharString name="asciicircum">
          -278 887 -21 490 -20 hstem
          144 866 rmoveto
          17 10 5 16 11 hvcurveto
          240 345 244 -345 rlineto
          -19 14 8 -2 18 hhcurveto
          40 22 9 14 8 -8 14 -8 12 hvcurveto
          -282 409 rlineto
          11 -8 -15 13 -23 hhcurveto
          -23 -15 -13 -11 -8 hvcurveto
          -282 -409 rlineto
          -12 -18 -4 -8 -8 vvcurveto
          -17 22 -6 42 vhcurveto
          endchar
        </CharString>
        <CharString name="asciitilde">
          -69 346 157 17 157 hstem
          102 346 rmoveto
          8 8 16 39 25 hvcurveto
          86 55 39 33 50 hhcurveto
          54 29 -9 -72 114 hvcurveto
          -61 98 68 -32 62 hhcurveto
          60 68 26 131 91 hvcurveto
          28 40 33 64 25 vvcurveto
          25 -9 20 -28 -8 -8 -16 -39 -25 vhcurveto
          -86 -55 -39 -33 -50 hhcurveto
          -44 -61 18 72 -109 hvcurveto
          69 -115 -32 15 -64 hhcurveto
          -60 -68 -26 -131 -91 hvcurveto
          -28 -40 -33 -64 -25 vvcurveto
          -25 9 -20 28 vhcurveto
          endchar
        </CharString>
        <CharString name="asterisk">
          -318 834 424 -162 162 -136 136 -136 308 hstemhm
          hintmask 10000000
          299 834 rmoveto
          10 6 12 31 7 hvcurveto
          14 60 34 89 38 53 rrcurveto
          -164 40 60 -81 30 hhcurveto
          51 63 48 23 8 -5 8 -14 8 hvcurveto
          -85 56 -54 47 -45 71 rrcurveto
          hintmask 01000000
          -3 19 35 -4 56 hhcurveto
          57 42 7 8 15 hvcurveto
          14 7 11 25 27 vvcurveto
          53 -30 51 -17 -7 -6 -5 -11 -11 vhcurveto
          -72 -77 -43 -15 -69 -26 29 69 25 77 -1 55 -1 29 -6 18 -9 7 rrcurveto
          hintmask 00010000
          19 -27 -50 16 -41 hhcurveto
          -12 -8 -4 -14 -11 7 -20 11 -35 hvcurveto
          20 -71 11 -78 1 -48 rrcurveto
          hintmask 00100000
          79 -75 -74 30 -57 hhcurveto
          -37 -39 -65 -64 -7 4 -4 8 6 8 1 1 11 hvcurveto
          1 10 16 1 25 hhcurveto
          74 56 -7 -12 38 hvcurveto
          -116 -71 -58 -75 -29 vvcurveto
          hintmask 10000000
          -36 59 -58 48 vhcurveto
          endchar
        </CharString>
        <CharString name="at">
          679 -409 75 309 99 675 82 295 81 hstem
          100 129 284 185 883 124 vstem
          100 317 rmoveto
          -457 372 -269 379 120 134 18 40 103 vhcurveto
          100 39 56 43 36 vvcurveto
          30 -40 32 -45 -13 -19 -8 -16 -16 vhcurveto
          -81 -83 -118 -58 -147 hhcurveto
          -283 -371 190 517 403 342 350 408 356 246 -224 -307 -195 -91 -196 -177 -95 hvcurveto
          -23 -42 -41 -15 -26 hhcurveto
          -21 -12 17 60 2 hvcurveto
          3 57 24 106 59 245 25 101 15 56 10 34 rrcurveto
          9 32 4 11 10 vvcurveto
          20 -13 11 -15 -13 -6 -4 -22 -20 vhcurveto
          -20 -20 -17 -14 -20 -7 rrcurveto
          50 -64 -72 17 -60 hhcurveto
          -267 -222 -276 -264 -190 92 -126 154 101 84 38 90 75 hvcurveto
          -93 5 34 -35 59 hhcurveto
          63 72 21 36 72 hvcurveto
          312 158 69 262 173 vvcurveto
          347 -279 235 -408 -513 -405 -375 -515 vhcurveto
          598 29 rmoveto
          146 80 257 199 71 49 -30 -44 33 vhcurveto
          -71 -291 -25 -107 -9 -62 rrcurveto
          -100 -60 -70 -41 -57 hhcurveto
          -85 -55 96 176 hvcurveto
          endchar
        </CharString>
        <CharString name="atilde">
          -62 callgsubr
          163 110 2 109 -11 callsubr
          hintmask 1011011110000000
          290 -97 callsubr
          -189 -854 -98 callgsubr
          hintmask 0111011110000000
          -94 callgsubr
          hintmask 1010111110000000
          -103 callsubr
        </CharString>
        <CharString name="b">
          -1 -25 75 -44 -21 855 103 487 -20 hstemhm
          191 158 527 168 hintmask 01111100
          168 15 rmoveto
          -16 13 -14 18 20 9 15 16 19 vhcurveto
          17 14 17 10 19 7 rrcurveto
          hintmask 10111100
          -46 73 97 -26 107 hhcurveto
          252 215 193 300 262 -144 213 -259 -100 -116 -42 -94 -76 hvcurveto
          305 vlineto
          141 4 64 -93 callsubr
          -15 -4 -21 -37 vhcurveto
          -43 -24 -71 -22 -72 -14 rrcurveto
          -44 -9 -5 -12 -26 callsubr
          17 -10 -61 callgsubr
          27 40 callsubr
          8 -44 -67 vvcurveto
          -3 -811 -1 -157 -4 -52 -12 -38 rlinecurve
          -4 -11 -2 -10 -10 vvcurveto
          181 183 rmoveto
          498 vlineto
          100 56 100 44 89 hhcurveto
          168 114 -168 -263 -222 -103 -137 -163 -115 -98 54 94 -48 hvcurveto
          endchar
        </CharString>
        <CharString name="backslash">
          46 callgsubr
          749 -325 rmoveto
          -22 8 52 -12 37 hhcurveto
          9 7 3 8 7 -6 17 -3 8 hvcurveto
          -716 1883 rlineto
          19 -7 -51 15 -39 hhcurveto
          -9 -7 -3 -8 -7 6 -17 3 -8 hvcurveto
          endchar
        </CharString>
        <CharString name="bar">
          -597 -336 -21 1951 -20 hstem
          217 95 vstem
          217 -357 rmoveto
          95 1951 -95 hlineto
          endchar
        </CharString>
        <CharString name="braceleft">
          -372 22 callsubr
          hstemhm
          286 177 -177 368 hintmask 11010000
          286 243 rmoveto
          -226 72 -160 108 -77 vhcurveto
          -32 44 51 -20 54 hhcurveto
          27 12 15 12 18 -20 12 -30 5 hvcurveto
          -62 11 -39 25 -17 45 rrcurveto
          hintmask 11100000
          -15 42 -8 40 65 vvcurveto
          20 1 21 1 25 vhcurveto
          4 61 2 86 -1 38 -4 185 -39 71 -99 54 99 53 39 72 4 185 1 38 -2 86 -4 61 rrcurveto
          -1 25 -1 21 20 vvcurveto
          65 8 40 15 42 vhcurveto
          17 45 39 25 62 11 rrcurveto
          hintmask 11010000
          30 5 20 12 18 vvcurveto
          12 -12 15 -27 -54 -51 -20 -32 -44 vhcurveto
          -108 -77 -72 -160 -226 -83 20 -123 -28 vvcurveto
          -41 -15 -19 -40 -16 vhcurveto
          -28 -11 -23 -1 -14 vvcurveto
          -14 23 -1 28 -11 vhcurveto
          40 -16 15 -19 -41 -28 -20 -123 -83 vvcurveto
          endchar
        </CharString>
        <CharString name="braceright">
          -372 22 callsubr
          hstemhm
          100 368 -177 177 hintmask 11100000
          150 -210 rmoveto
          -30 -5 -20 -12 -18 vvcurveto
          -12 12 -15 27 54 51 20 32 44 vhcurveto
          108 77 72 160 226 83 -20 123 28 vvcurveto
          41 15 19 40 16 vhcurveto
          28 11 23 1 14 vvcurveto
          14 -23 1 -28 11 vhcurveto
          -40 16 -15 19 41 28 20 123 83 vvcurveto
          226 -72 160 -108 77 vhcurveto
          32 -44 -51 20 -54 hhcurveto
          -27 -12 -15 -12 -18 20 -12 30 -5 hvcurveto
          62 -11 39 -25 17 -45 rrcurveto
          hintmask 11010000
          15 -42 8 -40 -65 vvcurveto
          -20 -1 -21 -1 -25 vhcurveto
          -4 -61 -2 -86 1 -38 4 -185 38 -72 100 -53 -100 -54 -38 -71 -4 -185 -1 -38 2 -86 4 -61 rrcurveto
          1 -25 1 -21 -20 vvcurveto
          -65 -8 -40 -15 -42 vhcurveto
          -17 -45 -39 -25 -62 -11 rrcurveto
          endchar
        </CharString>
        <CharString name="bracketleft">
          45 callsubr
          200 157 vstem
          200 -239 rmoveto
          -26 6 -7 26 vhcurveto
          341 hlineto
          26 13 41 8 10 -6 5 -21 -109 -75 8 9 -44 hvcurveto
          1540 vlineto
          9 44 75 8 109 hhcurveto
          21 6 5 10 8 -13 41 -26 hvcurveto
          -341 hlineto
          -26 -6 -7 -26 hvcurveto
          endchar
        </CharString>
        <CharString name="bracketright">
          45 callsubr
          355 157 vstem
          127 -208 rmoveto
          -21 -6 -5 -10 -8 13 -41 26 hvcurveto
          341 hlineto
          26 6 7 26 hvcurveto
          1636 vlineto
          26 -6 7 -26 vhcurveto
          -341 hlineto
          -26 -13 -41 -8 -10 6 -5 21 108 76 -8 -9 44 hvcurveto
          -1540 vlineto
          -9 -44 -76 -8 -108 hhcurveto
          endchar
        </CharString>
        <CharString name="brokenbar">
          -597 -339 -21 1952 -20 hstem
          217 95 vstem
          217 766 rmoveto
          95 826 -95 hlineto
          -1952 vmoveto
          95 827 -95 hlineto
          endchar
        </CharString>
        <CharString name="bullet">
          -654 404 347 hstem
          60 352 vstem
          231 404 rmoveto
          112 69 79 97 98 -68 73 -104 -94 -86 -70 -100 -104 66 -73 105 hvcurveto
          endchar
        </CharString>
        <CharString name="c">
          -176 -25 91 805 72 hstem
          83 175 vstem
          83 453 rmoveto
          -272 -1 178 -206 271 hhcurveto
          83 80 13 43 74 hvcurveto
          -63 callgsubr
        </CharString>
        <CharString name="caron">
          103 1095 -21 269 -20 hstem
          353 1074 -88 callsubr
          endchar
        </CharString>
        <CharString name="caron.cap">
          -419 1522 -21 269 -20 hstem
          353 1501 -88 callsubr
          endchar
        </CharString>
        <CharString name="ccedilla">
          -176 -461 61 1271 72 hstemhm
          83 175 83 358 -92 92 hintmask 11101000
          83 453 rmoveto
          -1 -258 159 -198 248 -20 rrcurveto
          -33 -73 -16 -58 -27 vvcurveto
          -44 callsubr
          hintmask 11110000
          -29 callgsubr
          9 32 10 27 11 25 71 3 69 15 64 37 rrcurveto
          -63 callgsubr
        </CharString>
        <CharString name="cedilla">
          -608 -461 61 431 -20 hstemhm
          80 358 -92 92 hintmask 11010000
          179 -181 rmoveto
          -44 callsubr
          hintmask 11100000
          -29 callgsubr
          14 48 15 37 20 36 -68 18 rcurveline
          -50 -99 -25 -80 -33 vvcurveto
          endchar
        </CharString>
        <CharString name="cent">
          -166 -373 -21 369 91 1256 -20 hstem
          86 171 vstem
          413 -9 rmoveto
          -41 -333 rlineto
          27 callsubr
          41 330 rlineto
          -1 13 13 -1 14 hhcurveto
          83 80 13 43 74 hvcurveto
          67 38 50 50 30 vvcurveto
          23 -16 14 -17 -20 -16 -14 -22 -22 vhcurveto
          -55 -53 -70 -29 -70 hhcurveto
          -35 -33 5 8 -30 hvcurveto
          98 785 55 -14 37 -39 32 -74 rlinecurve
          17 -40 26 -11 33 1 rrcurveto
          31 1 48 17 37 vvcurveto
          48 -47 51 -48 36 vhcurveto
          -46 34 -59 23 -70 7 41 329 22 callgsubr
          -42 -340 -254 -18 -190 -188 -1 -282 rlinecurve
          -1 -224 126 -186 202 -52 rrcurveto
          15 123 rmoveto
          -110 70 -61 139 172 vvcurveto
          221 129 137 136 16 vhcurveto
          endchar
        </CharString>
        <CharString name="circumflex">
          -520 1103 -21 269 -20 hstem
          105 -102 callsubr
          endchar
        </CharString>
        <CharString name="circumflex.cap">
          -444 1522 -21 269 -20 hstem
          115 -97 callgsubr
          -43 callgsubr
          endchar
        </CharString>
        <CharString name="colon">
          -636 -25 227 383 23 callsubr
          vstem
          242 585 rmoveto
          -74 callgsubr
          -68 43 -48 69 hvcurveto
          -112 -494 rmoveto
          -68 43 -48 69 -74 callgsubr
          vhcurveto
          endchar
        </CharString>
        <CharString name="comma">
          -713 -248 -21 454 -20 hstem
          217 100 vstem
          104 99 rmoveto
          -40 12 -13 49 -38 vhcurveto
          -34 callgsubr
        </CharString>
        <CharString name="commaaccent">
          -779 -513 -21 411 -20 hstem
          168 99 vstem
          80 -209 23 callgsubr
          -72 callgsubr
          -13 callsubr
        </CharString>
        <CharString name="copyright">
          456 -25 72 202 73 686 64 220 73 hstem
          80 79 213 159 887 84 vstem
          -14 callsubr
          -397 -309 -302 -393 vhcurveto
          79 19 rmoveto
          323 254 280 13 callsubr
          -317 -314 232 410 vhcurveto
          213 -34 rmoveto
          -229 177 -177 293 110 107 33 73 77 vhcurveto
          27 26 8 15 12 vvcurveto
          47 -18 37 -12 -3 -4 -2 -10 -6 vhcurveto
          -124 -73 -93 -34 -95 hhcurveto
          -190 -146 177 191 192 112 126 184 67 68 -19 -28 49 hvcurveto
          35 -21 26 -45 11 -32 rrcurveto
          -20 7 7 -8 12 hhcurveto
          14 10 11 27 26 -2 37 -4 31 hvcurveto
          -5 43 -9 8 -24 10 rrcurveto
          24 -61 -102 20 -87 hhcurveto
          -275 -192 -174 -243 hvcurveto
          endchar
        </CharString>
        <CharString name="currency">
          -23 207 -21 58 91 643 92 61 -20 hstem
          145 102 605 102 vstem
          128 192 rmoveto
          -3 3 5 -3 4 hhcurveto
          5 5 3 7 7 hvcurveto
          133 133 rlineto
          -54 67 86 -31 98 hhcurveto
          104 91 33 58 71 hvcurveto
          139 -139 rlineto
          -7 7 5 -3 5 hhcurveto
          4 5 3 3 3 hvcurveto
          17 17 11 25 16 vvcurveto
          5 -4 8 -6 6 vhcurveto
          -127 126 rlineto
          56 71 32 91 102 vvcurveto
          101 -32 91 -55 71 vhcurveto
          126 126 rlineto
          6 6 4 8 5 vvcurveto
          16 -11 25 -17 17 vhcurveto
          3 -3 -5 3 -4 hhcurveto
          -5 -5 -3 -7 -7 hvcurveto
          -139 -139 rlineto
          55 -68 -88 33 -102 hhcurveto
          -97 -87 -34 -55 -68 hvcurveto
          -140 140 rlineto
          7 -7 -5 3 -5 hhcurveto
          -4 -5 -3 -3 -3 hvcurveto
          -17 -17 -11 -25 -16 vvcurveto
          -5 4 -8 6 -6 vhcurveto
          127 -127 rlineto
          -58 -71 -34 -91 -97 vvcurveto
          -108 31 -93 55 -71 vhcurveto
          -121 -121 rlineto
          -6 -6 -4 -8 -5 vvcurveto
          -16 11 -25 17 -17 vhcurveto
          421 143 rmoveto
          -180 -122 138 188 180 108 137 194 162 141 -117 -203 -229 -151 -94 -152 hvcurveto
          endchar
        </CharString>
        <CharString name="d">
          -25 -25 125 -122 -21 911 75 487 -20 hstemhm
          81 167 524 155 hintmask 10111100
          81 452 rmoveto
          -259 149 -218 282 103 100 29 85 78 vhcurveto
          5 -18 6 -18 7 -15 rrcurveto
          hintmask 01111100
          -66 29 25 -15 28 hhcurveto
          19 17 16 14 15 hvcurveto
          18 16 31 21 36 14 rrcurveto
          43 17 14 13 19 vvcurveto
          14 -12 12 -17 -11 -8 -3 -3 -9 vhcurveto
          hintmask 10111100
          -4 -12 -9 -3 -11 hhcurveto
          -48 -22 45 148 hvcurveto
          819 vlineto
          141 4 64 -93 callsubr
          -15 -4 -21 -37 vhcurveto
          -43 -24 -69 -22 -72 -14 rrcurveto
          -44 -9 -5 -12 -65 callsubr
          -44 -67 vvcurveto
          -211 vlineto
          34 -59 -73 16 -89 hhcurveto
          -269 -201 -220 -271 hvcurveto
          167 55 rmoveto
          234 116 127 156 109 88 -50 -74 55 vhcurveto
          -486 vlineto
          -28 1 -29 4 -29 vhcurveto
          -68 -51 -69 -26 -83 hhcurveto
          -165 -161 155 274 hvcurveto
          endchar
        </CharString>
        <CharString name="dagger">
          -241 21 -21 1063 85 445 -20 hstem
          392 100 vstem
          404 hmoveto
          76 hlineto
          24 1063 rlineto
          206 85 -207 30 callgsubr
          205 hlineto
          endchar
        </CharString>
        <CharString name="daggerdbl">
          -241 21 -21 534 85 444 85 445 -20 hstem
          390 102 vstem
          405 hmoveto
          75 hlineto
          25 534 rlineto
          205 85 -206 hlineto
          -14 199 12 245 rlineto
          207 85 -206 30 callgsubr
          206 hlineto
          13 -245 -14 -199 rlineto
          -205 -85 204 hlineto
          endchar
        </CharString>
        <CharString name="degree">
          -606 998 79 211 77 hstem
          70 89 206 85 vstem
          256 998 rmoveto
          109 85 79 107 104 -74 77 -112 -104 -90 -80 -99 -114 83 -74 103 hvcurveto
          10 79 rmoveto
          -67 -40 47 60 62 47 42 58 55 46 -43 -62 -75 -52 -31 -47 hvcurveto
          endchar
        </CharString>
        <CharString name="dieresis">
          -407 1111 200 hstem
          80 6 callsubr
          vstem
          533 1111 rmoveto
          -105 callgsubr
          -352 hmoveto
          -105 callgsubr
          endchar
        </CharString>
        <CharString name="dieresis.cap">
          -289 1542 200 hstem
          90 40 callgsubr
          vstem
          641 1542 rmoveto
          -105 callgsubr
          -450 hmoveto
          -105 callgsubr
          endchar
        </CharString>
        <CharString name="divide">
          -231 251 151 152 85 162 151 hstem
          373 153 vstem
          447 801 rmoveto
          38 callgsubr
          -47 28 -31 46 hvcurveto
          -367 -247 rmoveto
          735 85 -735 hlineto
          293 -310 rmoveto
          -47 28 -31 46 38 callgsubr
          vhcurveto
          endchar
        </CharString>
        <CharString name="dollar">
          -107 -171 -21 167 81 1235 74 159 -20 7 callsubr
          39 -14 55 -18 64 -10 -15 -124 rcurveline
          27 callsubr
          15 126 rlineto
          17 hlineto
          12 callgsubr
          -112 74 61 494 42 -10 37 -16 21 -21 rlinecurve
          -41 callgsubr
          -19 6 -21 5 -23 4 14 114 22 callgsubr
          -15 -118 rlineto
          -4 hlineto
          27 callgsubr
          43 -37 37 -26 42 -28 -64 -522 rcurveline
          -46 21 -39 31 -27 29 -18 callsubr
          320 719 rmoveto
          -19 12 -15 12 -11 9 30 callsubr
          vhcurveto
          10 hlineto
          -70 -1233 rmoveto
          61 498 64 -42 rlineto
          33 callsubr
          -12 -12 1 1 -11 vhcurveto
          endchar
        </CharString>
        <CharString name="dotaccentcmb">
          -636 -25 23 callsubr
          vstem
          130 91 rmoveto
          -68 43 -48 69 -74 callgsubr
          vhcurveto
          endchar
        </CharString>
        <CharString name="dotlessi">
          -27 callsubr
          hstemhm
          232 154 hintmask 10110000
          67 22 -58 callgsubr
          hintmask 01110000
          -21 callgsubr
          hintmask 10110000
          -103 callgsubr
          -67 -86 callsubr
          -89 callsubr
        </CharString>
        <CharString name="dotlessj">
          -564 45 callgsubr
          hstemhm
          207 158 hintmask 10110000
          207 -46 rmoveto
          -273 -64 -89 -99 -40 -29 13 67 -46 vhcurveto
          hintmask 01110000
          -66 callgsubr
        </CharString>
        <CharString name="e">
          5 callgsubr
          -4 callgsubr
          81 457 -106 callsubr
        </CharString>
        <CharString name="eacute">
          5 callgsubr
          400 -20 -4 callgsubr
          335 -101 callgsubr
          -254 -633 -106 callsubr
        </CharString>
        <CharString name="ecircumflex">
          5 callgsubr
          406 -20 -4 callgsubr
          297 -102 callsubr
          -216 -625 -106 callsubr
        </CharString>
        <CharString name="edieresis">
          5 callgsubr
          166 200 hstemhm
          81 173 -38 6 callsubr
          -20 159 hintmask 11101100
          669 1111 rmoveto
          -105 callgsubr
          -352 hmoveto
          -105 callgsubr
          hintmask 11110010
          -236 -654 -106 callsubr
        </CharString>
        <CharString name="egrave">
          5 callgsubr
          400 -20 -4 callgsubr
          588 1113 rmoveto
          -90 callsubr
          -228 -764 -106 callsubr
        </CharString>
        <CharString name="eight">
          5 -25 80 1230 80 hstemhm
          80 117 32 151 419 109 -11 162 hintmask 11110100
          80 409 rmoveto
          -230 194 -204 289 295 201 202 233 190 -108 122 -213 102 vhcurveto
          hintmask 11111000
          88 45 82 99 119 vvcurveto
          138 -103 140 -223 -223 -130 -143 -146 -97 59 -75 89 -65 vhcurveto
          -170 -76 -127 -159 -195 vvcurveto
          575 454 rmoveto
          -213 107 -62 85 76 vvcurveto
          88 77 66 120 140 82 -87 -125 -92 -54 -75 -90 -43 vhcurveto
          -458 -425 rmoveto
          145 64 137 186 72 vhcurveto
          41 -25 44 -24 46 -23 rrcurveto
          hintmask 11110100
          242 -125 77 -98 -155 vvcurveto
          -178 -160 -109 -161 -216 -163 144 239 vhcurveto
          endchar
        </CharString>
        <CharString name="ellipsis">
          344 -25 23 callsubr
          260 230 260 230 cntrmask 01110000
          1110 91 rmoveto
          -68 43 -48 69 -74 callgsubr
          vhcurveto
          -490 hmoveto
          -68 43 -48 69 -74 callgsubr
          vhcurveto
          -490 hmoveto
          -68 43 -48 69 -74 callgsubr
          vhcurveto
          endchar
        </CharString>
        <CharString name="emdash">
          216 35 callsubr
          1125 hlineto
          -45 callsubr
          -1126 hlineto
          -44 callgsubr
          endchar
        </CharString>
        <CharString name="endash">
          -163 35 callsubr
          746 hlineto
          -45 callsubr
          -747 hlineto
          -44 callgsubr
          endchar
        </CharString>
        <CharString name="equal">
          -249 438 85 145 85 hstem
          80 668 rmoveto
          717 85 -717 hlineto
          -315 vmoveto
          717 85 -717 hlineto
          endchar
        </CharString>
        <CharString name="eth">
          -19 -25 70 767 71 547 -20 hstem
          80 179 602 163 vstem
          80 438 rmoveto
          -247 184 -216 286 305 169 214 317 250 -92 241 -159 178 vhcurveto
          148 60 rlineto
          39 13 9 6 13 vvcurveto
          9 -8 15 -14 17 vhcurveto
          19 -15 -14 11 -12 hhcurveto
          -5 -11 -2 -10 -25 hvcurveto
          -165 -77 -69 62 -80 52 -87 38 rlinecurve
          22 -55 -19 7 -20 hhcurveto
          -17 -42 -21 -12 -7 10 -5 60 -27 hvcurveto
          74 -33 77 -55 70 -69 -170 -78 rcurveline
          -40 -16 -3 -3 -7 vvcurveto
          -5 5 -9 12 -12 vhcurveto
          -15 15 9 -4 7 hhcurveto
          10 4 1 9 26 hvcurveto
          189 70 87 -103 68 -123 22 -123 rlinecurve
          58 -74 -106 42 -116 hhcurveto
          -271 -196 -183 -262 hvcurveto
          179 37 rmoveto
          222 130 115 151 181 140 -138 -290 -184 -106 -155 -166 -177 -153 180 250 vhcurveto
          endchar
        </CharString>
        <CharString name="exclam">
          -608 -25 200 1190 -20 hstemhm
          170 203 -138 66 hintmask 11010000
          270 310 rmoveto
          15 15 10 35 1 hvcurveto
          11 351 18 170 47 459 rrcurveto
          20 2 -6 10 -22 hhcurveto
          -16 -29 -7 -11 -41 hvcurveto
          -73 -19 -36 -17 5 -38 39 -298 31 -305 4 -315 rrcurveto
          -31 17 -14 18 vhcurveto
          hintmask 11100000
          -100 -233 9 callgsubr
        </CharString>
        <CharString name="exclamdown">
          -608 -154 -21 1190 200 hstemhm
          154 203 -138 66 hintmask 11100000
          258 1015 rmoveto
          60 39 42 57 55 -40 46 -64 -61 -38 -42 -60 -58 50 -40 54 hvcurveto
          -113 -1098 rmoveto
          -5 -38 36 -17 73 -19 rrcurveto
          -11 41 29 -7 16 hhcurveto
          22 6 10 20 -2 hvcurveto
          hintmask 11010000
          -47 459 -18 170 -11 351 rrcurveto
          35 -1 -15 10 -15 hhcurveto
          -18 -17 -14 -31 hvcurveto
          -4 -315 -31 -305 -39 -298 rrcurveto
          endchar
        </CharString>
        <CharString name="f">
          -430 43 callsubr
          488 16 callgsubr
          hintmask 10111000
          90 6 callgsubr
          vhcurveto
          hintmask 01111000
          45 57 15 68 hhcurveto
          hintmask 10110100
          -25 callgsubr
          hintmask 10111000
          -88 callgsubr
          endchar
        </CharString>
        <CharString name="fi">
          155 43 callsubr
          24 -20 216 200 68 16 callgsubr
          268 187 -157 157 hintmask 1011111010000000
          90 6 callgsubr
          vhcurveto
          hintmask 0111111010000000
          45 57 15 68 hhcurveto
          hintmask 1011110110000000
          -25 callgsubr
          hintmask 1011111010000000
          -88 callgsubr
          909 1118 rmoveto
          -105 callgsubr
          -236 -1118 -58 callgsubr
          hintmask 0111111010000000
          3 30 31 -46 callsubr
          hintmask 1011111010000000
          -103 callgsubr
          -70 -86 callsubr
          hintmask 1011111001000000
          -89 callsubr
        </CharString>
        <CharString name="five">
          13 -25 80 779 144 216 146 19 -20 hstemhm
          892 157 hintmask 11011000
          145 66 rmoveto
          -51 71 105 -40 144 hhcurveto
          284 300 215 318 291 -217 179 -301 -48 -66 -6 -13 -57 hvcurveto
          38 242 387 -13 45 -1 14 9 8 25 rlinecurve
          15 48 7 34 16 vvcurveto
          28 -6 12 -12 -6 -8 -3 -4 -10 vhcurveto
          hintmask 11101000
          -8 -19 -46 -4 -104 hhcurveto
          -69 -65 1 3 -46 hvcurveto
          2 -27 -44 2 -35 hhcurveto
          -41 -4 -24 -47 -7 hvcurveto
          -67 -438 rlineto
          -3 -19 -2 -13 -10 vvcurveto
          -18 7 -6 11 10 5 3 11 13 vhcurveto
          11 9 15 9 22 7 rrcurveto
          10 30 43 12 81 hhcurveto
          248 143 -169 -216 -244 -183 -150 -244 -145 -118 66 107 -53 hvcurveto
          41 -20 -7 10 -12 hhcurveto
          -28 -32 -59 -30 -35 39 -49 56 -40 hvcurveto
          endchar
        </CharString>
        <CharString name="fl">
          160 43 callsubr
          469 -20 39 16 callgsubr
          286 155 hintmask 10111101
          90 6 callgsubr
          vhcurveto
          hintmask 01111101
          45 57 15 68 hhcurveto
          hintmask 10111011
          -25 callgsubr
          hintmask 10111101
          -88 callgsubr
          662 hmoveto
          -58 callsubr
          hintmask 01111101
          -79 callsubr
          hintmask 10111101
          -83 callgsubr
          -62 -15 29 242 hvcurveto
          753 -96 callgsubr
          -49 -93 callgsubr
          5 40 callsubr
          8 -45 -67 vvcurveto
          -745 -84 callsubr
          endchar
        </CharString>
        <CharString name="foundryicon">
          1525 -109 374 1061 201 hstem
          536 463 121 372 vstem
          565 491 rmoveto
          -346 96 316 -254 377 hhcurveto
          452 366 366 452 452 -366 366 -452 -452 -366 -366 -452 -75 10 -73 19 -70 hvcurveto
          261 -180 rmoveto
          -13 10 -8 11 -3 13 rrcurveto
          28 18 84 5 22 vhcurveto
          16 11 77 0 11 -7 5 -27 0 -14 11 -29 16 -41 140 -73 86 56 13 28 -5 32 -8 20 -40 94 -233 57 -66 124 -21 40 -13 70 35 61 24 43 61 46 49 19 rrcurveto
          13 3 14 5 13 3 rrcurveto
          -16 20 -8 20 21 vvcurveto
          120 241 133 244 12 vhcurveto
          169 8 5 -137 -3 -116 rrcurveto
          -1 -7 0 -6 -5 vvcurveto
          -16 vlineto
          1 -1 rlineto
          -62 vlineto
          223 9 rlineto
          11 2 -9 -12 -28 -17 -63 -11 -3 hvcurveto
          -208 hlineto
          -47 -1 -56 -56 vvcurveto
          -216 vlineto
          -103 34 -33 53 -3 vhcurveto
          51 -3 70 16 29 8 17 3 8 -38 -6 -9 rrcurveto
          -27 -46 -88 -49 -107 hhcurveto
          -93 -90 33 148 hvcurveto
          13 433 -100 1 rlineto
          -18 1 30 19 16 hvcurveto
          3 3 52 24 48 29 8 197 47 112 -128 -5 -118 -5 -198 -80 8 -100 5 -69 90 -40 59 -24 7 -3 5 0 4 -3 6 -3 rcurveline
          3 -31 -17 -102 -8 -19 -8 -5 -61 -4 -17 8 -7 8 -5 28 -9 32 -13 35 -111 64 -78 -54 -11 -19 -3 -34 7 -19 27 -86 211 -64 87 -99 44 -49 9 -57 -15 -59 rrcurveto
          -19 -49 -54 -59 -51 -27 -63 -37 -84 -6 -52 3 -64 2 -71 19 -37 29 rrcurveto
          endchar
        </CharString>
        <CharString name="four">
          18 -57 callsubr
          481 126 778 -20 hstemhm
          587 153 hintmask 10111000
          404 22 -90 callgsubr
          hintmask 01111000
          5 37 28 1 49 hhcurveto
          24 40 -1 -7 41 hvcurveto
          hintmask 10111000
          -72 callsubr
          -104 callgsubr
          -86 -12 88 183 hvcurveto
          164 225 vlineto
          42 9 7 28 14 hvcurveto
          14 29 12 16 15 17 rrcurveto
          12 14 6 10 13 vvcurveto
          11 -7 10 -15 -7 -14 -5 -6 -13 vhcurveto
          -10 -25 -49 -8 -84 hhcurveto
          -135 286 hlineto
          177 4 124 4 51 vhcurveto
          3 46 3 36 38 vvcurveto
          11 -8 9 -10 -10 -9 -5 -53 -42 vhcurveto
          -596 -777 rlineto
          -12 -15 -17 -24 -15 vvcurveto
          -13 9 -11 20 64 72 1 4 90 vhcurveto
          3 75 76 1 88 hhcurveto
          43 -164 hlineto
          -183 -13 -88 -85 -85 callgsubr
          -180 585 rmoveto
          363 484 rlineto
          -484 vlineto
          endchar
        </CharString>
        <CharString name="g">
          -88 -477 98 674 69 511 68 16 163 hstemhm
          73 152 -86 169 413 172 -172 341 -179 135 hintmask 1111100010000000
          73 -185 rmoveto
          -170 188 -122 266 267 224 154 183 165 -131 101 -357 41 vhcurveto
          -212 25 -28 32 31 vvcurveto
          12 17 21 41 34 vhcurveto
          -18 46 53 -9 61 hhcurveto
          hintmask 1111101000000000
          222 163 148 176 114 -64 94 -93 57 hvcurveto
          7 23 9 21 11 19 rrcurveto
          38 23 42 24 25 hhcurveto
          28 20 -9 -14 17 hvcurveto
          -21 26 21 -6 16 hhcurveto
          hintmask 1111010100000000
          43 38 29 36 51 -53 47 -72 -86 -114 -63 -143 -65 hvcurveto
          17 -46 -51 10 -51 hhcurveto
          -235 -148 -147 -174 -2 hvcurveto
          -2 -105 51 -102 97 -62 rrcurveto
          -94 -79 -48 -56 -33 vvcurveto
          -48 29 -42 115 -35 vhcurveto
          hintmask 1111101000000000
          -133 -52 -81 -80 -113 vvcurveto
          471 549 rmoveto
          hintmask 1111011000000000
          -122 -114 105 189 133 81 84 103 143 86 -106 -177 -155 -77 -73 -100 hvcurveto
          hintmask 1111100010000000
          -319 -516 rmoveto
          74 35 76 107 42 vhcurveto
          47 -10 56 -9 68 -8 rrcurveto
          276 -34 69 -65 -106 vvcurveto
          -140 -116 -47 -189 -214 -139 113 114 vhcurveto
          endchar
        </CharString>
        <CharString name="germandbls">
          83 -15 58 -58 196 -185 -21 39 -21 28 -21 839 81 441 69 hstemhm
          73 306 -155 155 386 155 41 168 hintmask 1000011101100000
          60 6 callgsubr
          vhcurveto
          hintmask 0001011101100000
          10 callgsubr
          hvcurveto
          hintmask 0010111101100000
          3 30 32 4 35 hhcurveto
          hintmask 0001011101100000
          22 31 -7 22 hhcurveto
          15 17 8 23 -4 hvcurveto
          -12 65 -19 7 221 vvcurveto
          718 vlineto
          238 52 88 124 119 90 -92 -177 1 vhcurveto
          1 -151 -80 -97 -131 -14 rrcurveto
          -46 4 -22 -17 -25 vvcurveto
          -27 24 -17 46 8 vhcurveto
          248 -15 156 -140 -289 vvcurveto
          -20 -1 -20 -1 -21 vhcurveto
          hintmask 1000011101100000
          -141 -10 -66 -67 -91 hhcurveto
          -59 -56 43 48 -19 hvcurveto
          hintmask 0100011101100000
          43 -17 -17 4 -18 hhcurveto
          -36 -52 -44 -36 hvcurveto
          hintmask 0010111011100000
          -62 100 -64 141 236 134 169 202 222 -192 206 -249 35 vhcurveto
          164 70 68 126 138 vvcurveto
          150 -118 137 -205 vhcurveto
          -226 -1 -147 -147 -282 vvcurveto
          -80 -118 vlineto
          hintmask 1000011101100000
          -21 -12 -34 -26 -11 4 -8 13 hvcurveto
          hintmask 1000011011100000
          134 -3 rlineto
          -521 vlineto
          -28 callsubr
          25 callgsubr
          vhcurveto
          1 -7 -60 callgsubr
        </CharString>
        <CharString name="grave">
          -569 1111 -21 255 -20 hstem
          371 1113 rmoveto
          -90 callsubr
          endchar
        </CharString>
        <CharString name="grave.cap">
          -524 1527 -21 255 -20 hstem
          424 1526 rmoveto
          -89 callgsubr
          endchar
        </CharString>
        <CharString name="greater">
          -224 6 -21 1100 -20 hstem
          130 59 rmoveto
          -23 1 -51 22 9 5 2 17 20 vhcurveto
          626 485 rlineto
          10 9 14 14 23 vvcurveto
          23 -14 14 -10 9 vhcurveto
          -626 485 rlineto
          17 -20 -5 2 -9 hhcurveto
          -22 -1 -51 -23 -9 6 -11 15 -13 hvcurveto
          563 -443 -563 -443 rlineto
          -15 -13 -6 -11 -9 vvcurveto
          endchar
        </CharString>
        <CharString name="guillemotleft">
          -190 24 callgsubr
          490 445 rmoveto
          31 callgsubr
          -78 callsubr
          -105 -240 rmoveto
          -78 callsubr
          31 callgsubr
          endchar
        </CharString>
        <CharString name="guillemotright">
          -190 24 callgsubr
          475 178 rmoveto
          -12 8 -12 11 19 5 8 43 33 vhcurveto
          -76 callgsubr
          -331 -24 rmoveto
          19 5 8 43 33 hvcurveto
          -76 callgsubr
          -12 8 -12 11 vhcurveto
          endchar
        </CharString>
        <CharString name="guilsinglleft">
          -540 24 callgsubr
          385 205 rmoveto
          -78 callsubr
          31 callgsubr
          endchar
        </CharString>
        <CharString name="guilsinglright">
          -540 24 callgsubr
          144 154 rmoveto
          19 5 8 43 33 hvcurveto
          -76 callgsubr
          -12 8 -12 11 vhcurveto
          endchar
        </CharString>
        <CharString name="h">
          89 -57 callsubr
          830 113 487 -20 hstemhm
          232 155 482 155 hintmask 10111100
          68 -48 callgsubr
          225 vlineto
          201 35 119 87 118 hhcurveto
          129 81 -83 -86 callgsubr
          240 -112 110 -194 -130 -129 -81 -141 -72 vhcurveto
          390 vlineto
          141 4 65 10 40 vhcurveto
          5 20 8 16 14 vvcurveto
          -48 callsubr
          25 40 callsubr
          8 -45 -67 vvcurveto
          -786 -84 callsubr
          endchar
        </CharString>
        <CharString name="hbar">
          89 -57 callsubr
          830 113 94 89 304 -20 hstemhm
          93 294 -155 155 482 155 hintmask 10111101
          68 -56 callgsubr
          hintmask 01111101
          -79 callsubr
          hintmask 10111101
          -83 callgsubr
          -62 -15 29 242 hvcurveto
          225 vlineto
          201 35 119 87 118 hhcurveto
          129 81 -83 -202 hvcurveto
          -228 vlineto
          -242 -16 -29 -62 -11 -7 10 callsubr
          -7 -8 -74 callsubr
          -45 callgsubr
          hvcurveto
          hintmask 01111101
          -51 callsubr
          hintmask 10111101
          -4 31 25 -4 27 hhcurveto
          50 17 -81 callgsubr
          -6 -7 -50 callgsubr
          240 -112 110 -194 -130 -129 -81 -141 -72 vhcurveto
          316 173 vlineto
          11 7 5 12 6 hvcurveto
          11 21 6 20 19 vvcurveto
          10 -5 8 -18 vhcurveto
          -191 -12 rlineto
          134 4 64 10 39 vhcurveto
          5 20 8 16 14 vvcurveto
          -48 callsubr
          25 -18 callgsubr
          hintmask 10111011
          13 -25 8 -43 1 -63 -101 -6 rcurveline
          -16 -1 -18 -36 -15 vvcurveto
          -10 3 -5 18 vhcurveto
          114 -720 hlineto
          -83 callsubr
          endchar
        </CharString>
        <CharString name="hyphen">
          -439 35 callsubr
          470 hlineto
          -45 callsubr
          -471 hlineto
          -44 callgsubr
          endchar
        </CharString>
        <CharString name="i">
          -541 -57 callsubr
          944 -20 216 200 hstemhm
          202 187 -157 157 hintmask 10111000
          303 1140 rmoveto
          -105 callgsubr
          -236 -1118 -58 callgsubr
          hintmask 01111000
          3 30 31 -46 callsubr
          hintmask 10111000
          -103 callgsubr
          -70 -86 callsubr
          hintmask 10110100
          -89 callsubr
        </CharString>
        <CharString name="iacute">
          -27 callsubr
          421 -20 hstemhm
          232 154 hintmask 10111000
          149 -101 callgsubr
          -82 -1068 -58 callgsubr
          hintmask 01111000
          -21 callgsubr
          hintmask 10111000
          -103 callgsubr
          -67 -86 callsubr
          -89 callsubr
        </CharString>
        <CharString name="icircumflex">
          -27 callsubr
          427 -20 hstemhm
          76 310 -154 154 -154 319 hintmask 10111000
          111 -102 callsubr
          -44 -1060 -58 callgsubr
          hintmask 01111000
          -21 callgsubr
          hintmask 10110010
          -73 callgsubr
          -15 11 -22 19 callgsubr
          -8 -8 callgsubr
          -11 hhcurveto
          hintmask 10111000
          -62 -16 29 242 hvcurveto
          309 vlineto
          141 4 64 11 -8 callsubr
          7 -5 callsubr
          -9 10 -14 -13 -17 -4 -21 -37 vhcurveto
          -43 -24 -67 -86 callsubr
          hintmask 10110100
          -89 callsubr
        </CharString>
        <CharString name="idieresis">
          -27 callsubr
          187 200 hstemhm
          30 207 -5 154 -4 207 hintmask 10111010
          483 1111 rmoveto
          -105 callgsubr
          -352 hmoveto
          -105 callgsubr
          -64 -1089 -58 callgsubr
          hintmask 01111010
          -21 callgsubr
          hintmask 10110100
          -103 callgsubr
          -67 -86 callsubr
          -89 callsubr
        </CharString>
        <CharString name="igrave">
          -27 callsubr
          421 -20 hstemhm
          104 282 -154 154 hintmask 10111000
          402 1113 rmoveto
          -90 callsubr
          -56 -1199 -58 callgsubr
          hintmask 01111000
          -21 callgsubr
          hintmask 10111000
          -103 callgsubr
          -67 -86 callsubr
          hintmask 10110100
          14 -26 4 -44 -67 vvcurveto
          -301 vlineto
          -242 -16 -29 -62 -11 -7 -19 callsubr
          hintmask 10111000
          1 -8 -60 callgsubr
        </CharString>
        <CharString name="ij">
          -29 -520 72 -72 193 312 -32 callsubr
          944 -20 216 200 hstemhm
          202 187 -157 157 336 192 -158 158 hintmask 1010111010000000
          826 1140 rmoveto
          -105 callgsubr
          -523 hmoveto
          -105 callgsubr
          44 -1531 rmoveto
          -76 108 -53 113 221 128 179 328 vhcurveto
          -63 callsubr
          -82 20 callgsubr
          -45 -9 -4 -12 -26 callsubr
          16 -10 34 -5 vhcurveto
          28 -4 41 -11 12 -23 rrcurveto
          hintmask 1010111001000000
          14 -26 3 -44 -67 vvcurveto
          -664 vlineto
          -273 -54 -129 -99 -40 -9 -7 67 -46 vhcurveto
          hintmask 0110111010000000
          -11 callgsubr
          hvcurveto
          -280 413 -58 callgsubr
          hintmask 1001111010000000
          3 30 31 -46 callsubr
          hintmask 1010111010000000
          -103 callgsubr
          -70 -86 callsubr
          hintmask 1010110110000000
          -89 callsubr
        </CharString>
        <CharString name="itilde">
          -27 callsubr
          182 41 callsubr
          232 154 hintmask 10111100
          81 -97 callsubr
          -14 -1084 -58 callgsubr
          hintmask 01111100
          -21 callgsubr
          hintmask 10111100
          -103 callgsubr
          -67 -86 callsubr
          -89 callsubr
        </CharString>
        <CharString name="j">
          -556 -520 72 -72 193 1271 -20 216 200 hstemhm
          198 192 -158 158 hintmask 10111000
          299 1140 rmoveto
          -105 callgsubr
          hintmask 10110100
          -67 -1186 rmoveto
          -273 -54 -129 -99 -40 -9 -7 67 -46 vhcurveto
          hintmask 01111000
          -11 callgsubr
          -76 108 -53 113 221 128 179 328 hvcurveto
          -63 callsubr
          -82 20 callgsubr
          -45 -9 -4 -12 -26 callsubr
          16 -10 34 -5 vhcurveto
          28 -4 41 -11 12 -23 rrcurveto
          hintmask 10110100
          14 -26 3 -44 -67 vvcurveto
          endchar
        </CharString>
        <CharString name="jcircumflex">
          -556 45 callgsubr
          427 -20 hstemhm
          232 158 hintmask 10111000
          108 -102 callsubr
          124 -1128 rmoveto
          -273 -64 -89 -99 -40 -29 13 67 -46 vhcurveto
          hintmask 01111000
          -66 callgsubr
        </CharString>
        <CharString name="k">
          -29 -15 26 callgsubr
          hintmask 10011100
          50 -49 callsubr
          98 vlineto
          80 71 287 -437 rlineto
          -54 42 10 -10 -31 callgsubr
          -53 5 66 -43 hvcurveto
          -315 473 202 177 86 75 49 22 49 6 rlinecurve
          40 4 15 8 19 vvcurveto
          16 -16 13 -49 -20 -19 -2 -2 -23 vhcurveto
          -3 -28 -33 -3 -47 hhcurveto
          -22 -20 2 2 -17 hvcurveto
          3 -21 -18 3 -18 hhcurveto
          -28 -16 -10 -15 -15 9 -9 19 -7 hvcurveto
          27 -10 22 -10 -20 vvcurveto
          -12 -6 -9 -20 -19 vhcurveto
          -300 -286 rlineto
          598 vlineto
          141 4 65 10 40 vhcurveto
          5 20 8 16 14 vvcurveto
          -48 callsubr
          25 40 callsubr
          8 -45 -67 vvcurveto
          -786 -84 callsubr
          endchar
        </CharString>
        <CharString name="kcommaaccent">
          -29 36 callgsubr
          26 callgsubr
          174 99 hintmask 1100111110000000
          50 -56 callgsubr
          -79 callsubr
          -4 32 4 -4 28 hhcurveto
          50 16 14 23 hvcurveto
          hintmask 1010011110000000
          18 -13 11 -23 -7 -7 -1 -1 -6 vhcurveto
          -1 -7 -7 -2 -16 hhcurveto
          -44 -14 39 232 hvcurveto
          98 vlineto
          80 71 287 -437 rlineto
          -54 42 10 -10 33 hhcurveto
          17 14 3 3 14 hvcurveto
          hintmask 1101011110000000
          3 12 11 2 13 hhcurveto
          27 19 -3 -3 16 hvcurveto
          -3 16 23 -2 15 hhcurveto
          41 18 14 20 hvcurveto
          hintmask 1010011110000000
          18 -20 14 -37 -37 -53 5 66 -43 vhcurveto
          -315 473 202 177 86 75 49 22 49 6 rlinecurve
          40 4 15 8 19 vvcurveto
          16 -16 13 -49 -20 -19 -2 -2 -23 vhcurveto
          -3 -28 -33 -3 -47 hhcurveto
          -22 -20 2 2 -17 hvcurveto
          3 -21 -18 3 -18 hhcurveto
          -28 -16 -10 -15 -15 9 -9 19 -7 hvcurveto
          27 -10 22 -10 -20 vvcurveto
          -12 -6 -9 -20 -19 vhcurveto
          -300 -286 rlineto
          598 vlineto
          141 4 65 10 40 vhcurveto
          5 20 8 16 14 vvcurveto
          -48 callsubr
          25 40 callsubr
          8 -45 -67 vvcurveto
          -786 -84 callsubr
          405 -231 23 callgsubr
          -72 callgsubr
          hintmask 1100111110000000
          -13 callsubr
        </CharString>
        <CharString name="kgreenlandic">
          13 -15 66 -34 -21 25 -21 935 -20 49 -20 hstemhm
          215 155 hintmask 10011100
          51 -49 callsubr
          61 vlineto
          81 72 296 -401 rlineto
          -55 41 11 -9 -31 callgsubr
          -49 12 63 -47 hvcurveto
          -324 433 241 213 85 76 50 21 49 6 rlinecurve
          40 4 15 8 19 vvcurveto
          16 -16 13 -49 -20 -19 -2 -2 -23 vhcurveto
          -3 -28 -33 -3 -47 hhcurveto
          -22 -20 2 2 -17 hvcurveto
          3 -21 -18 3 -18 hhcurveto
          -28 -16 -10 -15 -15 9 -9 19 -7 hvcurveto
          27 -10 22 -10 -20 vvcurveto
          -20 -9 -16 -29 -26 vhcurveto
          -328 -302 rlineto
          170 vlineto
          141 4 65 10 40 vhcurveto
          5 20 8 16 14 vvcurveto
          -48 callsubr
          25 40 callsubr
          8 -45 -67 vvcurveto
          -320 -84 callsubr
          endchar
        </CharString>
        <CharString name="l">
          -536 -57 callsubr
          1389 -20 hstemhm
          220 155 -16 callsubr
          hintmask 10110000
          -83 callgsubr
          -62 -15 29 242 hvcurveto
          753 -96 callgsubr
          -49 -93 callgsubr
          5 40 callsubr
          8 -45 -67 vvcurveto
          -745 -84 callsubr
          endchar
        </CharString>
        <CharString name="ldot">
          -331 -57 callsubr
          617 227 545 -20 hstemhm
          220 155 190 230 hintmask 10111100
          56 -48 callgsubr
          753 -96 callgsubr
          -49 -93 callgsubr
          5 40 callsubr
          8 -45 -67 vvcurveto
          -745 -84 callsubr
          621 595 rmoveto
          -74 callgsubr
          -68 43 -48 69 hvcurveto
          endchar
        </CharString>
        <CharString name="less">
          -224 6 -21 1100 -20 hstem
          89 489 rmoveto
          626 -485 rlineto
          -17 20 5 -2 9 hhcurveto
          22 1 51 23 9 -6 11 -15 13 hvcurveto
          -563 443 563 443 rlineto
          15 13 6 11 9 vvcurveto
          23 -1 51 -22 -9 -5 -2 -17 -20 vhcurveto
          -626 -485 rlineto
          -10 -9 -14 -14 -23 vvcurveto
          -23 14 -14 10 -9 vhcurveto
          endchar
        </CharString>
        <CharString name="logicalnot">
          -161 329 -21 246 85 hstem
          790 85 vstem
          80 554 rmoveto
          710 -246 85 331 -795 hlineto
          endchar
        </CharString>
        <CharString name="lslash">
          -536 -57 callsubr
          1389 -20 hstemhm
          38 337 -155 155 -155 319 -16 callsubr
          hintmask 10100100
          -83 callgsubr
          hintmask 10110000
          -55 callsubr
          395 vlineto
          166 88 21 callsubr
          -120 -64 rlineto
          264 -96 callgsubr
          -49 -93 callgsubr
          5 -18 callgsubr
          hintmask 10101000
          14 -26 8 -45 -67 vvcurveto
          -338 vlineto
          -169 -89 rlineto
          hintmask 10110000
          28 callgsubr
          hintmask 10101000
          140 74 rlineto
          -314 -84 callsubr
          endchar
        </CharString>
        <CharString name="m">
          668 -57 callsubr
          827 116 hstemhm
          222 155 462 155 462 155 cntrmask 00011100
          hintmask 10111100
          58 -48 callgsubr
          277 vlineto
          147 52 102 86 103 hhcurveto
          132 73 -80 -86 callgsubr
          1 vlineto
          147 52 102 86 103 hhcurveto
          132 73 -80 -86 callgsubr
          240 -112 110 -194 -123 -128 -79 -129 -77 vhcurveto
          142 -38 -101 66 -150 hhcurveto
          -114 -118 -67 -112 -77 hvcurveto
          2 50 4 32 6 24 rrcurveto
          5 20 8 16 14 vvcurveto
          -48 callsubr
          30 -11 13 -23 -20 callsubr
          -299 -84 callsubr
          endchar
        </CharString>
        <CharString name="macron">
          -459 1154 96 hstem
          104 1154 rmoveto
          446 hlineto
          16 21 46 32 10 -5 8 -18 hvcurveto
          -447 hlineto
          -16 -21 -46 -32 -10 6 -8 18 hvcurveto
          endchar
        </CharString>
        <CharString name="mu">
          46 -459 -21 465 116 -105 -21 968 -20 hstemhm
          180 125 502 150 hintmask 11011100
          180 -75 rmoveto
          -162 21 -96 28 -61 vhcurveto
          -49 22 38 -37 33 hhcurveto
          60 57 65 67 1 hvcurveto
          21 -11 10 -26 6 vhcurveto
          -68 17 -30 49 137 vvcurveto
          45 -9 54 -5 66 vhcurveto
          -47 54 69 -25 85 hhcurveto
          115 118 64 112 77 hvcurveto
          2 -36 5 -31 10 -35 rrcurveto
          hintmask 10111100
          -69 20 20 -15 21 hhcurveto
          16 22 8 11 17 hvcurveto
          48 31 23 13 54 21 rrcurveto
          43 17 14 11 19 vvcurveto
          14 -12 12 -17 -11 -8 -3 -3 -9 vhcurveto
          -20 callgsubr
          -22 27 104 hvcurveto
          375 -92 callsubr
          -11 -70 callgsubr
          -76 -93 callgsubr
          37 -11 13 -23 -20 callsubr
          -311 vlineto
          hintmask 11011100
          -141 -52 -100 -63 -102 hhcurveto
          -134 -89 63 152 hvcurveto
          308 -96 callgsubr
          -50 -22 -85 callsubr
          15 -7 33 -6 vhcurveto
          31 -5 14 -9 15 -26 -20 callsubr
          -251 vlineto
          -17 vlineto
          endchar
        </CharString>
        <CharString name="multiply">
          -351 304 -21 615 -20 hstem
          140 283 rmoveto
          247 247 248 -247 60 60 -248 247 248 248 -60 60 -248 -248 -247 248 -60 -60 247 -248 -247 -247 rlineto
          endchar
        </CharString>
        <CharString name="n">
          29 callgsubr
          2 callgsubr
          hintmask 10110100
          55 22 9 callsubr
          hintmask 01110100
          -79 callsubr
          hintmask 10110100
          -4 32 27 -4 28 hhcurveto
          50 16 -81 callgsubr
          -5 -10 -1 -12 -36 callsubr
          261 vlineto
          189 42 124 64 108 hhcurveto
          132 76 -84 -202 hvcurveto
          -228 vlineto
          -242 -16 -29 -62 -11 -9 10 callsubr
          -7 -8 -74 callsubr
          -23 17 -14 50 27 27 -1 callsubr
          hvcurveto
          hintmask 01110100
          -51 callsubr
          hintmask 10101100
          -4 31 27 -4 27 hhcurveto
          50 17 -81 callgsubr
          -6 -9 -50 callgsubr
          240 -120 110 -194 -124 -123 -74 -127 -75 vhcurveto
          2 62 4 40 7 26 rrcurveto
          -23 callgsubr
          -75 -93 callgsubr
          36 -11 13 -23 -20 callsubr
          -299 vlineto
          -28 callsubr
          -12 -10 1 1 -5 vhcurveto
          -82 callgsubr
          hintmask 10110100
          -23 -47 callgsubr
          endchar
        </CharString>
        <CharString name="nacute">
          29 callgsubr
          402 -20 2 callgsubr
          hintmask 10111010
          458 -101 callgsubr
          -403 -1068 9 callsubr
          hintmask 01111010
          -79 callsubr
          hintmask 10111010
          -4 32 27 -4 28 hhcurveto
          50 16 -81 callgsubr
          -5 -10 -1 -12 -36 callsubr
          261 vlineto
          189 42 124 64 108 hhcurveto
          132 76 -84 -202 hvcurveto
          -228 vlineto
          -242 -16 -29 -62 -11 -9 10 callsubr
          -7 -8 -74 callsubr
          -23 17 -14 50 27 27 -1 callsubr
          hvcurveto
          hintmask 01111010
          -51 callsubr
          hintmask 10110110
          -4 31 27 -4 27 hhcurveto
          50 17 -81 callgsubr
          -6 -9 -50 callgsubr
          240 -120 110 -194 -124 -123 -74 -127 -75 vhcurveto
          2 62 4 40 7 26 rrcurveto
          -23 callgsubr
          -75 -93 callgsubr
          36 -11 13 -23 -20 callsubr
          -299 vlineto
          -28 callsubr
          -12 -10 1 1 -5 vhcurveto
          -82 callgsubr
          hintmask 10111010
          -23 -47 callgsubr
          endchar
        </CharString>
        <CharString name="nbspace">
          -686 endchar
        </CharString>
        <CharString name="nine">
          77 -25 81 346 115 767 81 hstem
          75 171 544 74 68 181 vstem
          223 96 rmoveto
          -58 128 -63 141 341 280 352 383 363 -210 292 -324 -298 -206 -255 -248 -261 208 -199 240 180 161 162 196 47 -15 24 -20 -20 -19 -17 -29 -163 -98 -105 -123 -204 -119 160 213 249 137 145 169 vhcurveto
          218 162 -233 -367 -410 -189 -218 -225 -113 -74 29 52 -36 hvcurveto
          28 -20 -2 2 -7 hhcurveto
          -23 -20 -39 -32 hvcurveto
          endchar
        </CharString>
        <CharString name="ntilde">
          29 callgsubr
          163 110 2 109 2 callgsubr
          hintmask 10111101
          390 -97 callsubr
          -335 -1084 9 callsubr
          hintmask 01111101
          -79 callsubr
          hintmask 10111101
          -4 32 27 -4 28 hhcurveto
          50 16 -81 callgsubr
          -5 -10 -1 -12 -36 callsubr
          261 vlineto
          189 42 124 64 108 hhcurveto
          132 76 -84 -202 hvcurveto
          -228 vlineto
          -242 -16 -29 -62 -11 -9 10 callsubr
          -7 -8 -74 callsubr
          -23 17 -14 50 27 27 -1 callsubr
          hvcurveto
          hintmask 01111101
          -51 callsubr
          hintmask 10111011
          -4 31 27 -4 27 hhcurveto
          50 17 -81 callgsubr
          -6 -9 -50 callgsubr
          240 -120 110 -194 -124 -123 -74 -127 -75 vhcurveto
          2 62 4 40 7 26 rrcurveto
          -23 callgsubr
          -75 -93 callgsubr
          36 -11 13 -23 -20 callsubr
          -299 vlineto
          -28 callsubr
          -12 -10 1 1 -5 vhcurveto
          -82 callgsubr
          hintmask 10111101
          -23 -47 callgsubr
          endchar
        </CharString>
        <CharString name="numbersign">
          37 21 -21 456 85 275 85 439 -20 hstem
          193 hmoveto
          91 hlineto
          114 456 rlineto
          258 hlineto
          -113 -456 rlineto
          91 hlineto
          114 456 rlineto
          204 hlineto
          20 85 rlineto
          -203 hlineto
          69 275 rlineto
          205 hlineto
          20 85 rlineto
          -203 33 callgsubr
          -257 33 callgsubr
          -206 hlineto
          -20 -85 rlineto
          205 hlineto
          -69 -275 rlineto
          -207 hlineto
          -20 -85 rlineto
          206 hlineto
          113 85 rmoveto
          69 275 rlineto
          258 hlineto
          -69 -275 rlineto
          endchar
        </CharString>
        <CharString name="o">
          7 callgsubr
          -26 callgsubr
          76 441 -99 callgsubr
        </CharString>
        <CharString name="oacute">
          7 callgsubr
          402 -20 -26 callgsubr
          413 -101 callgsubr
          -337 -649 -99 callgsubr
        </CharString>
        <CharString name="ocircumflex">
          7 callgsubr
          408 -20 -26 callgsubr
          375 -102 callsubr
          -299 -641 -99 callgsubr
        </CharString>
        <CharString name="odieresis">
          7 callgsubr
          168 200 hstem
          76 169 49 6 callsubr
          15 161 vstem
          747 1111 rmoveto
          -105 callgsubr
          -352 hmoveto
          -105 callgsubr
          -319 -670 -99 callgsubr
        </CharString>
        <CharString name="oe">
          630 -25 91 401 87 317 72 hstem
          80 172 601 174 490 159 vstem
          80 464 rmoveto
          -254 -3 154 -235 311 hhcurveto
          167 139 77 117 85 hvcurveto
          -120 77 129 -74 169 hhcurveto
          88 88 0 callgsubr
          -79 -27 -77 hhcurveto
          -207 -126 151 250 -10 hvcurveto
          202 2 346 12 46 7 rrcurveto
          37 5 18 22 65 vvcurveto
          199 -122 164 -225 -159 -141 -71 -122 -86 vhcurveto
          120 -81 -135 73 -161 hhcurveto
          -272 -211 -215 -264 -3 hvcurveto
          949 88 rmoveto
          198 18 115 121 135 hhcurveto
          125 95 42 callgsubr
          -56 -2 -44 -1 rrcurveto
          -1 -62 -86 -1 -82 hhcurveto
          -885 -36 rmoveto
          221 130 133 151 181 139 -156 -297 -251 -127 -119 -145 -174 -155 168 301 vhcurveto
          endchar
        </CharString>
        <CharString name="ograve">
          7 callgsubr
          402 -20 -26 callgsubr
          387 1221 rmoveto
          279 -108 rlineto
          -90 callsubr
          -311 -780 -99 callgsubr
        </CharString>
        <CharString name="one">
          -419 -57 callsubr
          1365 -20 hstemhm
          118 328 -154 154 hintmask 10101000
          111 22 -90 callgsubr
          hintmask 01101000
          5 37 29 1 49 hhcurveto
          24 40 -1 -7 41 hvcurveto
          hintmask 10101000
          -72 callsubr
          -104 callgsubr
          -86 -12 88 183 hvcurveto
          -3 678 rlineto
          189 2 49 12 50 vhcurveto
          8 31 3 13 10 vvcurveto
          17 -7 11 -14 -13 -6 -2 -29 -30 vhcurveto
          -20 -19 -41 -31 -44 -26 -47 -27 -30 -12 -62 -26 rrcurveto
          hintmask 10110000
          -32 -13 -6 -10 -14 vvcurveto
          -16 16 -11 33 33 29 -5 -11 22 vhcurveto
          25 -12 15 -43 -63 vvcurveto
          3 -678 rlineto
          -183 -13 -88 -85 -95 callgsubr
        </CharString>
        <CharString name="onehalf">
          703 -15 151 -125 -21 23 -21 29 -21 499 48 262 77 470 -20 50 -20 hstemhm
          129 265 -145 145 1115 160 hintmask 1000111110100000
          170 489 rmoveto
          29 19 2 3 22 hvcurveto
          2 21 19 -27 callgsubr
          -3 22 19 -2 29 hhcurveto
          33 17 14 18 18 -15 12 -18 -8 -6 -1 -1 -7 hvcurveto
          -80 callsubr
          hintmask 1000111101100000
          -65 callgsubr
          732 10 rmoveto
          hintmask 0100111110100000
          -10 15 -6 16 29 25 3 3 50 vhcurveto
          hintmask 0001111110100000
          34 callgsubr
          hintmask 0010111110100000
          -14 callgsubr
          hintmask 1000111110100000
          -66 callsubr
          endchar
        </CharString>
        <CharString name="onequarter">
          606 -15 63 -37 -21 31 -21 284 83 132 48 809 -20 50 -20 hstemhm
          109 265 -145 145 894 148 hintmask 1001111101000000
          150 489 rmoveto
          29 19 2 3 22 hvcurveto
          2 21 19 -27 callgsubr
          -3 22 19 -2 29 hhcurveto
          33 17 14 18 18 -15 12 -18 -8 -6 -1 -1 -7 hvcurveto
          -80 callsubr
          hintmask 1001111011000000
          -65 callgsubr
          553 -23 callsubr
          hintmask 0101111101000000
          15 callsubr
          hintmask 0011111101000000
          2 21 22 -27 callgsubr
          hintmask 0101111101000000
          -3 22 19 -2 29 hhcurveto
          33 17 14 18 18 -15 12 -18 -8 -6 -1 -37 callsubr
          hintmask 1001111101000000
          -75 callsubr
        </CharString>
        <CharString name="onesuperior">
          -553 770 48 -37 -21 897 -20 hstemhm
          99 265 -145 145 hintmask 01110000
          140 760 rmoveto
          29 19 2 3 22 hvcurveto
          hintmask 10110000
          2 21 19 -27 callgsubr
          hintmask 01110000
          -3 22 19 -2 29 hhcurveto
          33 17 14 18 18 -15 12 -18 -8 -6 -1 -37 callsubr
          hintmask 10110000
          -80 callsubr
          hintmask 10101000
          60 -5 18 -17 -68 vvcurveto
          -424 vlineto
          8 callgsubr
          hintmask 01110000
          -15 17 -17 33 vhcurveto
          endchar
        </CharString>
        <CharString name="ordfeminine">
          -185 786 76 -76 100 223 69 71 181 -61 61 hstemhm
          147 140 271 123 hintmask 01110110
          385 786 rmoveto
          76 66 29 55 45 hvcurveto
          4 -11 3 -10 5 -9 rrcurveto
          -44 19 16 -10 20 hhcurveto
          12 14 9 8 11 hvcurveto
          17 11 27 15 35 14 rrcurveto
          28 11 10 11 12 vvcurveto
          10 -8 8 -10 -8 -7 -2 -2 -7 vhcurveto
          -2 -8 -9 -3 -9 hhcurveto
          -32 -14 13 69 hvcurveto
          259 vlineto
          150 -103 53 -133 -72 -75 -22 -27 -43 vhcurveto
          -36 -22 -33 -36 -27 vvcurveto
          -24 27 -23 39 26 23 27 34 21 vhcurveto
          hintmask 10101110
          41 25 34 18 47 hhcurveto
          92 38 -39 -117 hvcurveto
          -49 vlineto
          8 -34 -39 6 -29 hhcurveto
          -206 -103 -81 -120 -104 90 -87 148 hvcurveto
          41 76 rmoveto
          -84 -55 59 74 61 54 53 90 54 41 -10 -18 32 hvcurveto
          -107 vlineto
          -28 vlineto
          -56 -30 -48 -28 -54 hhcurveto
          endchar
        </CharString>
        <CharString name="ordmasculine">
          -194 786 68 507 69 hstem
          151 142 346 143 vstem
          459 786 rmoveto
          189 134 148 174 191 -130 131 -177 -181 -141 -143 -175 -2 hvcurveto
          -170 -2 103 -156 207 hhcurveto
          24 68 rmoveto
          -100 -90 106 179 133 74 89 89 111 72 -97 -179 -157 -69 -74 -87 hvcurveto
          endchar
        </CharString>
        <CharString name="oslash">
          -27 -98 -21 94 73 821 74 81 -20 -26 callgsubr
          161 -76 rmoveto
          -5 -7 -14 -18 -7 vvcurveto
          -1 callgsubr
          57 15 19 13 vhcurveto
          67 99 rlineto
          -25 60 71 -14 83 hhcurveto
          286 197 236 266 140 -46 129 -97 86 hvcurveto
          101 149 39 callsubr
          -57 -17 -17 -11 vhcurveto
          -71 -105 rlineto
          37 -68 -84 21 -101 hhcurveto
          -286 -197 -236 -266 -156 56 -141 120 -86 hvcurveto
          81 120 rmoveto
          -55 75 -33 108 140 vvcurveto
          225 123 143 164 78 74 -29 -57 58 vhcurveto
          -345 -673 rmoveto
          404 596 rlineto
          42 -72 25 -97 -121 vvcurveto
          -225 -123 -143 -164 -67 -63 21 41 -54 vhcurveto
          endchar
        </CharString>
        <CharString name="otilde">
          7 callgsubr
          163 -15 callsubr
          -26 callgsubr
          345 -97 callsubr
          -269 -665 -99 callgsubr
        </CharString>
        <CharString name="p">
          43 -429 71 333 74 791 103 29 callsubr
          -189 -9 -21 -34 vhcurveto
          -9 -11 2 -14 hhcurveto
          25 callgsubr
          hvcurveto
          -82 callgsubr
          -22 -15 -17 -18 -21 17 -22 -12 callgsubr
          23 17 26 18 -17 21 -27 -14 -13 -2 -2 -14 hvcurveto
          -2 -15 -17 -2 -16 -19 -15 -3 -11 hhcurveto
          -30 -4 24 186 -12 callsubr
          -122 -109 -64 -109 -77 hvcurveto
          2 47 4 30 6 23 rrcurveto
          5 20 8 -5 callsubr
          -10 10 -13 -13 -15 -4 -21 -37 vhcurveto
          -43 -24 -69 -22 -72 -14 rrcurveto
          -44 -9 -5 -12 -65 callsubr
          -44 -67 vvcurveto
          155 -396 -30 callgsubr
        </CharString>
        <CharString name="paragraph">
          62 -47 -21 69 -21 1321 73 -9 -20 hstemhm
          115 184 319 96 110 96 hintmask 11101110
          579 -60 rmoveto
          -6 callsubr
          915 vlineto
          107 0 75 7 51 vhcurveto
          91 -3 rlineto
          7 -39 5 -80 -120 vvcurveto
          -873 32 callgsubr
          -6 callsubr
          867 vlineto
          104 1 73 6 51 vhcurveto
          -1 69 23 -4 30 hhcurveto
          40 19 12 27 28 -29 19 -37 -18 -29 -3 -3 -42 hvcurveto
          hintmask 11011110
          -2 -30 -38 -1 -45 hhcurveto
          -254 8 rlineto
          -323 -7 -148 -188 -195 vvcurveto
          -232 187 -152 183 29 11 9 14 12 -9 5 -28 10 vhcurveto
          -117 44 -72 103 200 vvcurveto
          hintmask 11101110
          163 131 142 171 vhcurveto
          5 hlineto
          7 -42 5 -85 -118 vvcurveto
          -921 32 callgsubr
          endchar
        </CharString>
        <CharString name="parenleft">
          -312 22 callsubr
          hstem
          150 176 vstem
          302 15 rmoveto
          -188 119 168 -99 81 hhcurveto
          19 25 21 12 9 -7 4 -12 5 hvcurveto
          -19 7 -27 12 -20 12 rrcurveto
          -166 98 -137 328 344 vvcurveto
          344 137 326 166 98 vhcurveto
          20 12 27 12 19 7 rrcurveto
          12 5 7 4 9 vvcurveto
          12 -25 21 -19 -81 -168 -99 -188 -119 vhcurveto
          -90 -142 -62 -208 -212 vvcurveto
          -212 62 -212 90 -142 vhcurveto
          endchar
        </CharString>
        <CharString name="parenright">
          -312 22 callsubr
          hstem
          488 176 vstem
          119 -221 rmoveto
          -12 -5 -7 -4 -9 vvcurveto
          -12 25 -21 19 81 168 99 188 119 vhcurveto
          90 142 62 212 212 vvcurveto
          212 -62 208 -90 142 vhcurveto
          188 -119 -168 99 -81 hhcurveto
          -19 -25 -21 -12 -9 7 -4 12 -5 hvcurveto
          19 -7 27 -12 20 -12 rrcurveto
          166 -98 137 -326 -344 vvcurveto
          -344 -137 -328 -166 -98 vhcurveto
          -20 -12 -27 -12 -19 -7 rrcurveto
          endchar
        </CharString>
        <CharString name="percent">
          331 -25 62 532 62 78 62 532 62 hstem
          90 18 callsubr
          155 -77 callsubr
          431 -477 rmoveto
          -194 127 -125 153 -68 callsubr
          vhcurveto
          122 17 rmoveto
          -40 callgsubr
          -80 -83 109 165 vhcurveto
          endchar
        </CharString>
        <CharString name="period">
          -636 -25 23 callsubr
          vstem
          130 91 rmoveto
          -68 43 -48 69 -74 callgsubr
          vhcurveto
          endchar
        </CharString>
        <CharString name="periodcentered">
          -546 506 227 hstem
          175 230 vstem
          287 506 rmoveto
          -74 callgsubr
          -68 43 -48 69 hvcurveto
          endchar
        </CharString>
        <CharString name="perthousand">
          979 -25 62 532 62 78 62 532 62 hstem
          90 18 callsubr
          155 18 callsubr
          87 -77 callsubr
          1079 -477 rmoveto
          -194 127 -125 153 -68 callsubr
          vhcurveto
          -648 hmoveto
          -194 127 -125 153 -68 callsubr
          vhcurveto
          770 17 rmoveto
          -40 callgsubr
          -80 -83 109 165 vhcurveto
          -648 hmoveto
          -40 callgsubr
          -80 -83 109 165 vhcurveto
          endchar
        </CharString>
        <CharString name="plus">
          -281 217 -21 316 43 callgsubr
          196 rmoveto
          85 316 26 callsubr
          endchar
        </CharString>
        <CharString name="plusminus">
          -281 184 85 382 43 callgsubr
          350 rmoveto
          85 301 26 callsubr
          -300 -467 rmoveto
          685 85 -685 hlineto
          endchar
        </CharString>
        <CharString name="q">
          -11 -424 71 328 103 789 76 hstem
          81 167 552 155 vstem
          81 437 rmoveto
          -262 170 -200 259 117 100 36 89 73 vhcurveto
          -192 vlineto
          -253 -6 -8 -72 -16 -17 2 2 -15 vhcurveto
          2 -14 -10 1 -14 hhcurveto
          -30 -18 -13 -20 -26 23 -19 50 35 34 3 5 35 hvcurveto
          5 35 35 2 37 hhcurveto
          35 32 -4 -3 30 hvcurveto
          -57 callgsubr
          22 21 18 -15 14 -22 -64 callsubr
          -6 -7 -25 callsubr
          -62 -15 20 242 hvcurveto
          747 vlineto
          141 5 27 13 39 vhcurveto
          7 19 14 23 1 14 1 12 -18 12 -13 1 -13 1 -21 -18 -37 -22 -21 -13 -23 -10 -27 -9 rrcurveto
          44 -73 -97 27 -94 hhcurveto
          -287 -191 -251 -255 hvcurveto
          167 39 rmoveto
          249 128 142 160 114 106 -77 -96 44 vhcurveto
          -483 vlineto
          -92 -50 -86 -41 -101 hhcurveto
          -178 -137 150 248 hvcurveto
          endchar
        </CharString>
        <CharString name="question">
          -193 -25 200 874 316 -78 78 hstemhm
          358 163 -163 213 159 168 hintmask 11001100
          358 409 rmoveto
          -66 37 -33 71 49 56 43 39 17 -9 11 -19 6 vhcurveto
          hintmask 11010100
          -14 5 -8 21 26 vvcurveto
          37 7 25 181 180 vhcurveto
          141 139 48 96 115 vvcurveto
          165 -162 130 -218 -136 -110 -31 -50 -83 vhcurveto
          -96 -58 -34 -53 -51 vvcurveto
          -28 31 -45 53 33 19 36 75 29 vhcurveto
          hintmask 10101100
          71 27 71 56 148 hhcurveto
          151 109 -105 -143 -143 -63 -124 -151 -140 hvcurveto
          -135 -125 -23 -52 -46 vvcurveto
          6 -332 9 callgsubr
        </CharString>
        <CharString name="questiondown">
          -193 -176 78 -78 316 874 200 hstemhm
          33 168 163 203 -157 157 hintmask 01111000
          463 1014 rmoveto
          54 50 40 58 60 -38 42 -61 -64 -40 -46 -55 -57 39 -42 60 hvcurveto
          -430 -895 rmoveto
          -165 162 -130 218 136 110 31 50 83 vhcurveto
          96 58 34 53 51 vvcurveto
          28 -31 45 -53 -33 -19 -36 -75 -29 vhcurveto
          hintmask 10110100
          -71 -27 -71 -56 -148 hhcurveto
          -151 -109 105 143 143 63 124 151 140 hvcurveto
          135 125 23 52 46 vvcurveto
          66 -37 33 -71 -49 -56 -43 -39 -17 9 -11 19 -6 vhcurveto
          14 -5 8 -21 -26 vvcurveto
          -37 -7 -25 -181 -180 vhcurveto
          -141 -139 -48 -96 -115 vvcurveto
          endchar
        </CharString>
        <CharString name="quotedbl">
          -418 930 435 hstem
          480 930 rmoveto
          -53 callgsubr
          -246 hmoveto
          -53 callgsubr
          endchar
        </CharString>
        <CharString name="quotedblbase">
          -305 251 103 187 103 vstem
          443 131 rmoveto
          -77 callgsubr
          -71 callsubr
          -290 hmoveto
          -77 callgsubr
          -71 callsubr
          endchar
        </CharString>
        <CharString name="quotedblleft">
          -305 177 103 187 103 vstem
          562 931 rmoveto
          -69 callgsubr
          -290 hmoveto
          -69 callgsubr
          endchar
        </CharString>
        <CharString name="quotedblright">
          -305 251 103 187 103 vstem
          480 907 rmoveto
          -71 callsubr
          -77 callgsubr
          -290 hmoveto
          -71 callsubr
          -77 callgsubr
          endchar
        </CharString>
        <CharString name="quoteleft">
          -595 177 103 vstem
          272 931 rmoveto
          -69 callgsubr
          endchar
        </CharString>
        <CharString name="quoteright">
          -595 251 103 vstem
          190 907 rmoveto
          -71 callsubr
          -77 callgsubr
          endchar
        </CharString>
        <CharString name="quotesinglbase">
          -595 251 103 vstem
          153 131 rmoveto
          -77 callgsubr
          -71 callsubr
          endchar
        </CharString>
        <CharString name="quotesingle">
          -664 951 -21 435 -20 hstem
          234 930 rmoveto
          -53 callgsubr
          endchar
        </CharString>
        <CharString name="r">
          -333 -15 62 -26 -21 824 109 10 17 callsubr
          hintmask 10101000
          50 22 rmoveto
          -21 17 -16 16 callsubr
          vhcurveto
          hintmask 01101000
          -33 callsubr
          hintmask 10101000
          -30 callsubr
          -80 callgsubr
          hintmask 10011000
          -81 callsubr
          endchar
        </CharString>
        <CharString name="rcaron">
          -333 -15 62 -26 -21 824 109 10 -20 420 17 callsubr
          hintmask 10101100
          382 1074 -88 callsubr
          -332 -1052 rmoveto
          -21 17 -16 16 callsubr
          vhcurveto
          hintmask 01101100
          -33 callsubr
          hintmask 10101100
          -30 callsubr
          -80 callgsubr
          hintmask 10011100
          -81 callsubr
          endchar
        </CharString>
        <CharString name="rcommaaccent">
          -333 36 callgsubr
          62 -26 -21 824 109 10 17 callsubr
          -81 81 hintmask 11011010
          50 22 rmoveto
          -21 17 -16 16 callsubr
          vhcurveto
          3 30 32 4 35 hhcurveto
          37 35 -2 -5 35 hvcurveto
          -30 callsubr
          hintmask 10101010
          -80 callgsubr
          hintmask 11010110
          -81 callsubr
          150 -231 23 callgsubr
          hintmask 11011001
          -72 callgsubr
          -13 callsubr
        </CharString>
        <CharString name="registered">
          456 -25 72 229 58 299 56 338 59 206 73 hstemhm
          80 79 260 265 -136 136 275 146 313 84 hintmask 1111111011000000
          -14 callsubr
          -424 -282 -291 -404 vhcurveto
          79 19 rmoveto
          348 254 255 13 callsubr
          -348 -283 260 382 vhcurveto
          260 -381 rmoveto
          15 callsubr
          2 21 10 -27 callgsubr
          -3 22 19 -2 29 hhcurveto
          33 17 14 18 18 -15 12 -18 -8 -6 -1 -1 -7 hvcurveto
          35 callgsubr
          34 97 hvcurveto
          167 vlineto
          1 30 15 0 45 hhcurveto
          21 13 -15 -42 17 hvcurveto
          148 -238 rlineto
          -38 24 18 -14 32 hhcurveto
          131 hlineto
          39 14 13 15 16 -8 10 -43 4 hvcurveto
          -38 5 -11 7 -36 53 -171 247 rcurveline
          114 39 67 84 101 vvcurveto
          110 -96 96 -208 -34 -37 -2 -5 -42 vhcurveto
          -2 -18 -20 -2 -28 hhcurveto
          -25 -31 2 3 -24 hvcurveto
          2 -21 -22 3 -30 hhcurveto
          -33 -17 -17 -15 -18 15 -12 18 8 6 1 1 7 hvcurveto
          1 7 7 1 7 hhcurveto
          hintmask 1111110111000000
          52 2 -34 -97 hvcurveto
          -431 vlineto
          -97 -2 -34 -52 -7 -7 1 1 -7 vhcurveto
          1 -7 -6 1 -8 hhcurveto
          hintmask 1111111011000000
          -18 -15 -12 -18 hvcurveto
          265 386 rmoveto
          295 vlineto
          24 26 14 53 125 71 -77 -119 -78 -49 -64 -92 -41 -57 2 3 -36 vhcurveto
          endchar
        </CharString>
        <CharString name="ring">
          -648 1101 68 268 68 hstem
          31 96 223 94 vstem
          237 1101 -69 callsubr
          endchar
        </CharString>
        <CharString name="ring.cap">
          -686 1353 68 268 68 hstem
          10 96 223 94 vstem
          216 1353 -69 callsubr
          endchar
        </CharString>
        <CharString name="s">
          -249 -25 70 689 209 -71 71 hstemhm
          133 128 406 129 hintmask 10111000
          85 201 rmoveto
          -92 145 -134 203 215 148 117 166 125 -86 98 -212 87 vhcurveto
          -195 81 -42 46 66 vvcurveto
          56 59 55 107 65 52 -20 -74 48 vhcurveto
          hintmask 11011000
          42 callsubr
          -101 88 -175 -186 -139 -103 -135 -114 72 -96 187 -76 hvcurveto
          219 -89 56 -56 -83 vvcurveto
          -87 -95 -59 -107 -130 -82 75 94 -32 vhcurveto
          -12 36 -14 15 -20 3 rrcurveto
          -47 8 -43 -47 -28 vvcurveto
          endchar
        </CharString>
        <CharString name="section">
          -15 -429 68 -68 209 1366 209 -68 68 hstemhm
          120 108 81 129 235 129 81 108 hintmask 10011111
          192 -283 rmoveto
          -58 100 -88 179 205 126 146 142 13 -1 12 -1 13 vhcurveto
          111 56 80 129 136 vvcurveto
          176 -43 112 -224 219 vhcurveto
          -263 258 -23 61 84 vvcurveto
          82 63 77 121 62 53 -36 -61 40 vhcurveto
          hintmask 10101111
          42 callsubr
          -100 88 -179 -205 -126 -146 -142 -13 1 -12 1 -13 hvcurveto
          -111 -56 -80 -130 -135 vvcurveto
          -176 43 -112 224 -219 vhcurveto
          263 -258 23 -61 -84 vvcurveto
          -82 -63 -77 -121 -62 -53 36 61 -40 vhcurveto
          hintmask 01101111
          33 -21 -17 11 -15 hhcurveto
          -48 -41 -28 -35 hvcurveto
          281 644 rmoveto
          -205 202 -40 82 123 vvcurveto
          76 32 64 67 48 vhcurveto
          33 -94 85 -108 193 -189 rrcurveto
          205 -202 40 -82 -123 vvcurveto
          -77 -32 -64 -68 -47 vhcurveto
          -33 93 -84 108 -193 190 rrcurveto
          endchar
        </CharString>
        <CharString name="semicolon">
          -696 -248 -21 454 400 0 227 hstemhm
          130 230 -129 100 hintmask 10110000
          242 585 rmoveto
          -74 callgsubr
          -68 43 -48 69 hvcurveto
          -124 -486 rmoveto
          -40 12 -13 49 -38 vhcurveto
          hintmask 11001000
          -34 callgsubr
        </CharString>
        <CharString name="seven">
          -155 6 -21 1211 160 hstem
          310 197 vstem
          310 83 rmoveto
          -59 39 -39 67 31 41 9 13 32 vhcurveto
          45 18 13 15 12 vvcurveto
          12 -8 10 -26 6 vhcurveto
          -24 6 -13 30 57 vvcurveto
          176 39 162 88 206 vhcurveto
          206 483 19 45 15 27 17 28 rlinecurve
          10 16 5 12 9 vvcurveto
          12 -8 7 -22 -40 -41 -4 -4 -50 vhcurveto
          -4 -52 -63 -4 -81 hhcurveto
          -103 -68 5 4 -63 hvcurveto
          4 -54 -50 3 -65 hhcurveto
          -25 -10 -14 -19 -5 hvcurveto
          -7 -32 -17 -30 -16 -26 rrcurveto
          -10 -16 -11 -24 -16 vvcurveto
          -24 10 -9 17 13 12 5 14 20 vhcurveto
          23 35 22 8 287 hhcurveto
          90 112 -5 -7 77 hvcurveto
          -217 -468 rlineto
          -175 -376 -38 -147 -110 vvcurveto
          endchar
        </CharString>
        <CharString name="six">
          52 -25 77 738 131 356 88 hstem
          95 179 668 161 vstem
          615 -25 rmoveto
          264 224 213 298 256 -166 179 -231 -179 -162 -177 -161 -14 hvcurveto
          -3 -35 4 -30 20 -3 16 -2 14 7 6 28 rrcurveto
          140 29 98 102 124 hhcurveto
          155 128 -126 -248 -239 -128 -125 -155 -216 -169 242 385 405 187 193 214 115 50 -61 -39 29 hvcurveto
          -22 16 10 -11 12 hhcurveto
          23 49 47 48 -9 hvcurveto
          56 -10 -101 70 -148 hhcurveto
          -345 -271 -351 -396 -346 208 -297 312 hvcurveto
          endchar
        </CharString>
        <CharString name="slash">
          46 callgsubr
          32 -316 rmoveto
          -3 -8 -6 -17 -7 vvcurveto
          -1 callgsubr
          52 12 22 8 vhcurveto
          716 1883 rlineto
          3 8 6 17 44 callgsubr
          -51 -15 -19 -7 vhcurveto
          endchar
        </CharString>
        <CharString name="space">
          -601 endchar
        </CharString>
        <CharString name="sterling">
          47 -26 72 -72 169 -147 -21 223 87 365 85 341 289 -84 84 hstemhm
          90 89 92 168 -14 174 hintmask 0101110110000000
          90 116 rmoveto
          -63 47 -79 127 89 78 54 76 58 vhcurveto
          hintmask 0011110110000000
          -93 180 134 -36 144 hhcurveto
          52 25 14 67 36 hvcurveto
          23 43 15 43 21 vvcurveto
          17 -7 11 -17 -9 -10 -5 -18 -16 vhcurveto
          hintmask 0101110101000000
          -20 -17 -14 -5 -35 hhcurveto
          -118 -128 20 53 -173 hvcurveto
          29 66 16 70 62 vvcurveto
          77 -10 59 -32 100 vhcurveto
          316 hlineto
          -45 callsubr
          -355 hlineto
          -17 49 rlineto
          hintmask 1001101110000000
          -62 173 -10 47 61 vvcurveto
          147 92 69 159 130 56 -49 -77 30 vhcurveto
          hintmask 1001110110000000
          -63 24 18 -16 28 hhcurveto
          37 54 32 39 41 -32 52 -58 44 hvcurveto
          46 -63 -89 35 -141 hhcurveto
          -250 -163 -159 -176 -84 19 -74 53 -137 hvcurveto
          -197 hlineto
          -44 callgsubr
          237 hlineto
          hintmask 1001110101000000
          38 -113 13 -76 -78 vvcurveto
          -45 -3 -41 -5 -36 vhcurveto
          17 -55 -37 7 -41 hhcurveto
          -134 -60 -83 -86 hvcurveto
          89 10 rmoveto
          35 34 37 53 35 47 -16 -25 44 vhcurveto
          -74 -28 -44 -37 -53 hhcurveto
          -53 -35 33 47 hvcurveto
          endchar
        </CharString>
        <CharString name="t">
          -440 -25 98 745 90 280 -20 hstemhm
          171 479 vstemhm
          171 252 rmoveto
          -173 79 -104 148 53 51 6 32 59 vhcurveto
          65 37 24 28 19 vvcurveto
          18 -16 24 -18 -20 -9 -10 -24 -32 vhcurveto
          -20 -27 -31 -12 -44 hhcurveto
          hintmask 11110000
          -76 -51 44 149 hvcurveto
          554 vlineto
          284 -3 rlineto
          24 8 7 20 16 -14 51 -21 hvcurveto
          -281 -6 rlineto
          226 vlineto
          36 -7 21 -25 -19 -9 -15 -40 -17 vhcurveto
          -20 -47 -10 -43 -32 -60 -22 -43 -37 -31 -55 -13 rrcurveto
          -20 -5 -15 -11 -20 vvcurveto
          -24 24 -13 48 vhcurveto
          61 hlineto
          endchar
        </CharString>
        <CharString name="thorn">
          43 -480 64 391 74 791 103 487 -20 29 callsubr
          -242 -15 -26 -62 25 callgsubr
          vhcurveto
          1 -7 -62 callsubr
          -21 17 -19 -12 callgsubr
          26 12 26 18 -17 15 -27 -14 -16 -2 -2 -14 hvcurveto
          -2 -15 -17 -3 -16 hhcurveto
          -72 -7 17 253 -12 callsubr
          -123 -110 -65 -111 -77 hvcurveto
          379 vlineto
          118 5 56 9 37 vhcurveto
          5 20 8 -5 callsubr
          -10 10 -13 -13 -15 -4 -21 -37 vhcurveto
          -43 -24 -69 -22 -72 -14 rrcurveto
          -44 -9 -5 -14 -65 callsubr
          -44 -67 vvcurveto
          155 -881 -30 callgsubr
        </CharString>
        <CharString name="three">
          -30 -25 80 765 141 236 147 2 -20 hstemhm
          50 100 700 156 hintmask 11101100
          50 360 rmoveto
          -188 181 -197 259 309 207 235 286 253 -167 202 -284 10 vhcurveto
          216 312 rlineto
          20 29 9 18 7 vvcurveto
          13 -12 4 -23 -26 -34 -1 -1 -37 vhcurveto
          -1 -50 -56 -1 -42 hhcurveto
          -60 -40 1 2 -55 hvcurveto
          hintmask 11011100
          2 -42 -14 1 -13 hhcurveto
          -22 -11 -10 -27 -9 hvcurveto
          -9 -24 -14 -32 -9 -15 rrcurveto
          -18 -30 -8 -16 -15 vvcurveto
          -17 9 -11 16 18 12 10 14 12 vhcurveto
          hintmask 11101100
          21 18 12 3 72 hhcurveto
          37 141 -3 -2 68 hvcurveto
          -202 -298 rlineto
          -26 -40 -4 -12 -12 vvcurveto
          -13 9 -7 15 14 14 3 2 15 vhcurveto
          3 15 16 2 21 hhcurveto
          215 137 -168 -222 -255 -150 -120 -180 -211 -143 128 212 -16 hvcurveto
          35 -3 -7 12 -10 hhcurveto
          -24 -56 -40 -42 hvcurveto
          endchar
        </CharString>
        <CharString name="threequarters">
          781 -15 63 -37 -21 31 -21 284 83 86 74 434 128 132 139 -4 -20 21 -20 22 -20 23 -20 hstemhm
          65 83 482 132 691 148 hintmask 1001111000011100
          399 453 -24 callgsubr
          hintmask 1001110001011100
          -18 -36 -1 -24 hhcurveto
          hintmask 1001110010011100
          -1 -34 -37 -1 -28 hhcurveto
          hintmask 1001110001011100
          -41 -66 0 2 -37 hvcurveto
          hintmask 1001110000111100
          1 -28 -10 2 -9 hhcurveto
          hintmask 1001110010011100
          -15 callgsubr
          hintmask 1001111000011100
          -61 callsubr
          94 -457 rmoveto
          -1 callgsubr
          41 11 19 14 vhcurveto
          863 1298 rlineto
          5 7 12 18 7 vvcurveto
          hintmask 1001110100011100
          -2 callsubr
          -44 -18 -16 -12 vhcurveto
          -863 -1298 rlineto
          -5 -7 -9 -14 -7 vvcurveto
          562 -23 callsubr
          hintmask 0101111000011100
          15 callsubr
          hintmask 0011111000011100
          2 21 22 -27 callgsubr
          hintmask 0101111000011100
          -3 22 19 -2 29 hhcurveto
          33 17 14 18 18 -15 12 -18 -8 -6 -1 -37 callsubr
          hintmask 1001111000011100
          -75 callsubr
        </CharString>
        <CharString name="threesuperior">
          -289 752 74 434 128 132 139 2 -20 hstemhm
          65 83 482 132 hintmask 11101100
          399 752 -24 callgsubr
          -18 -36 -1 -24 hhcurveto
          -1 -34 -37 -1 -28 hhcurveto
          -41 -66 0 2 -37 hvcurveto
          hintmask 11011100
          1 -28 -10 2 -9 hhcurveto
          -15 callgsubr
          hintmask 11101100
          -61 callsubr
          endchar
        </CharString>
        <CharString name="tilde">
          -424 1106 -15 callsubr
          hstem
          123 -97 callsubr
          endchar
        </CharString>
        <CharString name="tilde.cap">
          -424 1512 -15 callsubr
          hstem
          103 -98 callsubr
          endchar
        </CharString>
        <CharString name="trademark">
          466 754 -21 614 72 hstem
          241 90 427 63 509 111 vstem
          643 751 rmoveto
          -11 13 -7 18 16 10 2 2 12 vhcurveto
          2 12 6 2 26 hhcurveto
          10 23 -1 -3 16 hvcurveto
          -2 17 18 -2 17 hhcurveto
          24 8 7 12 9 -7 5 -11 -45 -21 15 26 61 7 229 9 140 hvcurveto
          225 -463 rlineto
          -21 10 5 -9 9 hhcurveto
          7 7 8 21 10 hvcurveto
          236 541 rlineto
          5 -91 15 -300 -37 vvcurveto
          -47 vlineto
          -20 0 -15 -2 -7 vhcurveto
          -20 -5 -11 -10 -35 hhcurveto
          -20 -8 -6 -9 -12 9 -7 24 17 27 2 2 18 hvcurveto
          3 15 17 1 12 hhcurveto
          24 35 -2 -2 12 hvcurveto
          -2 12 10 -2 16 hhcurveto
          18 13 7 11 11 -8 6 -13 1 hvcurveto
          -33 -37 7 68 -3 hvcurveto
          -26 485 -2 43 32 10 31 4 rlinecurve
          21 2 7 3 9 vvcurveto
          11 -10 8 -27 vhcurveto
          -18 -19 -5 -23 -12 -58 2 -17 hhcurveto
          -17 -14 -9 -18 -7 hvcurveto
          -206 -479 -224 463 rlineto
          27 -13 -9 14 -16 -12 -19 -2 -28 -28 -17 7 -33 hhcurveto
          -14 -9 -8 -11 -9 10 -5 35 -5 hvcurveto
          28 -4 18 -16 -48 vvcurveto
          -104 -15 -312 -5 -55 vhcurveto
          -67 -5 -37 -6 -32 hhcurveto
          -13 -1 -8 -6 -11 vvcurveto
          -461 -18 rmoveto
          13 12 2 3 21 hvcurveto
          2 19 21 1 24 hhcurveto
          12 27 -1 -3 21 hvcurveto
          -2 12 13 -2 13 hhcurveto
          24 8 7 12 9 -7 5 -11 hvcurveto
          -5 -4 -1 -4 hhcurveto
          -1 -2 -3 0 -6 hhcurveto
          -43 -6 44 91 hvcurveto
          448 108 vlineto
          52 17 -21 -43 6 hvcurveto
          -23 4 2 -6 8 hhcurveto
          12 4 20 48 6 hvcurveto
          3 19 3 11 2 9 rrcurveto
          3 9 2 26 7 vvcurveto
          9 -4 7 -13 -9 -5 -2 -2 -9 vhcurveto
          -2 -11 -15 -2 -29 hhcurveto
          -317 hlineto
          -37 -35 4 1 -9 hvcurveto
          2 -9 -8 1 -6 hhcurveto
          -13 -4 -29 -35 -3 hvcurveto
          -1 -20 -4 -22 -3 -11 rrcurveto
          -4 -14 -5 -13 -7 vvcurveto
          -9 5 -8 10 8 5 6 17 7 vhcurveto
          6 17 13 23 11 6 rrcurveto
          11 16 51 16 85 hhcurveto
          14 hlineto
          1 -448 rlineto
          -91 -8 -44 -42 -6 -3 0 1 -3 vhcurveto
          -3 -4 1 -6 hhcurveto
          -11 -7 -5 -9 -12 8 -7 25 hvcurveto
          1163 616 rmoveto
          1 1 rlineto
          endchar
        </CharString>
        <CharString name="two">
          -44 -6 160 -148 -21 25 -21 32 -21 1286 79 hstemhm
          767 185 hintmask 01001100
          123 9 rmoveto
          -15 12 -9 23 vhcurveto
          hintmask 10001100
          44 17 4 5 75 hvcurveto
          hintmask 00011100
          4 66 124 2 81 hhcurveto
          hintmask 10001100
          88 94 -2 -4 51 hvcurveto
          hintmask 00101100
          -3 38 27 -2 23 hhcurveto
          24 6 11 90 38 hvcurveto
          9 21 17 50 10 vvcurveto
          22 1 -8 13 -14 hhcurveto
          -16 -9 -8 -18 -16 hvcurveto
          hintmask 10001100
          -21 -18 -27 -5 -81 hhcurveto
          -445 hlineto
          368 374 rlineto
          176 188 61 112 146 vvcurveto
          207 -165 184 -313 -91 -94 -22 -53 -94 vhcurveto
          -86 -49 -59 -73 -34 vvcurveto
          -34 32 -45 26 11 4 3 48 24 vhcurveto
          107 54 119 73 145 hhcurveto
          176 126 -135 -208 -118 -50 -139 -168 -191 hvcurveto
          -378 -408 rlineto
          -39 -44 -9 -20 -14 vvcurveto
          endchar
        </CharString>
        <CharString name="twosuperior">
          -366 766 140 -125 -21 819 77 hstemhm
          510 160 hintmask 01110000
          101 760 rmoveto
          hintmask 10110000
          29 25 3 3 50 hvcurveto
          34 callgsubr
          -14 callgsubr
          -66 callsubr
          hintmask 01110000
          -10 15 -6 16 vhcurveto
          endchar
        </CharString>
        <CharString name="u">
          -29 callsubr
          hstemhm
          188 150 468 146 hintmask 10011100
          188 328 -67 callgsubr
          hintmask 01011100
          -69 20 20 -15 21 hhcurveto
          16 22 8 11 17 hvcurveto
          48 31 19 13 54 21 rrcurveto
          43 17 14 11 19 vvcurveto
          14 -12 12 -17 -11 -8 -3 -3 -9 vhcurveto
          -4 -12 -13 -4 -11 hhcurveto
          -48 -22 27 104 hvcurveto
          375 -96 callgsubr
          -62 -21 -85 callsubr
          17 -11 -61 callgsubr
          34 -11 13 -23 14 -26 4 -45 -1 -67 -3 -344 rcurveline
          hintmask 10101100
          -96 callsubr
        </CharString>
        <CharString name="uacute">
          -29 callsubr
          422 0 callsubr
          433 -101 callgsubr
          -245 -762 -67 callgsubr
          hintmask 01011110
          -69 20 20 -15 21 hhcurveto
          16 22 8 11 17 hvcurveto
          48 31 19 13 54 21 rrcurveto
          43 17 14 11 19 vvcurveto
          14 -12 12 -17 -11 -8 -3 -3 -9 vhcurveto
          -4 -12 -13 -4 -11 hhcurveto
          -48 -22 27 104 hvcurveto
          375 -96 callgsubr
          -62 -21 -85 callsubr
          17 -11 -61 callgsubr
          34 -11 13 -23 14 -26 4 -45 -1 -67 -3 -344 rcurveline
          hintmask 10101110
          -96 callsubr
        </CharString>
        <CharString name="ucircumflex">
          -29 callsubr
          428 0 callsubr
          395 -102 callsubr
          -207 -754 -67 callgsubr
          hintmask 01011110
          -69 20 20 -15 21 hhcurveto
          16 22 8 11 17 hvcurveto
          48 31 19 13 54 21 rrcurveto
          43 17 14 11 19 vvcurveto
          14 -12 12 -17 -11 -8 -3 -3 -9 vhcurveto
          -4 -12 -13 -4 -11 hhcurveto
          -48 -22 27 104 hvcurveto
          375 -96 callgsubr
          -62 -21 -85 callsubr
          17 -11 -61 callgsubr
          34 -11 13 -23 14 -26 4 -45 -1 -67 -3 -344 rcurveline
          hintmask 10101110
          -96 callsubr
        </CharString>
        <CharString name="udieresis">
          -29 callsubr
          188 200 hstemhm
          188 150 -24 6 callsubr
          -67 146 hintmask 1001101100000000
          767 1111 rmoveto
          -105 callgsubr
          -352 hmoveto
          -105 callgsubr
          hintmask 1001110010000000
          -227 -783 -67 callgsubr
          hintmask 0101110010000000
          -69 20 20 -15 21 hhcurveto
          16 22 8 11 17 hvcurveto
          48 31 19 13 54 21 rrcurveto
          43 17 14 11 19 vvcurveto
          14 -12 12 -17 -11 -8 -3 -3 -9 vhcurveto
          -4 -12 -13 -4 -11 hhcurveto
          -48 -22 27 104 hvcurveto
          375 -96 callgsubr
          -62 -21 -85 callsubr
          17 -11 -61 callgsubr
          34 -11 13 -23 14 -26 4 -45 -1 -67 -3 -344 rcurveline
          hintmask 1010110100000000
          -96 callsubr
        </CharString>
        <CharString name="ugrave">
          -29 callsubr
          422 0 callsubr
          407 1221 rmoveto
          279 -108 rlineto
          -90 callsubr
          -219 -893 -67 callgsubr
          hintmask 01011110
          -69 20 20 -15 21 hhcurveto
          16 22 8 11 17 hvcurveto
          48 31 19 13 54 21 rrcurveto
          43 17 14 11 19 vvcurveto
          14 -12 12 -17 -11 -8 -3 -3 -9 vhcurveto
          -4 -12 -13 -4 -11 hhcurveto
          -48 -22 27 104 hvcurveto
          375 -96 callgsubr
          -62 -21 -85 callsubr
          17 -11 -61 callgsubr
          34 -11 13 -23 14 -26 4 -45 -1 -67 -3 -344 rcurveline
          hintmask 10101110
          -96 callsubr
        </CharString>
        <CharString name="underscore">
          -504 -84 85 hstem
          1 vmoveto
          -85 622 85 vlineto
          endchar
        </CharString>
        <CharString name="uni0001">
          endchar
        </CharString>
        <CharString name="uni0002">
          endchar
        </CharString>
        <CharString name="uni0003">
          endchar
        </CharString>
        <CharString name="uni0004">
          endchar
        </CharString>
        <CharString name="uni0005">
          endchar
        </CharString>
        <CharString name="uni0006">
          endchar
        </CharString>
        <CharString name="uni0007">
          endchar
        </CharString>
        <CharString name="uni0008">
          endchar
        </CharString>
        <CharString name="uni0009">
          endchar
        </CharString>
        <CharString name="uni0010">
          endchar
        </CharString>
        <CharString name="uni0011">
          endchar
        </CharString>
        <CharString name="uni0012">
          endchar
        </CharString>
        <CharString name="uni0013">
          endchar
        </CharString>
        <CharString name="uni0014">
          endchar
        </CharString>
        <CharString name="uni0015">
          endchar
        </CharString>
        <CharString name="uni0016">
          endchar
        </CharString>
        <CharString name="uni0017">
          endchar
        </CharString>
        <CharString name="uni0018">
          endchar
        </CharString>
        <CharString name="uni0019">
          endchar
        </CharString>
        <CharString name="uni00AD">
          103 endchar
        </CharString>
        <CharString name="v">
          -129 -4 -21 897 63 hstem
          467 4 rmoveto
          -16 7 8 -13 16 hhcurveto
          8 11 9 20 9 hvcurveto
          303 665 68 149 23 29 -22 callgsubr
          45 -4 17 -8 -29 vvcurveto
          -24 -14 -42 -24 -57 vhcurveto
          -207 -480 -238 524 rlineto
          -18 39 -4 21 19 vvcurveto
          20 10 18 52 3 vhcurveto
          59 3 25 12 19 vvcurveto
          21 -27 8 -45 vhcurveto
          -61 -29 -11 -97 -72 -27 11 -56 hhcurveto
          -27 -14 -12 -12 -18 15 -12 28 -7 hvcurveto
          62 -17 17 -28 37 -82 rrcurveto
          endchar
        </CharString>
        <CharString name="w">
          375 -4 -21 896 63 hstem
          427 4 rmoveto
          -16 6 9 -13 16 hhcurveto
          8 12 9 20 8 hvcurveto
          260 629 271 -629 rlineto
          -16 7 8 -13 16 hhcurveto
          11 8 9 20 9 hvcurveto
          283 660 65 151 16 31 -22 callgsubr
          48 -4 11 -17 -25 vvcurveto
          -33 -7 -45 -67 -167 vhcurveto
          -139 -346 -204 468 rlineto
          -29 67 -11 39 22 vvcurveto
          20 10 18 52 3 vhcurveto
          59 3 21 12 19 vvcurveto
          21 -23 8 -45 vhcurveto
          -61 -24 -11 -97 -41 -38 11 -49 hhcurveto
          -29 -16 -9 -15 -15 12 -11 26 -9 hvcurveto
          35 -12 14 -13 24 -55 22 -52 rcurveline
          -201 -497 -208 501 rlineto
          -17 47 -4 19 17 vvcurveto
          20 2 18 52 3 vhcurveto
          59 3 21 12 19 vvcurveto
          21 -23 8 -45 vhcurveto
          -61 -15 -11 -97 -72 -27 11 -56 hhcurveto
          -27 -14 -12 -12 -18 15 -12 28 -7 hvcurveto
          62 -17 19 -30 32 -84 rrcurveto
          endchar
        </CharString>
        <CharString name="x">
          -89 -5 53 -42 -21 32 -21 939 -20 hstemhm
          hintmask 01010000
          18 10 rmoveto
          -15 16 -10 25 vhcurveto
          hintmask 10010000
          34 23 10 61 hhcurveto
          hintmask 01010000
          59 45 -10 44 hhcurveto
          44 14 16 13 hvcurveto
          hintmask 10010000
          22 -20 9 -40 3 vhcurveto
          -33 3 -9 9 19 vvcurveto
          24 36 61 39 48 vhcurveto
          136 173 165 -217 rlineto
          30 -39 22 -33 -17 vvcurveto
          -18 -17 -12 -25 -1 vhcurveto
          -48 -2 -12 -16 -16 vvcurveto
          hintmask 01010000
          -21 23 -8 45 vhcurveto
          hintmask 00110000
          61 23 11 97 hhcurveto
          hintmask 01010000
          72 7 -11 56 hhcurveto
          27 14 12 12 18 -15 12 -28 7 hvcurveto
          -62 17 -39 39 -55 71 -240 315 rcurveline
          146 181 104 129 47 49 69 24 rlinecurve
          41 14 9 10 15 vvcurveto
          15 -16 10 -25 vhcurveto
          -34 -23 -10 -49 -71 -45 10 -44 hhcurveto
          -44 -14 -13 -16 -18 16 -12 44 -4 hvcurveto
          29 -3 13 -10 -18 vvcurveto
          -21 -22 -41 -56 -71 vhcurveto
          -124 -156 -148 196 rlineto
          -31 39 -21 33 17 vvcurveto
          19 11 10 31 2 vhcurveto
          38 2 22 11 21 vvcurveto
          18 -15 11 -53 vhcurveto
          -61 -23 -11 -67 -72 -47 11 -56 hhcurveto
          -27 -14 -12 -12 -18 15 -12 28 -7 hvcurveto
          62 -17 48 -40 56 -70 222 -293 rcurveline
          -154 -199 -109 -123 -42 -55 -69 -24 rlinecurve
          -41 -14 -9 -10 -15 vvcurveto
          endchar
        </CharString>
        <CharString name="y">
          14 callgsubr
          hstem
          75 -303 rmoveto
          -100 callgsubr
        </CharString>
        <CharString name="yacute">
          14 callgsubr
          410 -20 hstem
          323 -101 callgsubr
          -248 -1393 rmoveto
          -100 callgsubr
        </CharString>
        <CharString name="ydieresis">
          14 callgsubr
          176 200 hstemhm
          -12 423 -207 6 callsubr
          hintmask 11101100
          657 1111 rmoveto
          -105 callgsubr
          -352 hmoveto
          -105 callgsubr
          -230 -1414 rmoveto
          hintmask 11110100
          -100 callgsubr
        </CharString>
        <CharString name="yen">
          134 -57 callsubr
          458 85 125 85 532 71 hstemhm
          211 502 -157 157 -157 488 hintmask 10111100
          373 22 -90 callgsubr
          hintmask 01111100
          -78 callgsubr
          hintmask 10111100
          -72 callsubr
          -104 callgsubr
          -86 -12 88 183 hvcurveto
          141 298 vlineto
          hintmask 10111001
          -45 callsubr
          hintmask 10111100
          -308 125 298 hlineto
          hintmask 10111001
          -45 callsubr
          -261 hlineto
          239 358 -94 callsubr
          257 -379 rcurveline
          -254 hlineto
          hintmask 10111100
          -44 callgsubr
          320 hlineto
          hintmask 10111010
          1 -1 rlineto
          -124 -312 vlineto
          hintmask 10111100
          -44 callgsubr
          hintmask 10111010
          321 -141 hlineto
          -183 -13 -88 -85 -95 callgsubr
        </CharString>
        <CharString name="z">
          -143 0 72 -66 -21 863 72 27 -20 hstemhm
          hintmask 10110000
          80 20 rmoveto
          -15 15 -5 19 vhcurveto
          468 hlineto
          74 52 -3 -4 40 hvcurveto
          hintmask 01110000
          -4 41 29 -4 29 hhcurveto
          13 13 10 27 37 3 43 14 45 hvcurveto
          18 57 2 10 16 vvcurveto
          17 -11 8 -9 -18 -10 -12 -30 -15 vhcurveto
          -16 -34 -31 -45 -25 -18 rrcurveto
          hintmask 10110000
          -24 -33 -69 -20 -198 hhcurveto
          -161 hlineto
          548 789 rlineto
          13 18 4 10 8 vvcurveto
          14 -10 9 -24 vhcurveto
          -373 hlineto
          -141 -64 4 10 -40 hvcurveto
          5 -20 -16 8 -14 hhcurveto
          -13 -9 -10 -22 -50 -12 -63 -12 -44 hvcurveto
          -8 -32 -3 -7 -11 vvcurveto
          -20 11 -9 17 17 12 13 39 15 vhcurveto
          14 39 24 25 31 17 rrcurveto
          21 40 81 15 149 hhcurveto
          125 hlineto
          -562 -796 rlineto
          -10 -14 -4 -10 -8 vvcurveto
          endchar
        </CharString>
        <CharString name="zero">
          156 -25 75 1236 79 hstem
          73 171 780 185 vstem
          638 -25 rmoveto
          6 hlineto
          322 243 274 408 411 -223 297 -325 -325 -263 -302 -411 -408 243 -269 322 hvcurveto
          13 75 rmoveto
          -212 -195 250 381 378 166 227 221 212 181 -245 -381 -378 -152 -232 -221 hvcurveto
          endchar
        </CharString>
      <CharString index="0">
        -54 -73 -104 -13 -182 hhcurveto
        -36 -76 1 17 -70 hvcurveto
        -7 96 -3 123 146 vvcurveto
        237 vlineto
        6 49 110 5 43 hhcurveto
        86 65 -8 -7 21 hvcurveto
        29 -11 6 -24 -46 vvcurveto
        -31 9 -15 20 21 13 17 55 14 -1 12 -1 12 vhcurveto
        -1 13 -1 13 12 vvcurveto
        19 7 30 12 35 vhcurveto
        8 24 8 22 12 vvcurveto
        20 -13 8 -14 -16 -15 -15 -39 -24 vhcurveto
        -37 -23 -33 -4 -141 hhcurveto
        -94 -40 4 10 -90 hvcurveto
        421 vlineto
        33 5 6 32 vhcurveto
        89 hlineto
        192 104 -16 -19 58 hvcurveto
        47 -16 17 -21 15 -42 rrcurveto
        -22 8 5 -8 14 hhcurveto
        20 7 14 68 8 hvcurveto
        3 29 4 72 12 vvcurveto
        35 -8 9 -38 return
      </CharString>
      <CharString index="1">
        -104 callgsubr
        -70 -35 47 224 hvcurveto
        -5 706 rlineto
        21 callgsubr
        -17 callsubr
        -53 -3 11 callgsubr
        3 5 -33 hvcurveto
        -35 callsubr
        return
      </CharString>
      <CharString index="2">
        65 41 46 55 57 -40 42 -61 -55 -51 -40 -58 -60 39 -42 62 hvcurveto
        return
      </CharString>
      <CharString index="3">
        48 -71 callgsubr
        -22 -11 -8 -39 callgsubr
        -5 -6 -25 callsubr
        return
      </CharString>
      <CharString index="4">
        -73 callgsubr
        -15 11 -22 19 callgsubr
        -8 -8 callgsubr
        -11 hhcurveto
        -62 -16 29 242 hvcurveto
        309 vlineto
        141 4 64 11 -8 callsubr
        7 -5 callsubr
        -9 10 -14 -13 -17 -4 -21 -37 vhcurveto
        -43 -24 return
      </CharString>
      <CharString index="5">
        -46 callgsubr
        14 -11 22 12 7 2 1 7 hvcurveto
        5 7 1 11 hhcurveto
        return
      </CharString>
      <CharString index="6">
        1090 rmoveto
        8 14 5 18 47 hvcurveto
        279 108 rlineto
        15 6 4 7 8 vvcurveto
        19 -9 26 -10 17 vhcurveto
        25 -15 -15 16 -14 hhcurveto
        -7 -9 -4 -4 -7 hvcurveto
        -282 -179 rlineto
        -25 -16 -4 -5 -10 vvcurveto
        -18 15 -19 15 vhcurveto
        return
      </CharString>
      <CharString index="7">
        -43 -45 -39 -38 1 hvcurveto
        -51 1 62 -49 114 hhcurveto
        55 79 21 87 68 hvcurveto
        61 80 97 221 121 332 150 408 rcurveline
        56 153 32 25 69 24 rrcurveto
        40 14 9 10 15 vvcurveto
        15 -16 10 -25 vhcurveto
        -34 -33 -10 -49 -71 -55 10 -44 hhcurveto
        -49 -19 -13 -16 -21 21 -8 60 31 callsubr
        1 -24 -16 -41 -21 -58 -170 -501 rcurveline
        -1 -2 -1 -2 -2 vvcurveto
        -244 551 rlineto
        -24 52 -6 19 9 vvcurveto
        20 8 17 52 3 vhcurveto
        59 3 21 12 19 vvcurveto
        21 -23 8 -45 vhcurveto
        -61 -21 -11 -97 -72 -27 11 -56 hhcurveto
        -27 -14 -12 -12 -18 15 -12 28 -7 hvcurveto
        62 -17 16 -29 38 -81 221 -488 rcurveline
        79 -171 37 -43 20 -17 rrcurveto
        -386 -144 -60 -6 -56 hhcurveto
        -10 -34 13 19 -24 hvcurveto
        15 -19 -38 14 -21 hhcurveto
        endchar
      </CharString>
      <CharString index="8">
        rmoveto
        -251 146 -215 324 286 197 236 266 251 -146 215 -324 -286 -197 -236 -266 vhcurveto
        169 60 rmoveto
        225 123 143 164 180 156 -152 -301 -225 -123 -143 -164 -180 -156 152 301 vhcurveto
        endchar
      </CharString>
      <CharString index="9">
        rmoveto
        -161 115 -116 195 116 115 46 86 76 vhcurveto
        6 -17 6 -17 8 -17 rrcurveto
        -66 29 26 -15 28 hhcurveto
        19 17 16 14 15 hvcurveto
        18 16 37 22 36 14 rrcurveto
        43 17 15 15 19 vvcurveto
        14 -12 12 -17 -11 -6 -5 -3 -9 vhcurveto
        return
      </CharString>
      <CharString index="10">
        1501 rmoveto
        7 4 2 17 27 hvcurveto
        188 118 188 -118 rlineto
        -17 27 4 -2 7 hhcurveto
        13 22 22 17 5 -2 6 -15 13 hvcurveto
        -190 169 rlineto
        34 -38 -6 3 -10 hhcurveto
        -10 -6 -4 -33 -38 hvcurveto
        -190 -169 rlineto
        return
      </CharString>
      <CharString index="11">
        -92 callsubr
        -16 -4 -21 -36 vhcurveto
        -43 -24 return
      </CharString>
      <CharString index="12">
        -85 callgsubr
        endchar
      </CharString>
      <CharString index="13">
        -20 callgsubr
        -19 17 104 hvcurveto
        399 vlineto
        225 -150 80 -200 -109 -99 -38 -41 -66 vhcurveto
        -53 -33 -42 -48 -41 vvcurveto
        -36 42 -28 32 40 30 31 53 25 vhcurveto
        return
      </CharString>
      <CharString index="14">
        -22 -85 callsubr
        17 -10 -61 callgsubr
        return
      </CharString>
      <CharString index="15">
        -27 hhcurveto
        -102 callgsubr
        return
      </CharString>
      <CharString index="16">
        -43 callsubr
        hintmask 01111100
        -52 callsubr
        hintmask 10111100
        -4 26 26 -3 28 hhcurveto
        48 -28 callgsubr
        -21 -12 -6 -1 -2 -12 hvcurveto
        -1 -8 -11 -25 callsubr
        -57 -17 25 65 18 4 33 24 65 hvcurveto
        21 58 28 69 32 78 rrcurveto
        555 hlineto
        83 -208 rlineto
        30 -76 10 -40 -21 vvcurveto
        -45 -11 -22 -51 -8 -9 1 2 -11 vhcurveto
        2 -10 -10 -47 callsubr
        -21 -15 -12 19 callsubr
        48 34 35 3 5 35 hvcurveto
        hintmask 01111100
        -50 callsubr
        hintmask 10111100
        -87 callsubr
      </CharString>
      <CharString index="17">
        rmoveto
        8 callsubr
        49 27 24 4 5 42 vhcurveto
        return
      </CharString>
      <CharString index="18">
        -16 48 13 -4 8 hhcurveto
        15 14 22 16 10 -2 6 -19 10 hvcurveto
        -339 183 rlineto
        4 -7 -9 4 -7 hhcurveto
        -12 -11 -8 -36 -18 hvcurveto
        -12 -25 -6 -22 -13 vvcurveto
        -8 4 -8 15 -5 vhcurveto
        return
      </CharString>
      <CharString index="19">
        -72 -12 18 253 hvcurveto
        517 vlineto
        207 -4 rlineto
        21 -1 14 45 17 vvcurveto
        20 -8 7 -24 vhcurveto
        -210 18 hlineto
        318 15 152 104 64 11 -19 -27 24 vhcurveto
        52 -58 21 -7 33 1 rrcurveto
        34 1 30 23 33 vvcurveto
        50 -59 33 -39 17 vhcurveto
        16 -37 -55 9 -39 hhcurveto
        -226 -96 -191 -366 hvcurveto
        -3 -78 vlineto
        -21 -12 -34 -26 -11 4 -8 13 hvcurveto
        94 -2 rlineto
        -522 vlineto
        -242 -10 -29 -62 vhcurveto
        -17 -3 5 -20 -7 callsubr
        -11 -18 hvcurveto
        return
      </CharString>
      <CharString index="20">
        -9 callgsubr
        44 19 16 19 20 -14 11 -33 1 hvcurveto
        -63 1 -23 12 -66 141 -32 67 -345 863 -76 187 return
      </CharString>
      <CharString index="21">
        -202 hvcurveto
        -228 vlineto
        -242 -16 -29 -62 -11 -7 10 callsubr
        -7 -8 -74 callsubr
        -45 callgsubr
        hvcurveto
        hintmask 01111100
        -51 callsubr
        hintmask 10111100
        -4 31 25 -4 27 hhcurveto
        50 17 -81 callgsubr
        -6 -7 -50 callgsubr
        return
      </CharString>
      <CharString index="22">
        -101 callsubr
        -22 -47 callgsubr
        return
      </CharString>
      <CharString index="23">
        22 14 11 18 22 -16 15 -48 return
      </CharString>
      <CharString index="24">
        -4 32 24 -4 28 hhcurveto
        50 16 -81 callgsubr
        -5 -7 -1 -12 hhcurveto
        return
      </CharString>
      <CharString index="25">
        1 -7 -7 -47 callsubr
        return
      </CharString>
      <CharString index="26">
        -54 callsubr
        -14 11 -23 -64 callsubr
        return
      </CharString>
      <CharString index="27">
        -2 -15 -17 -2 36 callsubr
        298 vlineto
        136 59 87 73 65 hhcurveto
        20 25 -14 -32 16 hvcurveto
        -42 21 13 -11 18 hhcurveto
        33 48 38 55 66 -50 49 -77 -83 -112 -53 -140 -82 hvcurveto
        2 65 4 38 7 27 rrcurveto
        5 20 8 16 14 vvcurveto
        return
      </CharString>
      <CharString index="28">
        -49 callgsubr
        -706 vlineto
        -183 -13 -88 -85 -101 callsubr
        return
      </CharString>
      <CharString index="29">
        5 37 30 1 49 hhcurveto
        24 42 -1 -7 41 hvcurveto
        return
      </CharString>
      <CharString index="30">
        12 -62 86 4 -124 vvcurveto
        -49 -46 -65 -20 -16 vhcurveto
        -20 -16 -6 -13 -12 vvcurveto
        -15 17 -13 14 6 vhcurveto
        return
      </CharString>
      <CharString index="31">
        89 112 63 55 93 73 rrcurveto
        23 18 7 9 7 vvcurveto
        7 -7 10 -23 18 vhcurveto
        -93 73 -63 55 -89 112 rrcurveto
        43 -33 -5 8 -19 hhcurveto
        -11 -8 -12 -12 -22 6 -20 33 -48 hvcurveto
        145 -212 -145 -211 rlineto
        -33 -48 -6 -20 -22 vvcurveto
        return
      </CharString>
      <CharString index="32">
        -22 -47 callgsubr
        340 654 rmoveto
        548 vlineto
        45 32 17 67 182 149 -120 -221 -192 -128 -84 -114 -32 -87 -1 8 -69 vhcurveto
        return
      </CharString>
      <CharString index="33">
        73 45 52 63 64 -44 48 -68 -62 -56 -46 -65 return
      </CharString>
      <CharString index="34">
        -57 callgsubr
        -54 callsubr
        return
      </CharString>
      <CharString index="35">
        23 -22 14 -23 -40 vvcurveto
        -33 -12 -43 -19 -25 vhcurveto
        -17 -23 -2 -9 -12 vvcurveto
        -10 8 -8 16 29 23 23 77 36 vhcurveto
        23 50 14 60 70 vvcurveto
        return
      </CharString>
      <CharString index="36">
        16 -54 callsubr
        -14 11 return
      </CharString>
      <CharString index="37">
        -4 -21 -36 vhcurveto
        -43 -24 return
      </CharString>
      <CharString index="38">
        82 -11 30 66 -6 30 rrcurveto
        -12 62 -86 -4 124 vvcurveto
        49 46 65 20 16 vhcurveto
        20 16 6 13 12 vvcurveto
        15 -17 13 -14 -6 vhcurveto
        -43 -18 -121 -91 -174 vvcurveto
        -82 39 -88 56 -7 vhcurveto
        return
      </CharString>
      <CharString index="39">
        rmoveto
        70 167 87 201 90 228 238 -596 rcurveline
        endchar
      </CharString>
      <CharString index="40">
        rmoveto
        -248 133 -95 187 103 118 55 108 77 vhcurveto
        1 -30 5 -28 9 -31 rrcurveto
        return
      </CharString>
      <CharString index="41">
        -11 callgsubr
        -76 128 -73 113 221 138 139 328 hvcurveto
        -63 callsubr
        -72 20 callgsubr
        -45 -9 -4 -12 -26 callsubr
        16 -59 callsubr
        14 -26 3 -44 -67 vvcurveto
        endchar
      </CharString>
      <CharString index="42">
        60 -5 18 -17 -68 vvcurveto
        -424 vlineto
        -60 callsubr
        -15 17 -17 33 hvcurveto
        167 -493 rmoveto
        -1 callgsubr
        41 11 19 14 vhcurveto
        863 1298 rlineto
        5 7 12 18 44 callgsubr
        -44 -18 -16 -12 vhcurveto
        -863 -1298 rlineto
        -5 -7 -9 -14 -7 vvcurveto
        return
      </CharString>
      <CharString index="43">
        -27 hhcurveto
        -46 callgsubr
        14 -11 22 return
      </CharString>
      <CharString index="44">
        67 38 50 50 30 vvcurveto
        23 -16 14 -17 -20 -16 -14 -22 -22 vhcurveto
        -55 -53 -70 -29 -70 hhcurveto
        -220 -123 181 248 235 132 141 155 89 63 -33 -95 45 hvcurveto
        19 -40 26 -17 33 3 31 2 47 21 -1 37 -2 56 -45 45 -50 33 -53 35 -86 23 -82 2 -280 6 -215 -204 -1 -292 rrcurveto
        endchar
      </CharString>
      <CharString index="45">
        -93 -25 99 -99 143 374 72 114 265 -64 64 return
      </CharString>
      <CharString index="46">
        33 -5 vhcurveto
        29 -4 return
      </CharString>
      <CharString index="47">
        -67 callsubr
        endchar
      </CharString>
      <CharString index="48">
        -70 -147 -23 -6 -61 -1 rrcurveto
        -31 -1 -16 -9 -23 vvcurveto
        return
      </CharString>
      <CharString index="49">
        rmoveto
        -45 callgsubr
        vhcurveto
        return
      </CharString>
      <CharString index="50">
        -4 31 25 -4 27 hhcurveto
        50 17 return
      </CharString>
      <CharString index="51">
        22 rmoveto
        -58 callsubr
        return
      </CharString>
      <CharString index="52">
        -40 callsubr
        -24 -70 callsubr
        return
      </CharString>
      <CharString index="53">
        2 -12 -7 callsubr
        return
      </CharString>
      <CharString index="54">
        17 11 11 24 3 hvcurveto
        34 352 rlineto
        46 4 -32 2 -38 hhcurveto
        -41 -34 -8 -43 5 hvcurveto
        38 -349 rlineto
        -25 3 13 -10 17 hhcurveto
        return
      </CharString>
      <CharString index="55">
        27 -15 61 -61 90 -74 -21 41 -21 706 81 474 95 -62 62 return
      </CharString>
      <CharString index="56">
        5 37 30 1 49 hhcurveto
        24 51 -1 -7 41 hvcurveto
        return
      </CharString>
      <CharString index="57">
        -1 -11 -36 callsubr
        276 vlineto
        return
      </CharString>
      <CharString index="58">
        85 13 -88 -183 hvcurveto
        return
      </CharString>
      <CharString index="59">
        -56 callgsubr
        hintmask 01111100
        -79 callsubr
        hintmask 10111100
        -83 callgsubr
        -62 -15 29 242 hvcurveto
        return
      </CharString>
      <CharString index="60">
        -14 -11 -18 hvcurveto
        return
      </CharString>
      <CharString index="61">
        -49 -16 -15 -22 -18 return
      </CharString>
      <CharString index="62">
        -7 callgsubr
        16 callsubr
        return
      </CharString>
      <CharString index="63">
        -16 -17 -35 -32 -10 6 -8 18 hvcurveto
        return
      </CharString>
      <CharString index="64">
        -15 -13 -2 -6 -5 vvcurveto
        -17 22 -22 13 vhcurveto
        return
      </CharString>
      <CharString index="65">
        -207 -520 -218 -466 -66 -140 return
      </CharString>
      <CharString index="66">
        28 -28 15 -31 20 -45 rrcurveto
        -50 22 12 -15 20 hhcurveto
        15 19 15 18 8 -5 20 -5 27 hvcurveto
        -8 31 -8 44 -3 46 rrcurveto
        34 -3 -7 24 -22 hhcurveto
        -6 -15 -1 -1 -5 hvcurveto
        -1 -6 -5 -3 -5 hhcurveto
        -13 -18 4 14 -44 hvcurveto
        return
      </CharString>
      <CharString index="67">
        165 69 93 90 85 69 -87 -181 -197 -65 -67 -85 return
      </CharString>
      <CharString index="68">
        -2 -19 callgsubr
        return
      </CharString>
      <CharString index="69">
        5 33 47 3 62 hhcurveto
        61 73 -3 -5 82 hvcurveto
        return
      </CharString>
      <CharString index="70">
        5 -25 -24 4 20 callsubr
        -17 -22 -18 14 -12 22 9 8 2 1 7 hvcurveto
        1 7 7 1 11 hhcurveto
        return
      </CharString>
      <CharString index="71">
        -3 -25 hhcurveto
        -47 -33 5 4 -24 hvcurveto
        3 -23 -20 4 -32 hhcurveto
        -41 -22 -16 -19 -23 17 -12 26 -1 hvcurveto
        return
      </CharString>
      <CharString index="72">
        61 -25 -9 callsubr
        return
      </CharString>
      <CharString index="73">
        34 -27 18 -30 -42 vvcurveto
        -38 -18 -46 -24 -32 vhcurveto
        -17 -23 -1 -9 -12 vvcurveto
        -10 4 -8 16 29 35 41 77 36 vhcurveto
        23 50 17 76 70 vvcurveto
        92 -42 48 -37 -67 -67 -57 -29 vhcurveto
        endchar
      </CharString>
      <CharString index="74">
        hstemhm
        76 344 -159 159 -159 351 return
      </CharString>
      <CharString index="75">
        77 21 -61 -210 hvcurveto
        -879 vlineto
        -232 -85 -124 -87 -12 -11 1 2 -8 vhcurveto
        return
      </CharString>
      <CharString index="76">
        33 hhcurveto
        17 14 3 3 14 hvcurveto
        hintmask 01011100
        3 12 11 2 13 hhcurveto
        27 19 -3 -3 16 hvcurveto
        hintmask 10011100
        -3 16 23 -2 15 hhcurveto
        41 18 14 20 18 -20 14 -37 -37 return
      </CharString>
      <CharString index="77">
        rmoveto
        435 vlineto
        111 53 109 73 105 hhcurveto
        154 132 -155 -272 -250 -126 -114 -145 -117 -113 67 105 -52 hvcurveto
        endchar
      </CharString>
      <CharString index="78">
        -23 -29 -54 -29 -32 65 -37 93 111 89 80 95 85 -43 52 -122 41 hvcurveto
        return
      </CharString>
      <CharString index="79">
        17 -54 callsubr
        -15 11 return
      </CharString>
      <CharString index="80">
        3 39 hhcurveto
        39 24 -3 -2 21 hvcurveto
        return
      </CharString>
      <CharString index="81">
        hstem
        76 169 623 161 vstem
        return
      </CharString>
      <CharString index="82">
        79 75 -15 76 hhcurveto
        50 23 11 26 18 -15 15 -30 hvcurveto
        -29 -34 -7 -36 hhcurveto
        return
      </CharString>
      <CharString index="83">
        rmoveto
        225 138 187 157 167 -135 117 -188 8 hvcurveto
        151 224 rlineto
        13 19 6 12 5 vvcurveto
        8 -8 3 -15 vhcurveto
        return
      </CharString>
      <CharString index="84">
        5 20 8 -5 callsubr
        -10 10 -13 -13 -16 -70 callgsubr
        return
      </CharString>
</ttFont>
